<svg width="20" height="20" viewBox="0 0 20 20" fill="none" xmlns="http://www.w3.org/2000/svg">
<path d="M10.0026 10C12.3038 10 14.1693 8.13454 14.1693 5.83335C14.1693 3.53217 12.3038 1.66669 10.0026 1.66669C7.70142 1.66669 5.83594 3.53217 5.83594 5.83335C5.83594 8.13454 7.70142 10 10.0026 10Z" stroke="#061A40" stroke-width="1.5"/>
<path d="M14.1681 11.6667H14.4614C15.0706 11.6669 15.6588 11.8895 16.1155 12.2928C16.5722 12.696 16.8658 13.2522 16.9414 13.8567L17.2672 16.46C17.2965 16.6945 17.2756 16.9326 17.2059 17.1584C17.1362 17.3843 17.0192 17.5927 16.8627 17.7699C16.7063 17.947 16.514 18.0889 16.2985 18.186C16.0831 18.2832 15.8494 18.3334 15.6131 18.3334H4.38969C4.15334 18.3334 3.91968 18.2832 3.70423 18.186C3.48877 18.0889 3.29644 17.947 3.14 17.7699C2.98356 17.5927 2.86659 17.3843 2.79686 17.1584C2.72712 16.9326 2.70621 16.6945 2.73552 16.46L3.06052 13.8567C3.1361 13.2519 3.43003 12.6955 3.88705 12.2922C4.34406 11.8889 4.93267 11.6665 5.54219 11.6667H5.83469" stroke="#061A40" stroke-width="1.5" stroke-linecap="round" stroke-linejoin="round"/>
</svg>
