<svg width="60" height="60" viewBox="0 0 60 60" fill="none" xmlns="http://www.w3.org/2000/svg">
<rect width="60" height="60" rx="12" fill="#F2F4F5"/>
<path d="M17.0952 21.0952C17.0952 20.4574 17.2209 19.8258 17.465 19.2365C17.7091 18.6472 18.0668 18.1117 18.5179 17.6607C18.9689 17.2097 19.5043 16.8519 20.0936 16.6078C20.6829 16.3637 21.3145 16.2381 21.9524 16.2381C22.5902 16.2381 23.2218 16.3637 23.8111 16.6078C24.4004 16.8519 24.9359 17.2097 25.3869 17.6607C25.8379 18.1117 26.1957 18.6472 26.4398 19.2365C26.6839 19.8258 26.8095 20.4574 26.8095 21.0952C26.8095 22.3834 26.2978 23.6189 25.3869 24.5298C24.476 25.4406 23.2406 25.9524 21.9524 25.9524C20.6642 25.9524 19.4288 25.4406 18.5179 24.5298C17.607 23.6189 17.0952 22.3834 17.0952 21.0952ZM21.9524 13C19.8054 13 17.7463 13.8529 16.2282 15.371C14.71 16.8892 13.8571 18.9482 13.8571 21.0952C13.8571 23.2422 14.71 25.3013 16.2282 26.8194C17.7463 28.3376 19.8054 29.1905 21.9524 29.1905C24.0994 29.1905 26.1584 28.3376 27.6766 26.8194C29.1947 25.3013 30.0476 23.2422 30.0476 21.0952C30.0476 18.9482 29.1947 16.8892 27.6766 15.371C26.1584 13.8529 24.0994 13 21.9524 13ZM38.1429 22.7143C38.1429 21.8555 38.484 21.0319 39.0913 20.4246C39.6985 19.8173 40.5222 19.4762 41.381 19.4762C42.2397 19.4762 43.0634 19.8173 43.6706 20.4246C44.2779 21.0319 44.619 21.8555 44.619 22.7143C44.619 23.5731 44.2779 24.3967 43.6706 25.004C43.0634 25.6112 42.2397 25.9524 41.381 25.9524C40.5222 25.9524 39.6985 25.6112 39.0913 25.004C38.484 24.3967 38.1429 23.5731 38.1429 22.7143ZM41.381 16.2381C39.6634 16.2381 38.0161 16.9204 36.8016 18.1349C35.5871 19.3494 34.9048 20.9967 34.9048 22.7143C34.9048 24.4319 35.5871 26.0791 36.8016 27.2936C38.0161 28.5082 39.6634 29.1905 41.381 29.1905C43.0985 29.1905 44.7458 28.5082 45.9603 27.2936C47.1748 26.0791 47.8571 24.4319 47.8571 22.7143C47.8571 20.9967 47.1748 19.3494 45.9603 18.1349C44.7458 16.9204 43.0985 16.2381 41.381 16.2381ZM9 37.2857C9 35.9975 9.51173 34.7621 10.4226 33.8512C11.3335 32.9403 12.5689 32.4286 13.8571 32.4286H30.0476C31.3358 32.4286 32.5712 32.9403 33.4821 33.8512C34.393 34.7621 34.9048 35.9975 34.9048 37.2857V37.6484C34.9013 37.7967 34.8905 37.9448 34.8724 38.092C34.6879 39.6618 34.1036 41.158 33.1756 42.4375C31.4044 44.8823 28.0368 47 21.9524 47C15.8712 47 12.5036 44.8823 10.7259 42.4375C9.79904 41.1577 9.21595 39.6615 9.03238 38.092C9.01626 37.9446 9.00546 37.7966 9 37.6484V37.2857ZM12.2381 37.5771V37.5998L12.251 37.7585C12.3764 38.7609 12.7529 39.7154 13.3455 40.5335C14.4011 41.9842 16.7002 43.7619 21.9524 43.7619C27.2046 43.7619 29.5036 41.9842 30.5592 40.5335C31.1519 39.7154 31.5283 38.7609 31.6537 37.7585C31.6595 37.7046 31.6638 37.6506 31.6667 37.5966V37.2857C31.6667 36.8563 31.4961 36.4445 31.1925 36.1409C30.8888 35.8372 30.477 35.6667 30.0476 35.6667H13.8571C13.4277 35.6667 13.0159 35.8372 12.7123 36.1409C12.4087 36.4445 12.2381 36.8563 12.2381 37.2857V37.5771ZM41.381 43.7619C39.477 43.7619 37.9162 43.4705 36.6533 42.9912C37.1725 42.0403 37.5654 41.0258 37.8223 39.9733C38.6901 40.3004 39.8429 40.5238 41.381 40.5238C45.0044 40.5238 46.4907 39.2869 47.1448 38.3672C47.5271 37.8308 47.7697 37.2076 47.8507 36.5539L47.8571 36.4632C47.8537 36.2508 47.767 36.0482 47.6155 35.8992C47.4641 35.7501 47.2601 35.6666 47.0476 35.6667H37.981C37.7419 34.4924 37.2441 33.3862 36.5238 32.4286H47.0476C49.2819 32.4286 51.0952 34.2419 51.0952 36.4762V36.5312C51.0914 36.6492 51.0827 36.7669 51.0693 36.8842C50.9321 38.0978 50.4887 39.2567 49.7806 40.2518C48.4141 42.1655 45.8528 43.7619 41.381 43.7619Z" fill="#061A40"/>
</svg>
