<svg width="130" height="68" viewBox="0 0 130 68" fill="none" xmlns="http://www.w3.org/2000/svg">
<path d="M130 1C118.389 1 118.389 16.1151 106.778 16.1151C95.1666 16.1151 95.1665 1 83.5554 1C71.9442 1 71.9443 16.1151 60.3332 16.1151C48.7221 16.1151 48.722 1 37.1109 1C25.4998 1 25.4999 16.1151 13.8887 16.1151C2.2776 16.1151 2.27754 1 -9.33358 1C-20.9447 1 -20.9448 16.1151 -32.5559 16.1151C-44.167 16.1151 -44.1669 1 -55.7781 1C-67.3892 1 -67.3892 16.1151 -79.0004 16.1151" stroke="#F2F4F5" stroke-width="2" stroke-miterlimit="10"/>
<path d="M130 26.4893C118.389 26.4893 118.389 41.6043 106.778 41.6043C95.1666 41.6043 95.1665 26.4893 83.5554 26.4893C71.9442 26.4893 71.9443 41.6043 60.3332 41.6043C48.7221 41.6043 48.722 26.4893 37.1109 26.4893C25.4998 26.4893 25.4999 41.6043 13.8887 41.6043C2.2776 41.6043 2.27754 26.4893 -9.33358 26.4893C-20.9447 26.4893 -20.9448 41.6043 -32.5559 41.6043C-44.167 41.6043 -44.1669 26.4893 -55.7781 26.4893C-67.3892 26.4893 -67.3892 41.6043 -79.0004 41.6043" stroke="#F2F4F5" stroke-width="2" stroke-miterlimit="10"/>
<path d="M130 51.6809C118.389 51.6809 118.389 66.7959 106.778 66.7959C95.1666 66.7959 95.1665 51.6809 83.5554 51.6809C71.9442 51.6809 71.9443 66.7959 60.3332 66.7959C48.7221 66.7959 48.722 51.6809 37.1109 51.6809C25.4998 51.6809 25.4999 66.7959 13.8887 66.7959C2.2776 66.7959 2.27754 51.6809 -9.33358 51.6809C-20.9447 51.6809 -20.9448 66.7959 -32.5559 66.7959C-44.167 66.7959 -44.1669 51.6809 -55.7781 51.6809C-67.3892 51.6809 -67.3892 66.7959 -79.0004 66.7959" stroke="#F2F4F5" stroke-width="2" stroke-miterlimit="10"/>
</svg>
