<svg width="168" height="121" viewBox="0 0 168 121" fill="none" xmlns="http://www.w3.org/2000/svg">
<path d="M107.209 0C73.9082 0 46.9336 26.9746 46.9336 60.2758C46.9336 93.5771 73.9082 120.609 107.209 120.609C140.511 120.609 167.485 93.6346 167.485 60.3333C167.485 27.0321 140.511 0 107.209 0ZM107.209 117.676C75.5186 117.676 49.8668 91.9666 49.8668 60.3333C49.8668 28.6425 75.5761 2.99079 107.209 2.99079C138.9 2.99079 164.552 28.7 164.552 60.3333C164.609 91.9666 138.9 117.676 107.209 117.676Z" fill="#F4F5FE" fill-opacity="0.3"/>
<path d="M82.4191 65.1647V69.0757L74.1945 58.6655L65.9698 69.0757L57.6876 58.6655L49.463 69.0757L41.1808 58.6655L32.9561 69.0757L24.7315 58.6655L16.4493 69.0757L8.22465 58.6655L0 69.0757V65.1647L8.22465 54.7545L16.4493 65.1647L24.7315 54.7545L32.9561 65.1647L41.1808 54.7545L49.463 65.1647L57.6876 54.7545L65.9123 65.1647L74.1945 54.7545L82.4191 65.1647Z" fill="white" fill-opacity="0.3"/>
</svg>
