<svg width="162" height="348" viewBox="0 0 162 348" fill="none" xmlns="http://www.w3.org/2000/svg">
<path d="M0.998655 584L0.998693 151.243C1.00183 131.505 4.89247 111.962 12.4485 93.729C20.0045 75.4959 31.0777 58.9302 45.0358 44.9783C58.9939 31.0263 75.5634 19.9614 93.7977 12.4155C112.032 4.86963 131.574 0.990609 151.307 1.00003V1.00003C191.136 1.01904 229.328 16.8558 257.486 45.029C285.645 73.2022 301.466 111.406 301.473 151.243L301.473 584" stroke="white" stroke-opacity="0.2" stroke-miterlimit="10"/>
<path d="M22.9076 584L22.9076 151.243C22.9076 117.201 36.4277 84.5545 60.4938 60.4837C84.5599 36.4129 117.2 22.8901 151.235 22.8901C185.27 22.8901 217.91 36.4129 241.976 60.4837C266.042 84.5545 279.563 117.202 279.563 151.243L279.562 584" stroke="white" stroke-opacity="0.2" stroke-miterlimit="10"/>
<path d="M44.7965 584L44.7965 151.243C45.2153 123.286 56.6127 96.617 76.5266 76.9953C96.4405 57.3737 123.273 46.375 151.226 46.375C179.18 46.375 206.012 57.3737 225.926 76.9954C245.84 96.617 257.237 123.286 257.656 151.243L257.656 584" stroke="white" stroke-opacity="0.2" stroke-miterlimit="10"/>
<path d="M66.7053 584L66.7053 151.243C66.5167 140.022 68.5634 128.875 72.7263 118.453C76.8892 108.032 83.0848 98.5431 90.9519 90.541C98.819 82.5389 108.2 76.1834 118.548 71.8451C128.897 67.5068 140.005 65.2725 151.226 65.2725C162.446 65.2725 173.554 67.5068 183.903 71.8451C194.251 76.1834 203.632 82.5389 211.499 90.541C219.366 98.5431 225.562 108.032 229.725 118.453C233.888 128.875 235.935 140.022 235.746 151.243L235.746 584" stroke="white" stroke-opacity="0.2" stroke-miterlimit="10"/>
</svg>
