<svg width="129" height="70" viewBox="0 0 129 70" fill="none" xmlns="http://www.w3.org/2000/svg">
<path d="M14.4449 102.299C19.5219 98.3519 24.3099 99.2718 28.5244 100.062C32.7388 100.852 35.4798 101.384 38.8342 98.776C42.1887 96.1681 42.4359 93.0248 42.6901 89.0485C42.9442 85.0722 43.2523 79.9023 48.3293 75.9551C53.4063 72.008 58.1716 72.9454 62.3861 73.7355C66.6005 74.5256 69.4095 75.0048 72.8319 72.344C76.2544 69.6831 76.4563 66.5751 76.6877 62.6164C76.9192 58.6577 77.25 53.4703 82.327 49.5231C87.404 45.5759 92.1745 46.4733 96.4064 47.2859C100.638 48.0984 103.385 48.5904 106.83 45.9119C110.275 43.2335 110.437 40.1207 110.685 36.1844C110.934 32.2481 111.248 27.0382 116.325 23.091C116.559 22.8631 116.839 22.6867 117.145 22.5732C117.452 22.4598 117.778 22.4118 118.103 22.4325C118.428 22.4533 118.745 22.5422 119.031 22.6936C119.318 22.8449 119.569 23.0554 119.768 23.311C119.967 23.5666 120.109 23.8616 120.185 24.1769C120.261 24.4922 120.269 24.8207 120.209 25.1407C120.149 25.4608 120.022 25.7653 119.836 26.0344C119.651 26.3035 119.411 26.531 119.132 26.7022C115.71 29.3631 115.508 32.4711 115.276 36.4298C115.045 40.3885 114.714 45.5759 109.637 49.5231C104.56 53.4703 99.7495 52.5681 95.5351 51.778C91.3207 50.9879 88.5797 50.4559 85.1572 53.1167C81.7348 55.7775 81.5329 58.8855 81.3014 62.8442C81.0699 66.8029 80.7392 71.9904 75.6622 75.9376C70.5852 79.8848 65.7972 78.9649 61.5827 78.1748C57.3683 77.3847 54.6273 76.8527 51.2275 79.4959C47.8278 82.1391 47.6032 85.2647 47.3717 89.2234C47.1402 93.1821 46.7868 98.3872 41.7325 102.317C36.6782 106.246 31.8675 105.344 27.653 104.554C23.4386 103.764 20.6976 103.232 17.2752 105.893C16.7878 106.192 16.2086 106.303 15.6485 106.204C15.0884 106.105 14.5867 105.803 14.2392 105.356C13.8917 104.909 13.7229 104.348 13.765 103.781C13.8071 103.214 14.0573 102.68 14.4676 102.281L14.4449 102.299Z" fill="#E4F5FF" fill-opacity="0.18"/>
<path d="M1.63945 80.7873C6.71644 76.8402 11.5045 77.76 15.7189 78.5501C19.9333 79.3402 22.6744 79.8722 26.0968 77.2114C29.5192 74.5506 29.7211 71.4426 29.9526 67.4839C30.1841 63.5252 30.5148 58.3377 35.5918 54.3905C40.6688 50.4433 45.4569 51.3632 49.6713 52.1533C53.8857 52.9434 56.6267 53.4754 60.0265 50.8322C63.4262 48.189 63.6508 45.0634 63.8823 41.1047C64.1138 37.146 64.4445 31.9585 69.5215 28.0113C74.5985 24.0641 79.4092 24.9664 83.6236 25.7565C87.838 26.5465 90.579 27.0786 94.0015 24.4178C97.4239 21.7569 97.6258 18.6489 97.8573 14.6902C98.0888 10.7315 98.4422 5.52645 103.497 1.59688C103.731 1.36897 104.011 1.19251 104.317 1.07905C104.624 0.965588 104.95 0.917637 105.275 0.938395C105.6 0.959153 105.917 1.04819 106.203 1.19955C106.49 1.35091 106.741 1.56122 106.94 1.81682C107.139 2.07242 107.281 2.36745 107.357 2.68275C107.432 2.99805 107.441 3.32653 107.381 3.6466C107.321 3.96667 107.194 4.27114 107.008 4.54022C106.823 4.8093 106.583 5.03689 106.304 5.2081C102.904 7.8513 102.72 10.9817 102.448 14.9356C102.177 18.8895 101.886 24.0818 96.8091 28.029C91.7321 31.9762 86.9615 31.0787 82.707 30.2839C78.4524 29.489 75.7515 28.9617 72.3291 31.6225C68.9067 34.2834 68.7448 37.3962 68.4733 41.3501C68.2017 45.304 67.9111 50.4962 62.8341 54.4434C57.7571 58.3906 52.9865 57.4932 48.7546 56.6807C44.5228 55.8681 41.7992 55.3585 38.3994 58.0017C34.9996 60.645 34.7925 63.793 34.5436 67.7293C34.2947 71.6655 33.9814 76.8754 28.9044 80.8226C23.8274 84.7698 19.0568 83.8724 14.8249 83.0599C10.5931 82.2473 7.86948 81.7377 4.44705 84.3986C3.95965 84.6979 3.38053 84.8087 2.82042 84.7097C2.26031 84.6107 1.75854 84.3089 1.41105 83.8619C1.06356 83.415 0.894772 82.8543 0.93691 82.2871C0.979047 81.7198 1.22915 81.1859 1.63945 80.7873Z" fill="#E4F5FF" fill-opacity="0.18"/>
</svg>
