<svg width="60" height="60" viewBox="0 0 60 60" fill="none" xmlns="http://www.w3.org/2000/svg">
<rect width="60" height="60" rx="12" fill="#F2F4F5"/>
<path d="M21 36.75C21 36.1533 21.2371 35.581 21.659 35.159C22.081 34.7371 22.6533 34.5 23.25 34.5C23.8467 34.5 24.419 34.7371 24.841 35.159C25.2629 35.581 25.5 36.1533 25.5 36.75V39C25.5 39.5967 25.2629 40.169 24.841 40.591C24.419 41.0129 23.8467 41.25 23.25 41.25C22.6533 41.25 22.081 41.0129 21.659 40.591C21.2371 40.169 21 39.5967 21 39V36.75ZM34.5 27.75C34.5 27.1533 34.7371 26.581 35.159 26.159C35.581 25.7371 36.1533 25.5 36.75 25.5C37.3467 25.5 37.919 25.7371 38.341 26.159C38.7629 26.581 39 27.1533 39 27.75V39C39 39.5967 38.7629 40.169 38.341 40.591C37.919 41.0129 37.3467 41.25 36.75 41.25C36.1533 41.25 35.581 41.0129 35.159 40.591C34.7371 40.169 34.5 39.5967 34.5 39V27.75ZM27.75 32.25C27.75 31.6533 27.9871 31.081 28.409 30.659C28.831 30.2371 29.4033 30 30 30C30.5967 30 31.169 30.2371 31.591 30.659C32.0129 31.081 32.25 31.6533 32.25 32.25V39C32.25 39.5967 32.0129 40.169 31.591 40.591C31.169 41.0129 30.5967 41.25 30 41.25C29.4033 41.25 28.831 41.0129 28.409 40.591C27.9871 40.169 27.75 39.5967 27.75 39V32.25Z" fill="#061A40"/>
<path d="M21 15.375H18.75C17.5565 15.375 16.4119 15.8491 15.568 16.693C14.7241 17.5369 14.25 18.6815 14.25 19.875V43.5C14.25 44.6935 14.7241 45.8381 15.568 46.682C16.4119 47.5259 17.5565 48 18.75 48H41.25C42.4435 48 43.5881 47.5259 44.432 46.682C45.2759 45.8381 45.75 44.6935 45.75 43.5V19.875C45.75 18.6815 45.2759 17.5369 44.432 16.693C43.5881 15.8491 42.4435 15.375 41.25 15.375H39V17.625H41.25C41.8467 17.625 42.419 17.8621 42.841 18.284C43.2629 18.706 43.5 19.2783 43.5 19.875V43.5C43.5 44.0967 43.2629 44.669 42.841 45.091C42.419 45.5129 41.8467 45.75 41.25 45.75H18.75C18.1533 45.75 17.581 45.5129 17.159 45.091C16.7371 44.669 16.5 44.0967 16.5 43.5V19.875C16.5 19.2783 16.7371 18.706 17.159 18.284C17.581 17.8621 18.1533 17.625 18.75 17.625H21V15.375Z" fill="#061A40"/>
<path d="M33.375 14.25C33.6734 14.25 33.9595 14.3685 34.1705 14.5795C34.3815 14.7905 34.5 15.0766 34.5 15.375V17.625C34.5 17.9234 34.3815 18.2095 34.1705 18.4205C33.9595 18.6315 33.6734 18.75 33.375 18.75H26.625C26.3266 18.75 26.0405 18.6315 25.8295 18.4205C25.6185 18.2095 25.5 17.9234 25.5 17.625V15.375C25.5 15.0766 25.6185 14.7905 25.8295 14.5795C26.0405 14.3685 26.3266 14.25 26.625 14.25H33.375ZM26.625 12C25.7299 12 24.8714 12.3556 24.2385 12.9885C23.6056 13.6214 23.25 14.4799 23.25 15.375V17.625C23.25 18.5201 23.6056 19.3786 24.2385 20.0115C24.8714 20.6444 25.7299 21 26.625 21H33.375C34.2701 21 35.1286 20.6444 35.7615 20.0115C36.3944 19.3786 36.75 18.5201 36.75 17.625V15.375C36.75 14.4799 36.3944 13.6214 35.7615 12.9885C35.1286 12.3556 34.2701 12 33.375 12H26.625Z" fill="#061A40"/>
</svg>
