<svg width="60" height="60" viewBox="0 0 60 60" fill="none" xmlns="http://www.w3.org/2000/svg">
<rect width="60" height="60" rx="12" fill="#F2F4F5"/>
<path d="M17.4583 44.3333V15.6666H21.0417V28.2083L25.5208 25.5208L30 28.2083V15.6666H38.9583V28.3516C39.5496 28.262 40.1408 28.2083 40.75 28.2083C41.3592 28.2083 41.9504 28.262 42.5417 28.3516V15.6666C42.5417 13.6958 40.9292 12.0833 38.9583 12.0833H17.4583C15.4875 12.0833 13.875 13.6958 13.875 15.6666V44.3333C13.875 46.3041 15.4875 47.9166 17.4583 47.9166H30.4658C29.7133 46.8416 29.1221 45.6233 28.7279 44.3333H17.4583ZM40.75 31.7916C35.805 31.7916 31.7917 35.8049 31.7917 40.7499C31.7917 45.6949 35.805 49.7083 40.75 49.7083C45.695 49.7083 49.7083 45.6949 49.7083 40.7499C49.7083 35.8049 45.695 31.7916 40.75 31.7916ZM38.5104 45.2291V36.2708L45.6771 40.7499L38.5104 45.2291Z" fill="#061A40"/>
</svg>
