<svg width="60" height="60" viewBox="0 0 60 60" fill="none" xmlns="http://www.w3.org/2000/svg">
<rect width="60" height="60" rx="12" fill="#006494"/>
<g clip-path="url(#clip0_66_1572)">
<path d="M49.375 30.4844V29.5156C49.375 28.9804 48.9415 28.5469 48.4062 28.5469H31.4531V26.125H35.8125C36.8824 26.125 37.75 25.2574 37.75 24.1875V16.4375C37.75 15.3676 36.8824 14.5 35.8125 14.5H24.1875C23.1176 14.5 22.25 15.3676 22.25 16.4375V24.1875C22.25 25.2574 23.1176 26.125 24.1875 26.125H28.5469V28.5469H11.5938C11.0585 28.5469 10.625 28.9804 10.625 29.5156V30.4844C10.625 31.0196 11.0585 31.4531 11.5938 31.4531H17.8906V33.875H14.5C13.4301 33.875 12.5625 34.7426 12.5625 35.8125V43.5625C12.5625 44.6324 13.4301 45.5 14.5 45.5H24.1875C25.2574 45.5 26.125 44.6324 26.125 43.5625V35.8125C26.125 34.7426 25.2574 33.875 24.1875 33.875H20.7969V31.4531H39.2031V33.875H35.8125C34.7426 33.875 33.875 34.7426 33.875 35.8125V43.5625C33.875 44.6324 34.7426 45.5 35.8125 45.5H45.5C46.5699 45.5 47.4375 44.6324 47.4375 43.5625V35.8125C47.4375 34.7426 46.5699 33.875 45.5 33.875H42.1094V31.4531H48.4062C48.9415 31.4531 49.375 31.0196 49.375 30.4844ZM26.125 22.25V18.375H33.875V22.25H26.125ZM22.25 41.625H16.4375V37.75H22.25V41.625ZM43.5625 41.625H37.75V37.75H43.5625V41.625Z" fill="#F2F4F5"/>
</g>
<defs>
<clipPath id="clip0_66_1572">
<rect width="38.75" height="31" fill="white" transform="translate(10.625 14.5)"/>
</clipPath>
</defs>
</svg>
