<svg width="194" height="192" viewBox="0 0 194 192" fill="none" xmlns="http://www.w3.org/2000/svg">
<path d="M23.1212 99.6606C30.2815 99.7401 33.8164 103.861 36.9413 107.47C40.0662 111.08 42.086 113.444 46.817 113.496C51.5479 113.549 53.9421 110.981 56.9198 107.692C59.8976 104.403 63.7496 100.112 70.9099 100.191C78.0702 100.271 81.5731 104.391 84.698 108.001C87.823 111.61 89.9387 113.975 94.7655 114.029C99.5923 114.082 101.923 111.514 104.868 108.224C107.814 104.935 111.698 100.644 118.858 100.723C126.019 100.803 129.554 104.892 132.679 108.533C135.803 112.175 137.855 114.507 142.714 114.561C147.573 114.615 149.871 112.014 152.817 108.757C155.762 105.499 159.647 101.176 166.807 101.256C167.169 101.22 167.535 101.26 167.881 101.373C168.227 101.487 168.545 101.671 168.813 101.915C169.082 102.158 169.296 102.455 169.441 102.785C169.586 103.116 169.659 103.474 169.655 103.834C169.651 104.195 169.57 104.55 169.418 104.877C169.266 105.205 169.045 105.497 168.771 105.734C168.497 105.972 168.175 106.149 167.827 106.255C167.479 106.361 167.112 106.393 166.75 106.349C161.924 106.295 159.593 108.864 156.648 112.153C153.702 115.442 149.818 119.733 142.657 119.654C135.497 119.574 131.93 115.454 128.805 111.844C125.68 108.234 123.661 105.87 118.834 105.817C114.007 105.763 111.677 108.332 108.731 111.621C105.785 114.91 101.901 119.202 94.7409 119.122C87.5806 119.043 84.0457 114.922 80.9208 111.312C77.7959 107.702 75.7761 105.339 70.9812 105.286C66.1864 105.232 63.8241 107.8 60.8783 111.09C57.9326 114.379 54.0166 118.67 46.8883 118.591C39.7599 118.512 36.1931 114.391 33.0682 110.781C29.9433 107.171 27.9235 104.808 23.0966 104.754C22.4644 104.677 21.8829 104.372 21.4634 103.898C21.0439 103.423 20.8159 102.812 20.8229 102.182C20.8299 101.552 21.0714 100.946 21.5013 100.481C21.9312 100.016 22.5194 99.7239 23.1532 99.661L23.1212 99.6606Z" fill="#006494"/>
<path d="M26.8719 72.0382C34.0322 72.1177 37.5671 76.2382 40.692 79.848C43.817 83.4578 45.8368 85.8214 50.6636 85.875C55.4904 85.9285 57.8207 83.3601 60.7665 80.0708C63.7122 76.7815 67.5962 72.4902 74.7565 72.5697C81.9168 72.6492 85.4517 76.7697 88.5766 80.3795C91.7015 83.9893 93.7214 86.3529 98.5162 86.4062C103.311 86.4594 105.673 83.8913 108.619 80.602C111.565 77.3127 115.449 73.0214 122.609 73.1009C129.769 73.1804 133.336 77.3013 136.461 80.911C139.586 84.5208 141.606 86.8845 146.433 86.9381C151.26 86.9916 153.59 84.4232 156.536 81.1339C159.481 77.8446 163.397 73.5537 170.526 73.6328C170.888 73.5968 171.254 73.637 171.6 73.7506C171.946 73.8641 172.263 74.0486 172.532 74.2919C172.801 74.5353 173.015 74.8321 173.16 75.1629C173.305 75.4936 173.378 75.8508 173.374 76.2113C173.37 76.5718 173.289 76.9273 173.137 77.2547C172.984 77.5821 172.764 77.8741 172.49 78.1114C172.216 78.3488 171.894 78.5261 171.546 78.632C171.198 78.7379 170.831 78.7699 170.469 78.7259C165.674 78.6726 163.344 81.2727 160.366 84.53C157.389 87.7874 153.537 92.1106 146.376 92.0311C139.216 91.9516 135.681 87.8628 132.524 84.221C129.368 80.5792 127.379 78.2476 122.553 78.194C117.726 78.1404 115.427 80.7408 112.45 83.9981C109.472 87.2555 105.62 91.5787 98.4597 91.4992C91.2994 91.4197 87.7641 87.3309 84.6396 83.6894C81.515 80.048 79.4948 77.716 74.7 77.6628C69.9051 77.6096 67.5425 80.2093 64.5971 83.467C61.6517 86.7246 57.7674 91.0475 50.6071 90.968C43.4467 90.8886 39.9115 86.7997 36.7869 83.1583C33.6624 79.5168 31.6422 77.1848 26.8154 77.1313C26.1831 77.0543 25.6017 76.7494 25.1822 76.2749C24.7627 75.8003 24.5347 75.1895 24.5417 74.5592C24.5487 73.9288 24.7902 73.3232 25.2201 72.8581C25.65 72.393 26.2381 72.1011 26.8719 72.0382Z" fill="#006494"/>
</svg>
