<svg width="60" height="60" viewBox="0 0 60 60" fill="none" xmlns="http://www.w3.org/2000/svg">
<rect width="60" height="60" rx="12" fill="#006494"/>
<path d="M43.1263 43.1251L36.5842 36.5713M40.2096 27.8126C40.2096 31.1002 38.9037 34.2531 36.579 36.5778C34.2543 38.9024 31.1014 40.2084 27.8138 40.2084C24.5262 40.2084 21.3733 38.9024 19.0486 36.5778C16.724 34.2531 15.418 31.1002 15.418 27.8126C15.418 24.525 16.724 21.3721 19.0486 19.0474C21.3733 16.7227 24.5262 15.4167 27.8138 15.4167C31.1014 15.4167 34.2543 16.7227 36.579 19.0474C38.9037 21.3721 40.2096 24.525 40.2096 27.8126V27.8126Z" stroke="#F2F4F5" stroke-width="3" stroke-linecap="round"/>
</svg>
