<svg width="60" height="60" viewBox="0 0 60 60" fill="none" xmlns="http://www.w3.org/2000/svg">
<rect width="60" height="60" rx="12" fill="#F2F4F5"/>
<path d="M44.3423 14.8292C44.9762 14.8292 45.5842 15.081 46.0325 15.5293C46.4807 15.9776 46.7326 16.5855 46.7326 17.2195V36.3414C46.7326 36.9753 46.4807 37.5833 46.0325 38.0316C45.5842 38.4798 44.9762 38.7316 44.3423 38.7316H38.3667C37.6246 38.7316 36.8926 38.9044 36.2288 39.2363C35.565 39.5682 34.9876 40.0501 34.5423 40.6438L30.0009 46.6983L25.4594 40.6438C25.0141 40.0501 24.4367 39.5682 23.7729 39.2363C23.1091 38.9044 22.3772 38.7316 21.635 38.7316H15.6594C15.0255 38.7316 14.4175 38.4798 13.9692 38.0316C13.521 37.5833 13.2692 36.9753 13.2692 36.3414V17.2195C13.2692 16.5855 13.521 15.9776 13.9692 15.5293C14.4175 15.081 15.0255 14.8292 15.6594 14.8292H44.3423ZM15.6594 12.439C14.3915 12.439 13.1756 12.9426 12.2791 13.8391C11.3826 14.7357 10.8789 15.9516 10.8789 17.2195L10.8789 36.3414C10.8789 37.6093 11.3826 38.8252 12.2791 39.7217C13.1756 40.6182 14.3915 41.1219 15.6594 41.1219H21.635C22.0061 41.1219 22.3721 41.2083 22.704 41.3742C23.0359 41.5402 23.3246 41.7811 23.5472 42.078L28.0887 48.1325C28.3113 48.4293 28.6 48.6703 28.9319 48.8362C29.2638 49.0022 29.6298 49.0886 30.0009 49.0886C30.3719 49.0886 30.7379 49.0022 31.0698 48.8362C31.4017 48.6703 31.6904 48.4293 31.9131 48.1325L36.4545 42.078C36.6772 41.7811 36.9659 41.5402 37.2978 41.3742C37.6297 41.2083 37.9956 41.1219 38.3667 41.1219H44.3423C45.6102 41.1219 46.8261 40.6182 47.7226 39.7217C48.6191 38.8252 49.1228 37.6093 49.1228 36.3414V17.2195C49.1228 15.9516 48.6191 14.7357 47.7226 13.8391C46.8261 12.9426 45.6102 12.439 44.3423 12.439H15.6594Z" fill="#061A40"/>
<path d="M27.7699 23.8164C27.3043 23.0914 26.616 22.537 25.8083 22.2366C25.0006 21.9363 24.1173 21.9062 23.2911 22.1509C22.4648 22.3956 21.7403 22.9018 21.2265 23.5935C20.7126 24.2853 20.4371 25.1251 20.4415 25.9868C20.4419 26.7004 20.6339 27.4007 20.9975 28.0147C21.3611 28.6287 21.8829 29.1338 22.5084 29.4772C23.1339 29.8206 23.8402 29.9897 24.5534 29.9669C25.2666 29.9441 25.9606 29.7301 26.5629 29.3475C26.2497 30.2773 25.6665 31.2692 24.7056 32.2636C24.5218 32.4537 24.421 32.7092 24.4255 32.9736C24.43 33.2381 24.5394 33.49 24.7296 33.6738C24.9197 33.8576 25.1752 33.9584 25.4396 33.9539C25.7041 33.9494 25.956 33.8401 26.1398 33.6499C29.6917 29.9689 29.2304 25.9677 27.7699 23.8212V23.8164ZM37.3309 23.8164C36.8653 23.0914 36.1769 22.537 35.3693 22.2366C34.5616 21.9363 33.6783 21.9062 32.852 22.1509C32.0258 22.3956 31.3013 22.9018 30.7874 23.5935C30.2736 24.2853 29.9981 25.1251 30.0024 25.9868C30.0029 26.7004 30.1949 27.4007 30.5585 28.0147C30.9221 28.6287 31.4439 29.1338 32.0694 29.4772C32.6949 29.8206 33.4012 29.9897 34.1144 29.9669C34.8276 29.9441 35.5216 29.7301 36.1238 29.3475C35.8107 30.2773 35.2275 31.2692 34.2666 32.2636C34.0828 32.4537 33.982 32.7092 33.9865 32.9736C33.991 33.2381 34.1003 33.49 34.2905 33.6738C34.4807 33.8576 34.7361 33.9584 35.0006 33.9539C35.2651 33.9494 35.5169 33.8401 35.7008 33.6499C39.2527 29.9689 38.7914 25.9677 37.3309 23.8212V23.8164Z" fill="#061A40"/>
</svg>
