<svg width="20" height="20" viewBox="0 0 20 20" fill="none" xmlns="http://www.w3.org/2000/svg">
<path d="M6.69642 1.67847C6.23642 1.67847 5.86309 2.0518 5.86309 2.5118C4.02058 2.5118 2.50391 4.00597 2.50391 5.84513V7.5118L2.52974 14.1785C2.52974 16.0168 4.02225 17.5118 5.86309 17.5118H14.1964C16.0373 17.5118 17.5298 16.0193 17.5298 14.1785L17.5039 7.5118V5.84513C17.5039 4.00263 16.0356 2.5118 14.1964 2.5118C14.1964 2.0518 13.8239 1.67847 13.3631 1.67847C12.9031 1.67847 12.5298 2.0518 12.5298 2.5118H7.52976C7.52976 2.0518 7.15726 1.67847 6.69642 1.67847ZM5.86309 4.17847C5.86309 4.63847 6.23642 5.0118 6.69642 5.0118C7.15726 5.0118 7.52976 4.63847 7.52976 4.17847H12.5298C12.5298 4.63847 12.9031 5.0118 13.3631 5.0118C13.8239 5.0118 14.1964 4.63847 14.1964 4.17847C15.1106 4.17847 15.8373 4.91847 15.8373 5.84513V6.67847C14.2339 6.67847 5.77392 6.67847 4.17058 6.67847V5.84513C4.17058 4.93097 4.93642 4.17847 5.86309 4.17847ZM4.17058 8.34513C5.77392 8.34513 14.2339 8.34513 15.8373 8.34513L15.8631 14.1785C15.8631 15.096 15.1173 15.8451 14.1964 15.8451H5.86309C4.94308 15.8451 4.19642 15.0993 4.19642 14.1785L4.17058 8.34513Z" fill="#F2F4F5"/>
</svg>
