<svg width="20" height="20" viewBox="0 0 20 20" fill="none" xmlns="http://www.w3.org/2000/svg">
<path fill-rule="evenodd" clip-rule="evenodd" d="M7.77859 1.66669C7.33656 1.66679 6.91268 1.84248 6.60019 2.15511C6.2877 2.46774 6.1122 2.89171 6.1123 3.33373C6.1124 3.77576 6.28809 4.19964 6.60072 4.51213C6.91336 4.82462 7.33732 5.00012 7.77935 5.00002H9.44602V3.33335C9.44562 2.89145 9.26989 2.46776 8.95742 2.15529C8.64495 1.84281 8.22125 1.66709 7.77935 1.66669H7.77859ZM7.77859 6.11138H3.33464C2.89261 6.11138 2.46869 6.28698 2.15613 6.59954C1.84356 6.9121 1.66797 7.33602 1.66797 7.77805C1.66797 8.22008 1.84356 8.644 2.15613 8.95656C2.46869 9.26912 2.89261 9.44472 3.33464 9.44472H7.77859C8.22062 9.44472 8.64454 9.26912 8.9571 8.95656C9.26967 8.644 9.44526 8.22008 9.44526 7.77805C9.44526 7.33602 9.26967 6.9121 8.9571 6.59954C8.64454 6.28698 8.22062 6.11138 7.77859 6.11138ZM18.3347 7.77729C18.3347 7.33527 18.1591 6.91134 17.8465 6.59878C17.534 6.28622 17.11 6.11063 16.668 6.11063C16.226 6.11063 15.8021 6.28622 15.4895 6.59878C15.1769 6.91134 15.0013 7.33527 15.0013 7.77729V9.44396H16.668C17.11 9.44396 17.534 9.26837 17.8465 8.9558C18.1591 8.64324 18.3347 8.21932 18.3347 7.77729ZM13.89 7.77729V3.33335C13.89 2.89133 13.7144 2.4674 13.4018 2.15484C13.0893 1.84228 12.6653 1.66669 12.2233 1.66669C11.7813 1.66669 11.3573 1.84228 11.0448 2.15484C10.7322 2.4674 10.5566 2.89133 10.5566 3.33335V7.77729C10.5566 8.21932 10.7322 8.64324 11.0448 8.9558C11.3573 9.26837 11.7813 9.44396 12.2233 9.44396C12.6653 9.44396 13.0893 9.26837 13.4018 8.9558C13.7144 8.64324 13.89 8.21932 13.89 7.77729ZM12.2233 18.3334C12.6653 18.3334 13.0893 18.1578 13.4018 17.8452C13.7144 17.5326 13.89 17.1087 13.89 16.6667C13.89 16.2247 13.7144 15.8007 13.4018 15.4882C13.0893 15.1756 12.6653 15 12.2233 15H10.5566V16.6667C10.5568 17.1087 10.7325 17.5325 11.045 17.845C11.3575 18.1575 11.7813 18.3332 12.2233 18.3334ZM12.2233 13.8879H16.668C17.11 13.8879 17.534 13.7123 17.8465 13.3997C18.1591 13.0872 18.3347 12.6633 18.3347 12.2212C18.3347 11.7792 18.1591 11.3553 17.8465 11.0427C17.534 10.7302 17.11 10.5546 16.668 10.5546H12.2241C11.782 10.5545 11.3581 10.73 11.0454 11.0425C10.7328 11.3549 10.5571 11.7788 10.557 12.2209C10.5569 12.6629 10.7324 13.0868 11.0449 13.3995C11.3574 13.7121 11.7813 13.8878 12.2233 13.8879ZM1.66797 12.222C1.66797 12.664 1.84356 13.0879 2.15613 13.4005C2.46869 13.7131 2.89261 13.8887 3.33464 13.8887C3.77667 13.8887 4.20059 13.7131 4.51315 13.4005C4.82572 13.0879 5.00131 12.664 5.00131 12.222V10.5553H3.33464C2.89261 10.5553 2.46869 10.7309 2.15613 11.0435C1.84356 11.356 1.66797 11.78 1.66797 12.222ZM6.11268 12.222V16.6659C6.11258 17.108 6.28808 17.5319 6.60057 17.8446C6.91306 18.1572 7.33694 18.3329 7.77897 18.333C8.221 18.3331 8.64496 18.1576 8.95759 17.8451C9.27023 17.5326 9.44592 17.1087 9.44602 16.6667V12.2227C9.44612 11.7807 9.27062 11.3568 8.95813 11.0441C8.64564 10.7315 8.22176 10.5558 7.77973 10.5557C7.3377 10.5556 6.91373 10.7311 6.6011 11.0436C6.28847 11.3561 6.11278 11.78 6.11268 12.222Z" fill="#F2F4F5"/>
</svg>
