<svg width="45" height="31" viewBox="0 0 45 31" fill="none" xmlns="http://www.w3.org/2000/svg">
<path d="M22.5 0C16.7063 0 12.15 4.41045 11.513 10.0398C10.2876 10.2376 9.13846 10.7638 8.18712 11.5625C7.23577 12.3612 6.51765 13.4028 6.10875 14.577C2.64937 15.5761 0 18.6676 0 22.5455C0 27.2293 3.76313 31 8.4375 31H36.5625C41.2369 31 45 27.2293 45 22.5455C45 20.0655 43.7977 17.8447 42.0553 16.2919C41.7291 11.3404 37.7873 7.38927 32.8275 7.13282C31.1344 3.00559 27.2503 0 22.5 0ZM22.5 2.81818C26.3841 2.81818 29.4891 5.31227 30.5859 8.84909L30.8953 9.86364H32.3438C36.218 9.86364 39.375 13.027 39.375 16.9091V17.6136L39.9459 18.0547C40.635 18.5839 41.1949 19.2632 41.5833 20.0412C41.9716 20.8192 42.1782 21.6756 42.1875 22.5455C42.1875 25.7525 39.7631 28.1818 36.5625 28.1818H8.4375C5.23688 28.1818 2.8125 25.7525 2.8125 22.5455C2.8125 19.6991 4.85156 17.4896 7.425 17.0415L8.34891 16.8654L8.52469 15.9382C8.94656 14.0402 10.6256 12.6818 12.6562 12.6818H14.0625V11.2727C14.0625 6.52409 17.7609 2.81818 22.5 2.81818ZM22.5 10.7006L21.4875 11.6687L15.8625 17.305L17.8875 19.3341L21.0938 16.1158V25.3636H23.9062V16.1158L27.1125 19.3313L29.1375 17.3022L23.5125 11.6659L22.5 10.6992V10.7006Z" fill="black" fill-opacity="0.4"/>
</svg>
