<svg width="135" height="138" viewBox="0 0 135 138" fill="none" xmlns="http://www.w3.org/2000/svg">
<g opacity="0.2">
<g clip-path="url(#clip0_21_3084)">
<path d="M0.485099 0.991752C0.752944 0.991752 0.970076 0.769795 0.970076 0.495998C0.970076 0.222201 0.752944 0.000244141 0.485099 0.000244141C0.217254 0.000244141 0.00012207 0.222201 0.00012207 0.495998C0.00012207 0.769795 0.217254 0.991752 0.485099 0.991752Z" stroke="white" stroke-width="0.75"/>
<path d="M8.86187 0.99163C9.12971 0.99163 9.34685 0.769673 9.34685 0.495876C9.34685 0.222079 9.12971 0.00012207 8.86187 0.00012207C8.59402 0.00012207 8.37689 0.222079 8.37689 0.495876C8.37689 0.769673 8.59402 0.99163 8.86187 0.99163Z" stroke="white" stroke-width="0.75"/>
<path d="M17.2388 0.991569C17.5066 0.991569 17.7237 0.769612 17.7237 0.495815C17.7237 0.222018 17.5066 6.10352e-05 17.2388 6.10352e-05C16.9709 6.10352e-05 16.7538 0.222018 16.7538 0.495815C16.7538 0.769612 16.9709 0.991569 17.2388 0.991569Z" stroke="white" stroke-width="0.75"/>
<path d="M25.6156 0.991569C25.8834 0.991569 26.1006 0.769612 26.1006 0.495815C26.1006 0.222018 25.8834 6.10352e-05 25.6156 6.10352e-05C25.3477 6.10352e-05 25.1306 0.222018 25.1306 0.495815C25.1306 0.769612 25.3477 0.991569 25.6156 0.991569Z" stroke="white" stroke-width="0.75"/>
<path d="M33.9925 0.991569C34.2603 0.991569 34.4775 0.769612 34.4775 0.495815C34.4775 0.222018 34.2603 6.10352e-05 33.9925 6.10352e-05C33.7246 6.10352e-05 33.5075 0.222018 33.5075 0.495815C33.5075 0.769612 33.7246 0.991569 33.9925 0.991569Z" stroke="white" stroke-width="0.75"/>
<path d="M42.3694 0.991691C42.6372 0.991691 42.8544 0.769734 42.8544 0.495937C42.8544 0.22214 42.6372 0.000183105 42.3694 0.000183105C42.1015 0.000183105 41.8844 0.22214 41.8844 0.495937C41.8844 0.769734 42.1015 0.991691 42.3694 0.991691Z" stroke="white" stroke-width="0.75"/>
<path d="M50.7462 0.991569C51.0141 0.991569 51.2312 0.769612 51.2312 0.495815C51.2312 0.222018 51.0141 6.10352e-05 50.7462 6.10352e-05C50.4784 6.10352e-05 50.2612 0.222018 50.2612 0.495815C50.2612 0.769612 50.4784 0.991569 50.7462 0.991569Z" stroke="white" stroke-width="0.75"/>
<path d="M59.123 0.99163C59.3909 0.99163 59.608 0.769673 59.608 0.495876C59.608 0.222079 59.3909 0.00012207 59.123 0.00012207C58.8552 0.00012207 58.6381 0.222079 58.6381 0.495876C58.6381 0.769673 58.8552 0.99163 59.123 0.99163Z" stroke="white" stroke-width="0.75"/>
<path d="M67.4999 0.99163C67.7678 0.99163 67.9849 0.769673 67.9849 0.495876C67.9849 0.222079 67.7678 0.00012207 67.4999 0.00012207C67.2321 0.00012207 67.015 0.222079 67.015 0.495876C67.015 0.769673 67.2321 0.99163 67.4999 0.99163Z" stroke="white" stroke-width="0.75"/>
<path d="M75.8768 0.991508C76.1447 0.991508 76.3618 0.769551 76.3618 0.495754C76.3618 0.221957 76.1447 0 75.8768 0C75.609 0 75.3918 0.221957 75.3918 0.495754C75.3918 0.769551 75.609 0.991508 75.8768 0.991508Z" stroke="white" stroke-width="0.75"/>
<path d="M84.2537 0.99163C84.5216 0.99163 84.7387 0.769673 84.7387 0.495876C84.7387 0.222079 84.5216 0.00012207 84.2537 0.00012207C83.9859 0.00012207 83.7687 0.222079 83.7687 0.495876C83.7687 0.769673 83.9859 0.99163 84.2537 0.99163Z" stroke="white" stroke-width="0.75"/>
<path d="M92.6306 0.99163C92.8984 0.99163 93.1156 0.769673 93.1156 0.495876C93.1156 0.222079 92.8984 0.00012207 92.6306 0.00012207C92.3628 0.00012207 92.1456 0.222079 92.1456 0.495876C92.1456 0.769673 92.3628 0.99163 92.6306 0.99163Z" stroke="white" stroke-width="0.75"/>
<path d="M101.007 0.99163C101.275 0.99163 101.492 0.769673 101.492 0.495876C101.492 0.222079 101.275 0.00012207 101.007 0.00012207C100.74 0.00012207 100.523 0.222079 100.523 0.495876C100.523 0.769673 100.74 0.99163 101.007 0.99163Z" stroke="white" stroke-width="0.75"/>
<path d="M109.384 0.991569C109.652 0.991569 109.869 0.769612 109.869 0.495815C109.869 0.222018 109.652 6.10352e-05 109.384 6.10352e-05C109.116 6.10352e-05 108.899 0.222018 108.899 0.495815C108.899 0.769612 109.116 0.991569 109.384 0.991569Z" stroke="white" stroke-width="0.75"/>
<path d="M117.761 0.991569C118.029 0.991569 118.246 0.769612 118.246 0.495815C118.246 0.222018 118.029 6.10352e-05 117.761 6.10352e-05C117.493 6.10352e-05 117.276 0.222018 117.276 0.495815C117.276 0.769612 117.493 0.991569 117.761 0.991569Z" stroke="white" stroke-width="0.75"/>
<path d="M126.138 0.99163C126.406 0.99163 126.623 0.769673 126.623 0.495876C126.623 0.222079 126.406 0.00012207 126.138 0.00012207C125.87 0.00012207 125.653 0.222079 125.653 0.495876C125.653 0.769673 125.87 0.99163 126.138 0.99163Z" stroke="white" stroke-width="0.75"/>
<path d="M134.515 0.991569C134.783 0.991569 135 0.769612 135 0.495815C135 0.222018 134.783 6.10352e-05 134.515 6.10352e-05C134.247 6.10352e-05 134.03 0.222018 134.03 0.495815C134.03 0.769612 134.247 0.991569 134.515 0.991569Z" stroke="white" stroke-width="0.75"/>
<path d="M0.484977 10.1255C0.752822 10.1255 0.969954 9.90352 0.969954 9.62973C0.969954 9.35593 0.752822 9.13397 0.484977 9.13397C0.217132 9.13397 0 9.35593 0 9.62973C0 9.90352 0.217132 10.1255 0.484977 10.1255Z" stroke="white" stroke-width="0.75"/>
<path d="M8.86187 10.1255C9.12971 10.1255 9.34685 9.90352 9.34685 9.62973C9.34685 9.35593 9.12971 9.13397 8.86187 9.13397C8.59402 9.13397 8.37689 9.35593 8.37689 9.62973C8.37689 9.90352 8.59402 10.1255 8.86187 10.1255Z" stroke="white" stroke-width="0.75"/>
<path d="M17.2388 10.1255C17.5066 10.1255 17.7237 9.90352 17.7237 9.62973C17.7237 9.35593 17.5066 9.13397 17.2388 9.13397C16.9709 9.13397 16.7538 9.35593 16.7538 9.62973C16.7538 9.90352 16.9709 10.1255 17.2388 10.1255Z" stroke="white" stroke-width="0.75"/>
<path d="M25.6156 10.1254C25.8834 10.1254 26.1006 9.9034 26.1006 9.6296C26.1006 9.35581 25.8834 9.13385 25.6156 9.13385C25.3477 9.13385 25.1306 9.35581 25.1306 9.6296C25.1306 9.9034 25.3477 10.1254 25.6156 10.1254Z" stroke="white" stroke-width="0.75"/>
<path d="M33.9925 10.1255C34.2604 10.1255 34.4775 9.90352 34.4775 9.62973C34.4775 9.35593 34.2604 9.13397 33.9925 9.13397C33.7247 9.13397 33.5076 9.35593 33.5076 9.62973C33.5076 9.90352 33.7247 10.1255 33.9925 10.1255Z" stroke="white" stroke-width="0.75"/>
<path d="M42.3694 10.1255C42.6372 10.1255 42.8544 9.90352 42.8544 9.62973C42.8544 9.35593 42.6372 9.13397 42.3694 9.13397C42.1015 9.13397 41.8844 9.35593 41.8844 9.62973C41.8844 9.90352 42.1015 10.1255 42.3694 10.1255Z" stroke="white" stroke-width="0.75"/>
<path d="M50.7463 10.1255C51.0141 10.1255 51.2312 9.90352 51.2312 9.62973C51.2312 9.35593 51.0141 9.13397 50.7463 9.13397C50.4784 9.13397 50.2613 9.35593 50.2613 9.62973C50.2613 9.90352 50.4784 10.1255 50.7463 10.1255Z" stroke="white" stroke-width="0.75"/>
<path d="M59.1231 10.1254C59.3909 10.1254 59.6081 9.90346 59.6081 9.62967C59.6081 9.35587 59.3909 9.13391 59.1231 9.13391C58.8553 9.13391 58.6381 9.35587 58.6381 9.62967C58.6381 9.90346 58.8553 10.1254 59.1231 10.1254Z" stroke="white" stroke-width="0.75"/>
<path d="M67.5 10.1254C67.7678 10.1254 67.985 9.90346 67.985 9.62967C67.985 9.35587 67.7678 9.13391 67.5 9.13391C67.2321 9.13391 67.015 9.35587 67.015 9.62967C67.015 9.90346 67.2321 10.1254 67.5 10.1254Z" stroke="white" stroke-width="0.75"/>
<path d="M75.8768 10.1255C76.1447 10.1255 76.3618 9.90358 76.3618 9.62979C76.3618 9.35599 76.1447 9.13403 75.8768 9.13403C75.609 9.13403 75.3918 9.35599 75.3918 9.62979C75.3918 9.90358 75.609 10.1255 75.8768 10.1255Z" stroke="white" stroke-width="0.75"/>
<path d="M84.2537 10.1254C84.5216 10.1254 84.7387 9.90346 84.7387 9.62967C84.7387 9.35587 84.5216 9.13391 84.2537 9.13391C83.9859 9.13391 83.7687 9.35587 83.7687 9.62967C83.7687 9.90346 83.9859 10.1254 84.2537 10.1254Z" stroke="white" stroke-width="0.75"/>
<path d="M92.6305 10.1255C92.8984 10.1255 93.1155 9.90352 93.1155 9.62973C93.1155 9.35593 92.8984 9.13397 92.6305 9.13397C92.3627 9.13397 92.1456 9.35593 92.1456 9.62973C92.1456 9.90352 92.3627 10.1255 92.6305 10.1255Z" stroke="white" stroke-width="0.75"/>
<path d="M101.007 10.1255C101.275 10.1255 101.492 9.90352 101.492 9.62973C101.492 9.35593 101.275 9.13397 101.007 9.13397C100.74 9.13397 100.522 9.35593 100.522 9.62973C100.522 9.90352 100.74 10.1255 101.007 10.1255Z" stroke="white" stroke-width="0.75"/>
<path d="M109.384 10.1255C109.652 10.1255 109.869 9.90352 109.869 9.62973C109.869 9.35593 109.652 9.13397 109.384 9.13397C109.116 9.13397 108.899 9.35593 108.899 9.62973C108.899 9.90352 109.116 10.1255 109.384 10.1255Z" stroke="white" stroke-width="0.75"/>
<path d="M117.761 10.1255C118.029 10.1255 118.246 9.90352 118.246 9.62973C118.246 9.35593 118.029 9.13397 117.761 9.13397C117.493 9.13397 117.276 9.35593 117.276 9.62973C117.276 9.90352 117.493 10.1255 117.761 10.1255Z" stroke="white" stroke-width="0.75"/>
<path d="M126.138 10.1255C126.406 10.1255 126.623 9.90352 126.623 9.62973C126.623 9.35593 126.406 9.13397 126.138 9.13397C125.87 9.13397 125.653 9.35593 125.653 9.62973C125.653 9.90352 125.87 10.1255 126.138 10.1255Z" stroke="white" stroke-width="0.75"/>
<path d="M134.515 10.1255C134.783 10.1255 135 9.90352 135 9.62973C135 9.35593 134.783 9.13397 134.515 9.13397C134.247 9.13397 134.03 9.35593 134.03 9.62973C134.03 9.90352 134.247 10.1255 134.515 10.1255Z" stroke="white" stroke-width="0.75"/>
<path d="M0.484977 19.2594C0.752822 19.2594 0.969954 19.0374 0.969954 18.7636C0.969954 18.4898 0.752822 18.2679 0.484977 18.2679C0.217132 18.2679 0 18.4898 0 18.7636C0 19.0374 0.217132 19.2594 0.484977 19.2594Z" stroke="white" stroke-width="0.75"/>
<path d="M8.86187 19.2594C9.12971 19.2594 9.34685 19.0374 9.34685 18.7636C9.34685 18.4898 9.12971 18.2679 8.86187 18.2679C8.59402 18.2679 8.37689 18.4898 8.37689 18.7636C8.37689 19.0374 8.59402 19.2594 8.86187 19.2594Z" stroke="white" stroke-width="0.75"/>
<path d="M17.2388 19.2595C17.5066 19.2595 17.7237 19.0376 17.7237 18.7638C17.7237 18.49 17.5066 18.268 17.2388 18.268C16.9709 18.268 16.7538 18.49 16.7538 18.7638C16.7538 19.0376 16.9709 19.2595 17.2388 19.2595Z" stroke="white" stroke-width="0.75"/>
<path d="M25.6157 19.2594C25.8835 19.2594 26.1006 19.0374 26.1006 18.7636C26.1006 18.4898 25.8835 18.2679 25.6157 18.2679C25.3478 18.2679 25.1307 18.4898 25.1307 18.7636C25.1307 19.0374 25.3478 19.2594 25.6157 19.2594Z" stroke="white" stroke-width="0.75"/>
<path d="M33.9925 19.2594C34.2603 19.2594 34.4775 19.0374 34.4775 18.7636C34.4775 18.4898 34.2603 18.2679 33.9925 18.2679C33.7246 18.2679 33.5075 18.4898 33.5075 18.7636C33.5075 19.0374 33.7246 19.2594 33.9925 19.2594Z" stroke="white" stroke-width="0.75"/>
<path d="M42.3694 19.2594C42.6372 19.2594 42.8544 19.0374 42.8544 18.7636C42.8544 18.4898 42.6372 18.2679 42.3694 18.2679C42.1015 18.2679 41.8844 18.4898 41.8844 18.7636C41.8844 19.0374 42.1015 19.2594 42.3694 19.2594Z" stroke="white" stroke-width="0.75"/>
<path d="M50.7462 19.2595C51.0141 19.2595 51.2312 19.0375 51.2312 18.7637C51.2312 18.4899 51.0141 18.2679 50.7462 18.2679C50.4784 18.2679 50.2612 18.4899 50.2612 18.7637C50.2612 19.0375 50.4784 19.2595 50.7462 19.2595Z" stroke="white" stroke-width="0.75"/>
<path d="M59.1231 19.2593C59.3909 19.2593 59.6081 19.0374 59.6081 18.7636C59.6081 18.4898 59.3909 18.2678 59.1231 18.2678C58.8553 18.2678 58.6381 18.4898 58.6381 18.7636C58.6381 19.0374 58.8553 19.2593 59.1231 19.2593Z" stroke="white" stroke-width="0.75"/>
<path d="M67.4999 19.2595C67.7678 19.2595 67.9849 19.0375 67.9849 18.7637C67.9849 18.4899 67.7678 18.2679 67.4999 18.2679C67.2321 18.2679 67.015 18.4899 67.015 18.7637C67.015 19.0375 67.2321 19.2595 67.4999 19.2595Z" stroke="white" stroke-width="0.75"/>
<path d="M75.8768 19.2595C76.1447 19.2595 76.3618 19.0375 76.3618 18.7637C76.3618 18.4899 76.1447 18.2679 75.8768 18.2679C75.609 18.2679 75.3918 18.4899 75.3918 18.7637C75.3918 19.0375 75.609 19.2595 75.8768 19.2595Z" stroke="white" stroke-width="0.75"/>
<path d="M84.2537 19.2594C84.5215 19.2594 84.7386 19.0374 84.7386 18.7636C84.7386 18.4898 84.5215 18.2679 84.2537 18.2679C83.9858 18.2679 83.7687 18.4898 83.7687 18.7636C83.7687 19.0374 83.9858 19.2594 84.2537 19.2594Z" stroke="white" stroke-width="0.75"/>
<path d="M92.6305 19.2594C92.8984 19.2594 93.1155 19.0374 93.1155 18.7636C93.1155 18.4898 92.8984 18.2679 92.6305 18.2679C92.3627 18.2679 92.1456 18.4898 92.1456 18.7636C92.1456 19.0374 92.3627 19.2594 92.6305 19.2594Z" stroke="white" stroke-width="0.75"/>
<path d="M101.007 19.2595C101.275 19.2595 101.492 19.0375 101.492 18.7637C101.492 18.4899 101.275 18.2679 101.007 18.2679C100.74 18.2679 100.523 18.4899 100.523 18.7637C100.523 19.0375 100.74 19.2595 101.007 19.2595Z" stroke="white" stroke-width="0.75"/>
<path d="M109.384 19.2595C109.652 19.2595 109.869 19.0376 109.869 18.7638C109.869 18.49 109.652 18.268 109.384 18.268C109.116 18.268 108.899 18.49 108.899 18.7638C108.899 19.0376 109.116 19.2595 109.384 19.2595Z" stroke="white" stroke-width="0.75"/>
<path d="M117.761 19.2594C118.029 19.2594 118.246 19.0374 118.246 18.7636C118.246 18.4898 118.029 18.2679 117.761 18.2679C117.493 18.2679 117.276 18.4898 117.276 18.7636C117.276 19.0374 117.493 19.2594 117.761 19.2594Z" stroke="white" stroke-width="0.75"/>
<path d="M126.138 19.2594C126.406 19.2594 126.623 19.0374 126.623 18.7636C126.623 18.4898 126.406 18.2679 126.138 18.2679C125.87 18.2679 125.653 18.4898 125.653 18.7636C125.653 19.0374 125.87 19.2594 126.138 19.2594Z" stroke="white" stroke-width="0.75"/>
<path d="M134.515 19.2594C134.783 19.2594 135 19.0374 135 18.7636C135 18.4898 134.783 18.2679 134.515 18.2679C134.247 18.2679 134.03 18.4898 134.03 18.7636C134.03 19.0374 134.247 19.2594 134.515 19.2594Z" stroke="white" stroke-width="0.75"/>
<path d="M0.484977 28.3933C0.752822 28.3933 0.969954 28.1713 0.969954 27.8975C0.969954 27.6237 0.752822 27.4018 0.484977 27.4018C0.217132 27.4018 0 27.6237 0 27.8975C0 28.1713 0.217132 28.3933 0.484977 28.3933Z" stroke="white" stroke-width="0.75"/>
<path d="M8.86181 28.3932C9.12965 28.3932 9.34678 28.1713 9.34678 27.8975C9.34678 27.6237 9.12965 27.4017 8.86181 27.4017C8.59396 27.4017 8.37683 27.6237 8.37683 27.8975C8.37683 28.1713 8.59396 28.3932 8.86181 28.3932Z" stroke="white" stroke-width="0.75"/>
<path d="M17.2388 28.3933C17.5066 28.3933 17.7237 28.1713 17.7237 27.8975C17.7237 27.6237 17.5066 27.4018 17.2388 27.4018C16.9709 27.4018 16.7538 27.6237 16.7538 27.8975C16.7538 28.1713 16.9709 28.3933 17.2388 28.3933Z" stroke="white" stroke-width="0.75"/>
<path d="M25.6156 28.3934C25.8834 28.3934 26.1006 28.1714 26.1006 27.8976C26.1006 27.6238 25.8834 27.4019 25.6156 27.4019C25.3477 27.4019 25.1306 27.6238 25.1306 27.8976C25.1306 28.1714 25.3477 28.3934 25.6156 28.3934Z" stroke="white" stroke-width="0.75"/>
<path d="M33.9924 28.3932C34.2603 28.3932 34.4774 28.1713 34.4774 27.8975C34.4774 27.6237 34.2603 27.4017 33.9924 27.4017C33.7246 27.4017 33.5074 27.6237 33.5074 27.8975C33.5074 28.1713 33.7246 28.3932 33.9924 28.3932Z" stroke="white" stroke-width="0.75"/>
<path d="M42.3693 28.3932C42.6372 28.3932 42.8543 28.1713 42.8543 27.8975C42.8543 27.6237 42.6372 27.4017 42.3693 27.4017C42.1015 27.4017 41.8843 27.6237 41.8843 27.8975C41.8843 28.1713 42.1015 28.3932 42.3693 28.3932Z" stroke="white" stroke-width="0.75"/>
<path d="M50.7462 28.3932C51.0141 28.3932 51.2312 28.1713 51.2312 27.8975C51.2312 27.6237 51.0141 27.4017 50.7462 27.4017C50.4784 27.4017 50.2612 27.6237 50.2612 27.8975C50.2612 28.1713 50.4784 28.3932 50.7462 28.3932Z" stroke="white" stroke-width="0.75"/>
<path d="M59.1231 28.3934C59.3909 28.3934 59.6081 28.1714 59.6081 27.8976C59.6081 27.6238 59.3909 27.4019 59.1231 27.4019C58.8553 27.4019 58.6381 27.6238 58.6381 27.8976C58.6381 28.1714 58.8553 28.3934 59.1231 28.3934Z" stroke="white" stroke-width="0.75"/>
<path d="M67.4999 28.3933C67.7678 28.3933 67.9849 28.1713 67.9849 27.8975C67.9849 27.6237 67.7678 27.4018 67.4999 27.4018C67.2321 27.4018 67.015 27.6237 67.015 27.8975C67.015 28.1713 67.2321 28.3933 67.4999 28.3933Z" stroke="white" stroke-width="0.75"/>
<path d="M75.8768 28.3933C76.1447 28.3933 76.3618 28.1713 76.3618 27.8975C76.3618 27.6237 76.1447 27.4018 75.8768 27.4018C75.609 27.4018 75.3918 27.6237 75.3918 27.8975C75.3918 28.1713 75.609 28.3933 75.8768 28.3933Z" stroke="white" stroke-width="0.75"/>
<path d="M84.2537 28.3933C84.5215 28.3933 84.7386 28.1713 84.7386 27.8975C84.7386 27.6237 84.5215 27.4018 84.2537 27.4018C83.9858 27.4018 83.7687 27.6237 83.7687 27.8975C83.7687 28.1713 83.9858 28.3933 84.2537 28.3933Z" stroke="white" stroke-width="0.75"/>
<path d="M92.6305 28.3932C92.8984 28.3932 93.1155 28.1712 93.1155 27.8974C93.1155 27.6236 92.8984 27.4017 92.6305 27.4017C92.3627 27.4017 92.1456 27.6236 92.1456 27.8974C92.1456 28.1712 92.3627 28.3932 92.6305 28.3932Z" stroke="white" stroke-width="0.75"/>
<path d="M101.007 28.3933C101.275 28.3933 101.492 28.1713 101.492 27.8975C101.492 27.6237 101.275 27.4018 101.007 27.4018C100.74 27.4018 100.522 27.6237 100.522 27.8975C100.522 28.1713 100.74 28.3933 101.007 28.3933Z" stroke="white" stroke-width="0.75"/>
<path d="M109.384 28.3933C109.652 28.3933 109.869 28.1713 109.869 27.8975C109.869 27.6237 109.652 27.4018 109.384 27.4018C109.116 27.4018 108.899 27.6237 108.899 27.8975C108.899 28.1713 109.116 28.3933 109.384 28.3933Z" stroke="white" stroke-width="0.75"/>
<path d="M117.761 28.3933C118.029 28.3933 118.246 28.1713 118.246 27.8975C118.246 27.6237 118.029 27.4018 117.761 27.4018C117.493 27.4018 117.276 27.6237 117.276 27.8975C117.276 28.1713 117.493 28.3933 117.761 28.3933Z" stroke="white" stroke-width="0.75"/>
<path d="M126.138 28.3932C126.406 28.3932 126.623 28.1713 126.623 27.8975C126.623 27.6237 126.406 27.4017 126.138 27.4017C125.87 27.4017 125.653 27.6237 125.653 27.8975C125.653 28.1713 125.87 28.3932 126.138 28.3932Z" stroke="white" stroke-width="0.75"/>
<path d="M134.515 28.3933C134.783 28.3933 135 28.1713 135 27.8975C135 27.6237 134.783 27.4018 134.515 27.4018C134.247 27.4018 134.03 27.6237 134.03 27.8975C134.03 28.1713 134.247 28.3933 134.515 28.3933Z" stroke="white" stroke-width="0.75"/>
<path d="M0.484977 37.5272C0.752822 37.5272 0.969954 37.3052 0.969954 37.0314C0.969954 36.7576 0.752822 36.5356 0.484977 36.5356C0.217132 36.5356 0 36.7576 0 37.0314C0 37.3052 0.217132 37.5272 0.484977 37.5272Z" stroke="white" stroke-width="0.75"/>
<path d="M8.86187 37.5272C9.12971 37.5272 9.34685 37.3053 9.34685 37.0315C9.34685 36.7577 9.12971 36.5357 8.86187 36.5357C8.59402 36.5357 8.37689 36.7577 8.37689 37.0315C8.37689 37.3053 8.59402 37.5272 8.86187 37.5272Z" stroke="white" stroke-width="0.75"/>
<path d="M17.2388 37.5272C17.5066 37.5272 17.7237 37.3052 17.7237 37.0314C17.7237 36.7576 17.5066 36.5356 17.2388 36.5356C16.9709 36.5356 16.7538 36.7576 16.7538 37.0314C16.7538 37.3052 16.9709 37.5272 17.2388 37.5272Z" stroke="white" stroke-width="0.75"/>
<path d="M25.6156 37.5272C25.8834 37.5272 26.1006 37.3052 26.1006 37.0314C26.1006 36.7576 25.8834 36.5356 25.6156 36.5356C25.3477 36.5356 25.1306 36.7576 25.1306 37.0314C25.1306 37.3052 25.3477 37.5272 25.6156 37.5272Z" stroke="white" stroke-width="0.75"/>
<path d="M33.9925 37.5272C34.2603 37.5272 34.4775 37.3052 34.4775 37.0314C34.4775 36.7576 34.2603 36.5356 33.9925 36.5356C33.7246 36.5356 33.5075 36.7576 33.5075 37.0314C33.5075 37.3052 33.7246 37.5272 33.9925 37.5272Z" stroke="white" stroke-width="0.75"/>
<path d="M42.3693 37.5271C42.6372 37.5271 42.8543 37.3051 42.8543 37.0313C42.8543 36.7575 42.6372 36.5356 42.3693 36.5356C42.1015 36.5356 41.8843 36.7575 41.8843 37.0313C41.8843 37.3051 42.1015 37.5271 42.3693 37.5271Z" stroke="white" stroke-width="0.75"/>
<path d="M50.7462 37.5272C51.0141 37.5272 51.2312 37.3052 51.2312 37.0314C51.2312 36.7576 51.0141 36.5356 50.7462 36.5356C50.4784 36.5356 50.2612 36.7576 50.2612 37.0314C50.2612 37.3052 50.4784 37.5272 50.7462 37.5272Z" stroke="white" stroke-width="0.75"/>
<path d="M59.1231 37.5272C59.3909 37.5272 59.6081 37.3052 59.6081 37.0314C59.6081 36.7576 59.3909 36.5356 59.1231 36.5356C58.8553 36.5356 58.6381 36.7576 58.6381 37.0314C58.6381 37.3052 58.8553 37.5272 59.1231 37.5272Z" stroke="white" stroke-width="0.75"/>
<path d="M67.5 37.5272C67.7678 37.5272 67.985 37.3053 67.985 37.0315C67.985 36.7577 67.7678 36.5357 67.5 36.5357C67.2321 36.5357 67.015 36.7577 67.015 37.0315C67.015 37.3053 67.2321 37.5272 67.5 37.5272Z" stroke="white" stroke-width="0.75"/>
<path d="M75.8768 37.5271C76.1447 37.5271 76.3618 37.3051 76.3618 37.0313C76.3618 36.7575 76.1447 36.5356 75.8768 36.5356C75.609 36.5356 75.3918 36.7575 75.3918 37.0313C75.3918 37.3051 75.609 37.5271 75.8768 37.5271Z" stroke="white" stroke-width="0.75"/>
<path d="M84.2537 37.5272C84.5216 37.5272 84.7387 37.3053 84.7387 37.0315C84.7387 36.7577 84.5216 36.5357 84.2537 36.5357C83.9859 36.5357 83.7687 36.7577 83.7687 37.0315C83.7687 37.3053 83.9859 37.5272 84.2537 37.5272Z" stroke="white" stroke-width="0.75"/>
<path d="M92.6305 37.5272C92.8984 37.5272 93.1155 37.3053 93.1155 37.0315C93.1155 36.7577 92.8984 36.5357 92.6305 36.5357C92.3627 36.5357 92.1456 36.7577 92.1456 37.0315C92.1456 37.3053 92.3627 37.5272 92.6305 37.5272Z" stroke="white" stroke-width="0.75"/>
<path d="M101.007 37.5271C101.275 37.5271 101.492 37.3051 101.492 37.0313C101.492 36.7575 101.275 36.5356 101.007 36.5356C100.74 36.5356 100.523 36.7575 100.523 37.0313C100.523 37.3051 100.74 37.5271 101.007 37.5271Z" stroke="white" stroke-width="0.75"/>
<path d="M109.384 37.5271C109.652 37.5271 109.869 37.3051 109.869 37.0313C109.869 36.7575 109.652 36.5356 109.384 36.5356C109.117 36.5356 108.899 36.7575 108.899 37.0313C108.899 37.3051 109.117 37.5271 109.384 37.5271Z" stroke="white" stroke-width="0.75"/>
<path d="M117.761 37.5272C118.029 37.5272 118.246 37.3052 118.246 37.0314C118.246 36.7576 118.029 36.5356 117.761 36.5356C117.493 36.5356 117.276 36.7576 117.276 37.0314C117.276 37.3052 117.493 37.5272 117.761 37.5272Z" stroke="white" stroke-width="0.75"/>
<path d="M126.138 37.5272C126.406 37.5272 126.623 37.3053 126.623 37.0315C126.623 36.7577 126.406 36.5357 126.138 36.5357C125.87 36.5357 125.653 36.7577 125.653 37.0315C125.653 37.3053 125.87 37.5272 126.138 37.5272Z" stroke="white" stroke-width="0.75"/>
<path d="M134.515 37.5272C134.783 37.5272 135 37.3052 135 37.0314C135 36.7576 134.783 36.5356 134.515 36.5356C134.247 36.5356 134.03 36.7576 134.03 37.0314C134.03 37.3052 134.247 37.5272 134.515 37.5272Z" stroke="white" stroke-width="0.75"/>
<path d="M0.484977 46.6611C0.752822 46.6611 0.969954 46.4392 0.969954 46.1654C0.969954 45.8916 0.752822 45.6696 0.484977 45.6696C0.217132 45.6696 0 45.8916 0 46.1654C0 46.4392 0.217132 46.6611 0.484977 46.6611Z" stroke="white" stroke-width="0.75"/>
<path d="M8.86187 46.6611C9.12971 46.6611 9.34685 46.4391 9.34685 46.1653C9.34685 45.8915 9.12971 45.6696 8.86187 45.6696C8.59402 45.6696 8.37689 45.8915 8.37689 46.1653C8.37689 46.4391 8.59402 46.6611 8.86187 46.6611Z" stroke="white" stroke-width="0.75"/>
<path d="M17.2387 46.6611C17.5065 46.6611 17.7237 46.4391 17.7237 46.1653C17.7237 45.8915 17.5065 45.6696 17.2387 45.6696C16.9709 45.6696 16.7537 45.8915 16.7537 46.1653C16.7537 46.4391 16.9709 46.6611 17.2387 46.6611Z" stroke="white" stroke-width="0.75"/>
<path d="M25.6156 46.6611C25.8834 46.6611 26.1006 46.4391 26.1006 46.1653C26.1006 45.8915 25.8834 45.6696 25.6156 45.6696C25.3477 45.6696 25.1306 45.8915 25.1306 46.1653C25.1306 46.4391 25.3477 46.6611 25.6156 46.6611Z" stroke="white" stroke-width="0.75"/>
<path d="M33.9925 46.6612C34.2603 46.6612 34.4775 46.4392 34.4775 46.1654C34.4775 45.8916 34.2603 45.6697 33.9925 45.6697C33.7246 45.6697 33.5075 45.8916 33.5075 46.1654C33.5075 46.4392 33.7246 46.6612 33.9925 46.6612Z" stroke="white" stroke-width="0.75"/>
<path d="M42.3693 46.6611C42.6372 46.6611 42.8543 46.4391 42.8543 46.1653C42.8543 45.8915 42.6372 45.6696 42.3693 45.6696C42.1015 45.6696 41.8843 45.8915 41.8843 46.1653C41.8843 46.4391 42.1015 46.6611 42.3693 46.6611Z" stroke="white" stroke-width="0.75"/>
<path d="M50.7462 46.6611C51.0141 46.6611 51.2312 46.4392 51.2312 46.1654C51.2312 45.8916 51.0141 45.6696 50.7462 45.6696C50.4784 45.6696 50.2612 45.8916 50.2612 46.1654C50.2612 46.4392 50.4784 46.6611 50.7462 46.6611Z" stroke="white" stroke-width="0.75"/>
<path d="M59.1231 46.6611C59.3909 46.6611 59.6081 46.4392 59.6081 46.1654C59.6081 45.8916 59.3909 45.6696 59.1231 45.6696C58.8553 45.6696 58.6381 45.8916 58.6381 46.1654C58.6381 46.4392 58.8553 46.6611 59.1231 46.6611Z" stroke="white" stroke-width="0.75"/>
<path d="M67.4999 46.661C67.7677 46.661 67.9848 46.439 67.9848 46.1652C67.9848 45.8914 67.7677 45.6695 67.4999 45.6695C67.232 45.6695 67.0149 45.8914 67.0149 46.1652C67.0149 46.439 67.232 46.661 67.4999 46.661Z" stroke="white" stroke-width="0.75"/>
<path d="M75.8768 46.6611C76.1447 46.6611 76.3618 46.4392 76.3618 46.1654C76.3618 45.8916 76.1447 45.6696 75.8768 45.6696C75.609 45.6696 75.3918 45.8916 75.3918 46.1654C75.3918 46.4392 75.609 46.6611 75.8768 46.6611Z" stroke="white" stroke-width="0.75"/>
<path d="M84.2537 46.6611C84.5216 46.6611 84.7387 46.4392 84.7387 46.1654C84.7387 45.8916 84.5216 45.6696 84.2537 45.6696C83.9859 45.6696 83.7687 45.8916 83.7687 46.1654C83.7687 46.4392 83.9859 46.6611 84.2537 46.6611Z" stroke="white" stroke-width="0.75"/>
<path d="M92.6305 46.6611C92.8984 46.6611 93.1155 46.4392 93.1155 46.1654C93.1155 45.8916 92.8984 45.6696 92.6305 45.6696C92.3627 45.6696 92.1456 45.8916 92.1456 46.1654C92.1456 46.4392 92.3627 46.6611 92.6305 46.6611Z" stroke="white" stroke-width="0.75"/>
<path d="M101.007 46.6611C101.275 46.6611 101.492 46.4391 101.492 46.1653C101.492 45.8915 101.275 45.6696 101.007 45.6696C100.74 45.6696 100.522 45.8915 100.522 46.1653C100.522 46.4391 100.74 46.6611 101.007 46.6611Z" stroke="white" stroke-width="0.75"/>
<path d="M109.384 46.6611C109.652 46.6611 109.869 46.4391 109.869 46.1653C109.869 45.8915 109.652 45.6696 109.384 45.6696C109.116 45.6696 108.899 45.8915 108.899 46.1653C108.899 46.4391 109.116 46.6611 109.384 46.6611Z" stroke="white" stroke-width="0.75"/>
<path d="M117.761 46.6611C118.029 46.6611 118.246 46.4392 118.246 46.1654C118.246 45.8916 118.029 45.6696 117.761 45.6696C117.493 45.6696 117.276 45.8916 117.276 46.1654C117.276 46.4392 117.493 46.6611 117.761 46.6611Z" stroke="white" stroke-width="0.75"/>
<path d="M126.138 46.6612C126.406 46.6612 126.623 46.4392 126.623 46.1654C126.623 45.8916 126.406 45.6697 126.138 45.6697C125.87 45.6697 125.653 45.8916 125.653 46.1654C125.653 46.4392 125.87 46.6612 126.138 46.6612Z" stroke="white" stroke-width="0.75"/>
<path d="M134.515 46.6611C134.783 46.6611 135 46.4391 135 46.1653C135 45.8915 134.783 45.6696 134.515 45.6696C134.247 45.6696 134.03 45.8915 134.03 46.1653C134.03 46.4391 134.247 46.6611 134.515 46.6611Z" stroke="white" stroke-width="0.75"/>
<path d="M0.484977 55.795C0.752822 55.795 0.969954 55.573 0.969954 55.2992C0.969954 55.0254 0.752822 54.8035 0.484977 54.8035C0.217132 54.8035 0 55.0254 0 55.2992C0 55.573 0.217132 55.795 0.484977 55.795Z" stroke="white" stroke-width="0.75"/>
<path d="M8.86187 55.795C9.12971 55.795 9.34685 55.573 9.34685 55.2992C9.34685 55.0254 9.12971 54.8035 8.86187 54.8035C8.59402 54.8035 8.37689 55.0254 8.37689 55.2992C8.37689 55.573 8.59402 55.795 8.86187 55.795Z" stroke="white" stroke-width="0.75"/>
<path d="M17.2388 55.795C17.5066 55.795 17.7237 55.573 17.7237 55.2992C17.7237 55.0254 17.5066 54.8035 17.2388 54.8035C16.9709 54.8035 16.7538 55.0254 16.7538 55.2992C16.7538 55.573 16.9709 55.795 17.2388 55.795Z" stroke="white" stroke-width="0.75"/>
<path d="M25.6156 55.795C25.8834 55.795 26.1006 55.573 26.1006 55.2992C26.1006 55.0254 25.8834 54.8035 25.6156 54.8035C25.3477 54.8035 25.1306 55.0254 25.1306 55.2992C25.1306 55.573 25.3477 55.795 25.6156 55.795Z" stroke="white" stroke-width="0.75"/>
<path d="M33.9925 55.795C34.2603 55.795 34.4775 55.573 34.4775 55.2992C34.4775 55.0254 34.2603 54.8035 33.9925 54.8035C33.7246 54.8035 33.5075 55.0254 33.5075 55.2992C33.5075 55.573 33.7246 55.795 33.9925 55.795Z" stroke="white" stroke-width="0.75"/>
<path d="M42.3694 55.795C42.6372 55.795 42.8544 55.573 42.8544 55.2992C42.8544 55.0254 42.6372 54.8035 42.3694 54.8035C42.1015 54.8035 41.8844 55.0254 41.8844 55.2992C41.8844 55.573 42.1015 55.795 42.3694 55.795Z" stroke="white" stroke-width="0.75"/>
<path d="M50.7462 55.7949C51.0141 55.7949 51.2312 55.573 51.2312 55.2992C51.2312 55.0254 51.0141 54.8034 50.7462 54.8034C50.4784 54.8034 50.2612 55.0254 50.2612 55.2992C50.2612 55.573 50.4784 55.7949 50.7462 55.7949Z" stroke="white" stroke-width="0.75"/>
<path d="M59.1231 55.7949C59.3909 55.7949 59.6081 55.573 59.6081 55.2992C59.6081 55.0254 59.3909 54.8034 59.1231 54.8034C58.8553 54.8034 58.6381 55.0254 58.6381 55.2992C58.6381 55.573 58.8553 55.7949 59.1231 55.7949Z" stroke="white" stroke-width="0.75"/>
<path d="M67.5 55.795C67.7678 55.795 67.985 55.5731 67.985 55.2993C67.985 55.0255 67.7678 54.8035 67.5 54.8035C67.2321 54.8035 67.015 55.0255 67.015 55.2993C67.015 55.5731 67.2321 55.795 67.5 55.795Z" stroke="white" stroke-width="0.75"/>
<path d="M75.8769 55.795C76.1447 55.795 76.3619 55.5731 76.3619 55.2993C76.3619 55.0255 76.1447 54.8035 75.8769 54.8035C75.609 54.8035 75.3919 55.0255 75.3919 55.2993C75.3919 55.5731 75.609 55.795 75.8769 55.795Z" stroke="white" stroke-width="0.75"/>
<path d="M84.2537 55.795C84.5215 55.795 84.7386 55.573 84.7386 55.2992C84.7386 55.0254 84.5215 54.8035 84.2537 54.8035C83.9858 54.8035 83.7687 55.0254 83.7687 55.2992C83.7687 55.573 83.9858 55.795 84.2537 55.795Z" stroke="white" stroke-width="0.75"/>
<path d="M92.6306 55.795C92.8984 55.795 93.1156 55.573 93.1156 55.2992C93.1156 55.0254 92.8984 54.8035 92.6306 54.8035C92.3628 54.8035 92.1456 55.0254 92.1456 55.2992C92.1456 55.573 92.3628 55.795 92.6306 55.795Z" stroke="white" stroke-width="0.75"/>
<path d="M101.007 55.795C101.275 55.795 101.492 55.573 101.492 55.2992C101.492 55.0254 101.275 54.8035 101.007 54.8035C100.74 54.8035 100.522 55.0254 100.522 55.2992C100.522 55.573 100.74 55.795 101.007 55.795Z" stroke="white" stroke-width="0.75"/>
<path d="M109.384 55.795C109.652 55.795 109.869 55.573 109.869 55.2992C109.869 55.0254 109.652 54.8035 109.384 54.8035C109.116 54.8035 108.899 55.0254 108.899 55.2992C108.899 55.573 109.116 55.795 109.384 55.795Z" stroke="white" stroke-width="0.75"/>
<path d="M117.761 55.795C118.029 55.795 118.246 55.573 118.246 55.2992C118.246 55.0254 118.029 54.8035 117.761 54.8035C117.493 54.8035 117.276 55.0254 117.276 55.2992C117.276 55.573 117.493 55.795 117.761 55.795Z" stroke="white" stroke-width="0.75"/>
<path d="M126.138 55.795C126.406 55.795 126.623 55.573 126.623 55.2992C126.623 55.0254 126.406 54.8035 126.138 54.8035C125.87 54.8035 125.653 55.0254 125.653 55.2992C125.653 55.573 125.87 55.795 126.138 55.795Z" stroke="white" stroke-width="0.75"/>
<path d="M134.515 55.795C134.783 55.795 135 55.573 135 55.2992C135 55.0254 134.783 54.8035 134.515 54.8035C134.247 54.8035 134.03 55.0254 134.03 55.2992C134.03 55.573 134.247 55.795 134.515 55.795Z" stroke="white" stroke-width="0.75"/>
<path d="M0.484977 64.9288C0.752822 64.9288 0.969954 64.7069 0.969954 64.4331C0.969954 64.1593 0.752822 63.9373 0.484977 63.9373C0.217132 63.9373 0 64.1593 0 64.4331C0 64.7069 0.217132 64.9288 0.484977 64.9288Z" stroke="white" stroke-width="0.75"/>
<path d="M8.86181 64.9288C9.12965 64.9288 9.34678 64.7069 9.34678 64.4331C9.34678 64.1593 9.12965 63.9373 8.86181 63.9373C8.59396 63.9373 8.37683 64.1593 8.37683 64.4331C8.37683 64.7069 8.59396 64.9288 8.86181 64.9288Z" stroke="white" stroke-width="0.75"/>
<path d="M17.2388 64.9289C17.5066 64.9289 17.7237 64.7069 17.7237 64.4331C17.7237 64.1593 17.5066 63.9374 17.2388 63.9374C16.9709 63.9374 16.7538 64.1593 16.7538 64.4331C16.7538 64.7069 16.9709 64.9289 17.2388 64.9289Z" stroke="white" stroke-width="0.75"/>
<path d="M25.6156 64.9289C25.8834 64.9289 26.1006 64.7069 26.1006 64.4331C26.1006 64.1593 25.8834 63.9374 25.6156 63.9374C25.3477 63.9374 25.1306 64.1593 25.1306 64.4331C25.1306 64.7069 25.3477 64.9289 25.6156 64.9289Z" stroke="white" stroke-width="0.75"/>
<path d="M33.9925 64.9288C34.2603 64.9288 34.4775 64.7069 34.4775 64.4331C34.4775 64.1593 34.2603 63.9373 33.9925 63.9373C33.7246 63.9373 33.5075 64.1593 33.5075 64.4331C33.5075 64.7069 33.7246 64.9288 33.9925 64.9288Z" stroke="white" stroke-width="0.75"/>
<path d="M42.3693 64.9288C42.6372 64.9288 42.8543 64.7069 42.8543 64.4331C42.8543 64.1593 42.6372 63.9373 42.3693 63.9373C42.1015 63.9373 41.8843 64.1593 41.8843 64.4331C41.8843 64.7069 42.1015 64.9288 42.3693 64.9288Z" stroke="white" stroke-width="0.75"/>
<path d="M50.7462 64.9288C51.0141 64.9288 51.2312 64.7069 51.2312 64.4331C51.2312 64.1593 51.0141 63.9373 50.7462 63.9373C50.4784 63.9373 50.2612 64.1593 50.2612 64.4331C50.2612 64.7069 50.4784 64.9288 50.7462 64.9288Z" stroke="white" stroke-width="0.75"/>
<path d="M59.123 64.9288C59.3909 64.9288 59.608 64.7069 59.608 64.4331C59.608 64.1593 59.3909 63.9373 59.123 63.9373C58.8552 63.9373 58.6381 64.1593 58.6381 64.4331C58.6381 64.7069 58.8552 64.9288 59.123 64.9288Z" stroke="white" stroke-width="0.75"/>
<path d="M67.4999 64.9289C67.7678 64.9289 67.9849 64.7069 67.9849 64.4331C67.9849 64.1593 67.7678 63.9374 67.4999 63.9374C67.2321 63.9374 67.015 64.1593 67.015 64.4331C67.015 64.7069 67.2321 64.9289 67.4999 64.9289Z" stroke="white" stroke-width="0.75"/>
<path d="M75.8768 64.9289C76.1447 64.9289 76.3618 64.7069 76.3618 64.4331C76.3618 64.1593 76.1447 63.9374 75.8768 63.9374C75.609 63.9374 75.3918 64.1593 75.3918 64.4331C75.3918 64.7069 75.609 64.9289 75.8768 64.9289Z" stroke="white" stroke-width="0.75"/>
<path d="M84.2537 64.9289C84.5215 64.9289 84.7386 64.7069 84.7386 64.4331C84.7386 64.1593 84.5215 63.9374 84.2537 63.9374C83.9858 63.9374 83.7687 64.1593 83.7687 64.4331C83.7687 64.7069 83.9858 64.9289 84.2537 64.9289Z" stroke="white" stroke-width="0.75"/>
<path d="M92.6305 64.9288C92.8983 64.9288 93.1155 64.7068 93.1155 64.433C93.1155 64.1592 92.8983 63.9373 92.6305 63.9373C92.3626 63.9373 92.1455 64.1592 92.1455 64.433C92.1455 64.7068 92.3626 64.9288 92.6305 64.9288Z" stroke="white" stroke-width="0.75"/>
<path d="M101.007 64.9289C101.275 64.9289 101.492 64.7069 101.492 64.4331C101.492 64.1593 101.275 63.9374 101.007 63.9374C100.74 63.9374 100.522 64.1593 100.522 64.4331C100.522 64.7069 100.74 64.9289 101.007 64.9289Z" stroke="white" stroke-width="0.75"/>
<path d="M109.384 64.9289C109.652 64.9289 109.869 64.7069 109.869 64.4331C109.869 64.1593 109.652 63.9374 109.384 63.9374C109.117 63.9374 108.899 64.1593 108.899 64.4331C108.899 64.7069 109.117 64.9289 109.384 64.9289Z" stroke="white" stroke-width="0.75"/>
<path d="M117.761 64.9288C118.029 64.9288 118.246 64.7069 118.246 64.4331C118.246 64.1593 118.029 63.9373 117.761 63.9373C117.493 63.9373 117.276 64.1593 117.276 64.4331C117.276 64.7069 117.493 64.9288 117.761 64.9288Z" stroke="white" stroke-width="0.75"/>
<path d="M126.138 64.9288C126.406 64.9288 126.623 64.7069 126.623 64.4331C126.623 64.1593 126.406 63.9373 126.138 63.9373C125.87 63.9373 125.653 64.1593 125.653 64.4331C125.653 64.7069 125.87 64.9288 126.138 64.9288Z" stroke="white" stroke-width="0.75"/>
<path d="M134.515 64.9288C134.783 64.9288 135 64.7069 135 64.4331C135 64.1593 134.783 63.9373 134.515 63.9373C134.247 63.9373 134.03 64.1593 134.03 64.4331C134.03 64.7069 134.247 64.9288 134.515 64.9288Z" stroke="white" stroke-width="0.75"/>
<path d="M0.484977 74.0627C0.752822 74.0627 0.969954 73.8407 0.969954 73.5669C0.969954 73.2931 0.752822 73.0712 0.484977 73.0712C0.217132 73.0712 0 73.2931 0 73.5669C0 73.8407 0.217132 74.0627 0.484977 74.0627Z" stroke="white" stroke-width="0.75"/>
<path d="M8.86193 74.0628C9.12978 74.0628 9.34691 73.8408 9.34691 73.567C9.34691 73.2932 9.12978 73.0713 8.86193 73.0713C8.59408 73.0713 8.37695 73.2932 8.37695 73.567C8.37695 73.8408 8.59408 74.0628 8.86193 74.0628Z" stroke="white" stroke-width="0.75"/>
<path d="M17.2388 74.0628C17.5066 74.0628 17.7237 73.8408 17.7237 73.567C17.7237 73.2932 17.5066 73.0713 17.2388 73.0713C16.9709 73.0713 16.7538 73.2932 16.7538 73.567C16.7538 73.8408 16.9709 74.0628 17.2388 74.0628Z" stroke="white" stroke-width="0.75"/>
<path d="M25.6156 74.0627C25.8834 74.0627 26.1006 73.8408 26.1006 73.567C26.1006 73.2932 25.8834 73.0712 25.6156 73.0712C25.3477 73.0712 25.1306 73.2932 25.1306 73.567C25.1306 73.8408 25.3477 74.0627 25.6156 74.0627Z" stroke="white" stroke-width="0.75"/>
<path d="M33.9925 74.0627C34.2603 74.0627 34.4775 73.8408 34.4775 73.567C34.4775 73.2932 34.2603 73.0712 33.9925 73.0712C33.7246 73.0712 33.5075 73.2932 33.5075 73.567C33.5075 73.8408 33.7246 74.0627 33.9925 74.0627Z" stroke="white" stroke-width="0.75"/>
<path d="M42.3694 74.0629C42.6372 74.0629 42.8544 73.8409 42.8544 73.5671C42.8544 73.2933 42.6372 73.0714 42.3694 73.0714C42.1015 73.0714 41.8844 73.2933 41.8844 73.5671C41.8844 73.8409 42.1015 74.0629 42.3694 74.0629Z" stroke="white" stroke-width="0.75"/>
<path d="M50.7463 74.0629C51.0141 74.0629 51.2312 73.8409 51.2312 73.5671C51.2312 73.2933 51.0141 73.0714 50.7463 73.0714C50.4784 73.0714 50.2613 73.2933 50.2613 73.5671C50.2613 73.8409 50.4784 74.0629 50.7463 74.0629Z" stroke="white" stroke-width="0.75"/>
<path d="M59.1231 74.0627C59.3909 74.0627 59.6081 73.8408 59.6081 73.567C59.6081 73.2932 59.3909 73.0712 59.1231 73.0712C58.8553 73.0712 58.6381 73.2932 58.6381 73.567C58.6381 73.8408 58.8553 74.0627 59.1231 74.0627Z" stroke="white" stroke-width="0.75"/>
<path d="M67.5 74.0627C67.7678 74.0627 67.985 73.8408 67.985 73.567C67.985 73.2932 67.7678 73.0712 67.5 73.0712C67.2321 73.0712 67.015 73.2932 67.015 73.567C67.015 73.8408 67.2321 74.0627 67.5 74.0627Z" stroke="white" stroke-width="0.75"/>
<path d="M75.8768 74.0628C76.1447 74.0628 76.3618 73.8408 76.3618 73.567C76.3618 73.2932 76.1447 73.0713 75.8768 73.0713C75.609 73.0713 75.3918 73.2932 75.3918 73.567C75.3918 73.8408 75.609 74.0628 75.8768 74.0628Z" stroke="white" stroke-width="0.75"/>
<path d="M84.2537 74.0627C84.5216 74.0627 84.7387 73.8407 84.7387 73.5669C84.7387 73.2931 84.5216 73.0712 84.2537 73.0712C83.9859 73.0712 83.7687 73.2931 83.7687 73.5669C83.7687 73.8407 83.9859 74.0627 84.2537 74.0627Z" stroke="white" stroke-width="0.75"/>
<path d="M92.6306 74.0628C92.8984 74.0628 93.1156 73.8408 93.1156 73.567C93.1156 73.2932 92.8984 73.0713 92.6306 73.0713C92.3628 73.0713 92.1456 73.2932 92.1456 73.567C92.1456 73.8408 92.3628 74.0628 92.6306 74.0628Z" stroke="white" stroke-width="0.75"/>
<path d="M101.007 74.0628C101.275 74.0628 101.492 73.8408 101.492 73.567C101.492 73.2932 101.275 73.0713 101.007 73.0713C100.74 73.0713 100.522 73.2932 100.522 73.567C100.522 73.8408 100.74 74.0628 101.007 74.0628Z" stroke="white" stroke-width="0.75"/>
<path d="M109.384 74.0628C109.652 74.0628 109.869 73.8408 109.869 73.567C109.869 73.2932 109.652 73.0713 109.384 73.0713C109.116 73.0713 108.899 73.2932 108.899 73.567C108.899 73.8408 109.116 74.0628 109.384 74.0628Z" stroke="white" stroke-width="0.75"/>
<path d="M117.761 74.0627C118.029 74.0627 118.246 73.8408 118.246 73.567C118.246 73.2932 118.029 73.0712 117.761 73.0712C117.493 73.0712 117.276 73.2932 117.276 73.567C117.276 73.8408 117.493 74.0627 117.761 74.0627Z" stroke="white" stroke-width="0.75"/>
<path d="M126.138 74.0627C126.406 74.0627 126.623 73.8408 126.623 73.567C126.623 73.2932 126.406 73.0712 126.138 73.0712C125.87 73.0712 125.653 73.2932 125.653 73.567C125.653 73.8408 125.87 74.0627 126.138 74.0627Z" stroke="white" stroke-width="0.75"/>
<path d="M134.515 74.0629C134.783 74.0629 135 73.8409 135 73.5671C135 73.2933 134.783 73.0714 134.515 73.0714C134.247 73.0714 134.03 73.2933 134.03 73.5671C134.03 73.8409 134.247 74.0629 134.515 74.0629Z" stroke="white" stroke-width="0.75"/>
<path d="M0.484977 83.1967C0.752822 83.1967 0.969954 82.9748 0.969954 82.701C0.969954 82.4272 0.752822 82.2052 0.484977 82.2052C0.217132 82.2052 0 82.4272 0 82.701C0 82.9748 0.217132 83.1967 0.484977 83.1967Z" stroke="white" stroke-width="0.75"/>
<path d="M8.86181 83.1966C9.12965 83.1966 9.34678 82.9747 9.34678 82.7009C9.34678 82.4271 9.12965 82.2051 8.86181 82.2051C8.59396 82.2051 8.37683 82.4271 8.37683 82.7009C8.37683 82.9747 8.59396 83.1966 8.86181 83.1966Z" stroke="white" stroke-width="0.75"/>
<path d="M17.2387 83.1966C17.5065 83.1966 17.7237 82.9747 17.7237 82.7009C17.7237 82.4271 17.5065 82.2051 17.2387 82.2051C16.9709 82.2051 16.7537 82.4271 16.7537 82.7009C16.7537 82.9747 16.9709 83.1966 17.2387 83.1966Z" stroke="white" stroke-width="0.75"/>
<path d="M25.6156 83.1966C25.8834 83.1966 26.1006 82.9747 26.1006 82.7009C26.1006 82.4271 25.8834 82.2051 25.6156 82.2051C25.3477 82.2051 25.1306 82.4271 25.1306 82.7009C25.1306 82.9747 25.3477 83.1966 25.6156 83.1966Z" stroke="white" stroke-width="0.75"/>
<path d="M33.9924 83.1966C34.2603 83.1966 34.4774 82.9746 34.4774 82.7008C34.4774 82.427 34.2603 82.2051 33.9924 82.2051C33.7246 82.2051 33.5074 82.427 33.5074 82.7008C33.5074 82.9746 33.7246 83.1966 33.9924 83.1966Z" stroke="white" stroke-width="0.75"/>
<path d="M42.3694 83.1966C42.6372 83.1966 42.8544 82.9747 42.8544 82.7009C42.8544 82.4271 42.6372 82.2051 42.3694 82.2051C42.1015 82.2051 41.8844 82.4271 41.8844 82.7009C41.8844 82.9747 42.1015 83.1966 42.3694 83.1966Z" stroke="white" stroke-width="0.75"/>
<path d="M50.7462 83.1967C51.0141 83.1967 51.2312 82.9748 51.2312 82.701C51.2312 82.4272 51.0141 82.2052 50.7462 82.2052C50.4784 82.2052 50.2612 82.4272 50.2612 82.701C50.2612 82.9748 50.4784 83.1967 50.7462 83.1967Z" stroke="white" stroke-width="0.75"/>
<path d="M59.1231 83.1967C59.3909 83.1967 59.6081 82.9748 59.6081 82.701C59.6081 82.4272 59.3909 82.2052 59.1231 82.2052C58.8553 82.2052 58.6381 82.4272 58.6381 82.701C58.6381 82.9748 58.8553 83.1967 59.1231 83.1967Z" stroke="white" stroke-width="0.75"/>
<path d="M67.4999 83.1966C67.7678 83.1966 67.9849 82.9746 67.9849 82.7008C67.9849 82.427 67.7678 82.2051 67.4999 82.2051C67.2321 82.2051 67.015 82.427 67.015 82.7008C67.015 82.9746 67.2321 83.1966 67.4999 83.1966Z" stroke="white" stroke-width="0.75"/>
<path d="M75.8768 83.1967C76.1447 83.1967 76.3618 82.9748 76.3618 82.701C76.3618 82.4272 76.1447 82.2052 75.8768 82.2052C75.609 82.2052 75.3918 82.4272 75.3918 82.701C75.3918 82.9748 75.609 83.1967 75.8768 83.1967Z" stroke="white" stroke-width="0.75"/>
<path d="M84.2537 83.1967C84.5215 83.1967 84.7386 82.9748 84.7386 82.701C84.7386 82.4272 84.5215 82.2052 84.2537 82.2052C83.9858 82.2052 83.7687 82.4272 83.7687 82.701C83.7687 82.9748 83.9858 83.1967 84.2537 83.1967Z" stroke="white" stroke-width="0.75"/>
<path d="M92.6305 83.1966C92.8984 83.1966 93.1155 82.9747 93.1155 82.7009C93.1155 82.4271 92.8984 82.2051 92.6305 82.2051C92.3627 82.2051 92.1456 82.4271 92.1456 82.7009C92.1456 82.9747 92.3627 83.1966 92.6305 83.1966Z" stroke="white" stroke-width="0.75"/>
<path d="M101.007 83.1966C101.275 83.1966 101.492 82.9746 101.492 82.7008C101.492 82.427 101.275 82.2051 101.007 82.2051C100.74 82.2051 100.523 82.427 100.523 82.7008C100.523 82.9746 100.74 83.1966 101.007 83.1966Z" stroke="white" stroke-width="0.75"/>
<path d="M109.384 83.1966C109.652 83.1966 109.869 82.9747 109.869 82.7009C109.869 82.4271 109.652 82.2051 109.384 82.2051C109.116 82.2051 108.899 82.4271 108.899 82.7009C108.899 82.9747 109.116 83.1966 109.384 83.1966Z" stroke="white" stroke-width="0.75"/>
<path d="M117.761 83.1967C118.029 83.1967 118.246 82.9748 118.246 82.701C118.246 82.4272 118.029 82.2052 117.761 82.2052C117.493 82.2052 117.276 82.4272 117.276 82.701C117.276 82.9748 117.493 83.1967 117.761 83.1967Z" stroke="white" stroke-width="0.75"/>
<path d="M126.138 83.1966C126.406 83.1966 126.623 82.9747 126.623 82.7009C126.623 82.4271 126.406 82.2051 126.138 82.2051C125.87 82.2051 125.653 82.4271 125.653 82.7009C125.653 82.9747 125.87 83.1966 126.138 83.1966Z" stroke="white" stroke-width="0.75"/>
<path d="M134.515 83.1966C134.783 83.1966 135 82.9747 135 82.7009C135 82.4271 134.783 82.2051 134.515 82.2051C134.247 82.2051 134.03 82.4271 134.03 82.7009C134.03 82.9747 134.247 83.1966 134.515 83.1966Z" stroke="white" stroke-width="0.75"/>
<path d="M0.484977 92.3305C0.752822 92.3305 0.969954 92.1085 0.969954 91.8347C0.969954 91.5609 0.752822 91.339 0.484977 91.339C0.217132 91.339 0 91.5609 0 91.8347C0 92.1085 0.217132 92.3305 0.484977 92.3305Z" stroke="white" stroke-width="0.75"/>
<path d="M8.86187 92.3306C9.12971 92.3306 9.34685 92.1086 9.34685 91.8348C9.34685 91.561 9.12971 91.3391 8.86187 91.3391C8.59402 91.3391 8.37689 91.561 8.37689 91.8348C8.37689 92.1086 8.59402 92.3306 8.86187 92.3306Z" stroke="white" stroke-width="0.75"/>
<path d="M17.2388 92.3304C17.5066 92.3304 17.7237 92.1085 17.7237 91.8347C17.7237 91.5609 17.5066 91.3389 17.2388 91.3389C16.9709 91.3389 16.7538 91.5609 16.7538 91.8347C16.7538 92.1085 16.9709 92.3304 17.2388 92.3304Z" stroke="white" stroke-width="0.75"/>
<path d="M25.6156 92.3305C25.8834 92.3305 26.1006 92.1085 26.1006 91.8347C26.1006 91.5609 25.8834 91.339 25.6156 91.339C25.3477 91.339 25.1306 91.5609 25.1306 91.8347C25.1306 92.1085 25.3477 92.3305 25.6156 92.3305Z" stroke="white" stroke-width="0.75"/>
<path d="M33.9925 92.3306C34.2603 92.3306 34.4775 92.1086 34.4775 91.8348C34.4775 91.561 34.2603 91.3391 33.9925 91.3391C33.7246 91.3391 33.5075 91.561 33.5075 91.8348C33.5075 92.1086 33.7246 92.3306 33.9925 92.3306Z" stroke="white" stroke-width="0.75"/>
<path d="M42.3693 92.3305C42.6372 92.3305 42.8543 92.1085 42.8543 91.8347C42.8543 91.5609 42.6372 91.339 42.3693 91.339C42.1015 91.339 41.8843 91.5609 41.8843 91.8347C41.8843 92.1085 42.1015 92.3305 42.3693 92.3305Z" stroke="white" stroke-width="0.75"/>
<path d="M50.7462 92.3305C51.0141 92.3305 51.2312 92.1085 51.2312 91.8347C51.2312 91.5609 51.0141 91.339 50.7462 91.339C50.4784 91.339 50.2612 91.5609 50.2612 91.8347C50.2612 92.1085 50.4784 92.3305 50.7462 92.3305Z" stroke="white" stroke-width="0.75"/>
<path d="M59.123 92.3305C59.3909 92.3305 59.608 92.1085 59.608 91.8347C59.608 91.5609 59.3909 91.339 59.123 91.339C58.8552 91.339 58.6381 91.5609 58.6381 91.8347C58.6381 92.1085 58.8552 92.3305 59.123 92.3305Z" stroke="white" stroke-width="0.75"/>
<path d="M67.5 92.3306C67.7678 92.3306 67.985 92.1087 67.985 91.8349C67.985 91.5611 67.7678 91.3391 67.5 91.3391C67.2321 91.3391 67.015 91.5611 67.015 91.8349C67.015 92.1087 67.2321 92.3306 67.5 92.3306Z" stroke="white" stroke-width="0.75"/>
<path d="M75.8768 92.3305C76.1447 92.3305 76.3618 92.1085 76.3618 91.8347C76.3618 91.5609 76.1447 91.339 75.8768 91.339C75.609 91.339 75.3918 91.5609 75.3918 91.8347C75.3918 92.1085 75.609 92.3305 75.8768 92.3305Z" stroke="white" stroke-width="0.75"/>
<path d="M84.2537 92.3305C84.5216 92.3305 84.7387 92.1085 84.7387 91.8347C84.7387 91.5609 84.5216 91.339 84.2537 91.339C83.9859 91.339 83.7687 91.5609 83.7687 91.8347C83.7687 92.1085 83.9859 92.3305 84.2537 92.3305Z" stroke="white" stroke-width="0.75"/>
<path d="M92.6306 92.3305C92.8984 92.3305 93.1156 92.1085 93.1156 91.8347C93.1156 91.5609 92.8984 91.339 92.6306 91.339C92.3628 91.339 92.1456 91.5609 92.1456 91.8347C92.1456 92.1085 92.3628 92.3305 92.6306 92.3305Z" stroke="white" stroke-width="0.75"/>
<path d="M101.007 92.3306C101.275 92.3306 101.492 92.1086 101.492 91.8348C101.492 91.561 101.275 91.3391 101.007 91.3391C100.74 91.3391 100.522 91.561 100.522 91.8348C100.522 92.1086 100.74 92.3306 101.007 92.3306Z" stroke="white" stroke-width="0.75"/>
<path d="M109.384 92.3304C109.652 92.3304 109.869 92.1085 109.869 91.8347C109.869 91.5609 109.652 91.3389 109.384 91.3389C109.116 91.3389 108.899 91.5609 108.899 91.8347C108.899 92.1085 109.116 92.3304 109.384 92.3304Z" stroke="white" stroke-width="0.75"/>
<path d="M117.761 92.3306C118.029 92.3306 118.246 92.1086 118.246 91.8348C118.246 91.561 118.029 91.3391 117.761 91.3391C117.493 91.3391 117.276 91.561 117.276 91.8348C117.276 92.1086 117.493 92.3306 117.761 92.3306Z" stroke="white" stroke-width="0.75"/>
<path d="M126.138 92.3306C126.406 92.3306 126.623 92.1086 126.623 91.8348C126.623 91.561 126.406 91.3391 126.138 91.3391C125.87 91.3391 125.653 91.561 125.653 91.8348C125.653 92.1086 125.87 92.3306 126.138 92.3306Z" stroke="white" stroke-width="0.75"/>
<path d="M134.515 92.3305C134.783 92.3305 135 92.1085 135 91.8347C135 91.5609 134.783 91.339 134.515 91.339C134.247 91.339 134.03 91.5609 134.03 91.8347C134.03 92.1085 134.247 92.3305 134.515 92.3305Z" stroke="white" stroke-width="0.75"/>
<path d="M0.484977 101.464C0.752822 101.464 0.969954 101.242 0.969954 100.969C0.969954 100.695 0.752822 100.473 0.484977 100.473C0.217132 100.473 0 100.695 0 100.969C0 101.242 0.217132 101.464 0.484977 101.464Z" stroke="white" stroke-width="0.75"/>
<path d="M8.86187 101.464C9.12971 101.464 9.34685 101.242 9.34685 100.969C9.34685 100.695 9.12971 100.473 8.86187 100.473C8.59402 100.473 8.37689 100.695 8.37689 100.969C8.37689 101.242 8.59402 101.464 8.86187 101.464Z" stroke="white" stroke-width="0.75"/>
<path d="M17.2387 101.464C17.5065 101.464 17.7237 101.243 17.7237 100.969C17.7237 100.695 17.5065 100.473 17.2387 100.473C16.9709 100.473 16.7537 100.695 16.7537 100.969C16.7537 101.243 16.9709 101.464 17.2387 101.464Z" stroke="white" stroke-width="0.75"/>
<path d="M25.6156 101.464C25.8834 101.464 26.1006 101.242 26.1006 100.969C26.1006 100.695 25.8834 100.473 25.6156 100.473C25.3477 100.473 25.1306 100.695 25.1306 100.969C25.1306 101.242 25.3477 101.464 25.6156 101.464Z" stroke="white" stroke-width="0.75"/>
<path d="M33.9924 101.464C34.2603 101.464 34.4774 101.242 34.4774 100.969C34.4774 100.695 34.2603 100.473 33.9924 100.473C33.7246 100.473 33.5074 100.695 33.5074 100.969C33.5074 101.242 33.7246 101.464 33.9924 101.464Z" stroke="white" stroke-width="0.75"/>
<path d="M42.3693 101.464C42.6372 101.464 42.8543 101.242 42.8543 100.969C42.8543 100.695 42.6372 100.473 42.3693 100.473C42.1015 100.473 41.8843 100.695 41.8843 100.969C41.8843 101.242 42.1015 101.464 42.3693 101.464Z" stroke="white" stroke-width="0.75"/>
<path d="M50.7462 101.464C51.0141 101.464 51.2312 101.242 51.2312 100.969C51.2312 100.695 51.0141 100.473 50.7462 100.473C50.4784 100.473 50.2612 100.695 50.2612 100.969C50.2612 101.242 50.4784 101.464 50.7462 101.464Z" stroke="white" stroke-width="0.75"/>
<path d="M59.123 101.464C59.3909 101.464 59.608 101.242 59.608 100.969C59.608 100.695 59.3909 100.473 59.123 100.473C58.8552 100.473 58.6381 100.695 58.6381 100.969C58.6381 101.242 58.8552 101.464 59.123 101.464Z" stroke="white" stroke-width="0.75"/>
<path d="M67.5 101.464C67.7678 101.464 67.985 101.242 67.985 100.969C67.985 100.695 67.7678 100.473 67.5 100.473C67.2321 100.473 67.015 100.695 67.015 100.969C67.015 101.242 67.2321 101.464 67.5 101.464Z" stroke="white" stroke-width="0.75"/>
<path d="M75.8768 101.464C76.1447 101.464 76.3618 101.242 76.3618 100.969C76.3618 100.695 76.1447 100.473 75.8768 100.473C75.609 100.473 75.3918 100.695 75.3918 100.969C75.3918 101.242 75.609 101.464 75.8768 101.464Z" stroke="white" stroke-width="0.75"/>
<path d="M84.2537 101.464C84.5215 101.464 84.7386 101.242 84.7386 100.969C84.7386 100.695 84.5215 100.473 84.2537 100.473C83.9858 100.473 83.7687 100.695 83.7687 100.969C83.7687 101.242 83.9858 101.464 84.2537 101.464Z" stroke="white" stroke-width="0.75"/>
<path d="M92.6305 101.464C92.8983 101.464 93.1155 101.242 93.1155 100.969C93.1155 100.695 92.8983 100.473 92.6305 100.473C92.3626 100.473 92.1455 100.695 92.1455 100.969C92.1455 101.242 92.3626 101.464 92.6305 101.464Z" stroke="white" stroke-width="0.75"/>
<path d="M101.007 101.464C101.275 101.464 101.492 101.243 101.492 100.969C101.492 100.695 101.275 100.473 101.007 100.473C100.74 100.473 100.523 100.695 100.523 100.969C100.523 101.243 100.74 101.464 101.007 101.464Z" stroke="white" stroke-width="0.75"/>
<path d="M109.384 101.464C109.652 101.464 109.869 101.243 109.869 100.969C109.869 100.695 109.652 100.473 109.384 100.473C109.117 100.473 108.899 100.695 108.899 100.969C108.899 101.243 109.117 101.464 109.384 101.464Z" stroke="white" stroke-width="0.75"/>
<path d="M117.761 101.464C118.029 101.464 118.246 101.242 118.246 100.969C118.246 100.695 118.029 100.473 117.761 100.473C117.493 100.473 117.276 100.695 117.276 100.969C117.276 101.242 117.493 101.464 117.761 101.464Z" stroke="white" stroke-width="0.75"/>
<path d="M126.138 101.464C126.406 101.464 126.623 101.242 126.623 100.969C126.623 100.695 126.406 100.473 126.138 100.473C125.87 100.473 125.653 100.695 125.653 100.969C125.653 101.242 125.87 101.464 126.138 101.464Z" stroke="white" stroke-width="0.75"/>
<path d="M134.515 101.464C134.783 101.464 135 101.242 135 100.969C135 100.695 134.783 100.473 134.515 100.473C134.247 100.473 134.03 100.695 134.03 100.969C134.03 101.242 134.247 101.464 134.515 101.464Z" stroke="white" stroke-width="0.75"/>
<path d="M0.484977 110.598C0.752822 110.598 0.969954 110.376 0.969954 110.103C0.969954 109.829 0.752822 109.607 0.484977 109.607C0.217132 109.607 0 109.829 0 110.103C0 110.376 0.217132 110.598 0.484977 110.598Z" stroke="white" stroke-width="0.75"/>
<path d="M8.86181 110.598C9.12965 110.598 9.34678 110.376 9.34678 110.103C9.34678 109.829 9.12965 109.607 8.86181 109.607C8.59396 109.607 8.37683 109.829 8.37683 110.103C8.37683 110.376 8.59396 110.598 8.86181 110.598Z" stroke="white" stroke-width="0.75"/>
<path d="M17.2387 110.598C17.5065 110.598 17.7237 110.376 17.7237 110.103C17.7237 109.829 17.5065 109.607 17.2387 109.607C16.9709 109.607 16.7537 109.829 16.7537 110.103C16.7537 110.376 16.9709 110.598 17.2387 110.598Z" stroke="white" stroke-width="0.75"/>
<path d="M25.6156 110.598C25.8834 110.598 26.1006 110.376 26.1006 110.103C26.1006 109.829 25.8834 109.607 25.6156 109.607C25.3477 109.607 25.1306 109.829 25.1306 110.103C25.1306 110.376 25.3477 110.598 25.6156 110.598Z" stroke="white" stroke-width="0.75"/>
<path d="M33.9924 110.598C34.2603 110.598 34.4774 110.376 34.4774 110.103C34.4774 109.829 34.2603 109.607 33.9924 109.607C33.7246 109.607 33.5074 109.829 33.5074 110.103C33.5074 110.376 33.7246 110.598 33.9924 110.598Z" stroke="white" stroke-width="0.75"/>
<path d="M42.3694 110.598C42.6372 110.598 42.8544 110.376 42.8544 110.103C42.8544 109.829 42.6372 109.607 42.3694 109.607C42.1015 109.607 41.8844 109.829 41.8844 110.103C41.8844 110.376 42.1015 110.598 42.3694 110.598Z" stroke="white" stroke-width="0.75"/>
<path d="M50.7461 110.598C51.014 110.598 51.2311 110.376 51.2311 110.103C51.2311 109.829 51.014 109.607 50.7461 109.607C50.4783 109.607 50.2612 109.829 50.2612 110.103C50.2612 110.376 50.4783 110.598 50.7461 110.598Z" stroke="white" stroke-width="0.75"/>
<path d="M59.123 110.598C59.3909 110.598 59.608 110.376 59.608 110.103C59.608 109.829 59.3909 109.607 59.123 109.607C58.8552 109.607 58.6381 109.829 58.6381 110.103C58.6381 110.376 58.8552 110.598 59.123 110.598Z" stroke="white" stroke-width="0.75"/>
<path d="M67.4999 110.598C67.7678 110.598 67.9849 110.376 67.9849 110.103C67.9849 109.829 67.7678 109.607 67.4999 109.607C67.2321 109.607 67.015 109.829 67.015 110.103C67.015 110.376 67.2321 110.598 67.4999 110.598Z" stroke="white" stroke-width="0.75"/>
<path d="M75.8768 110.598C76.1447 110.598 76.3618 110.376 76.3618 110.103C76.3618 109.829 76.1447 109.607 75.8768 109.607C75.609 109.607 75.3918 109.829 75.3918 110.103C75.3918 110.376 75.609 110.598 75.8768 110.598Z" stroke="white" stroke-width="0.75"/>
<path d="M84.2537 110.598C84.5216 110.598 84.7387 110.376 84.7387 110.103C84.7387 109.829 84.5216 109.607 84.2537 109.607C83.9859 109.607 83.7687 109.829 83.7687 110.103C83.7687 110.376 83.9859 110.598 84.2537 110.598Z" stroke="white" stroke-width="0.75"/>
<path d="M92.6305 110.598C92.8984 110.598 93.1155 110.376 93.1155 110.103C93.1155 109.829 92.8984 109.607 92.6305 109.607C92.3627 109.607 92.1456 109.829 92.1456 110.103C92.1456 110.376 92.3627 110.598 92.6305 110.598Z" stroke="white" stroke-width="0.75"/>
<path d="M101.007 110.598C101.275 110.598 101.492 110.376 101.492 110.103C101.492 109.829 101.275 109.607 101.007 109.607C100.74 109.607 100.523 109.829 100.523 110.103C100.523 110.376 100.74 110.598 101.007 110.598Z" stroke="white" stroke-width="0.75"/>
<path d="M109.384 110.598C109.652 110.598 109.869 110.376 109.869 110.103C109.869 109.829 109.652 109.607 109.384 109.607C109.116 109.607 108.899 109.829 108.899 110.103C108.899 110.376 109.116 110.598 109.384 110.598Z" stroke="white" stroke-width="0.75"/>
<path d="M117.761 110.598C118.029 110.598 118.246 110.376 118.246 110.103C118.246 109.829 118.029 109.607 117.761 109.607C117.493 109.607 117.276 109.829 117.276 110.103C117.276 110.376 117.493 110.598 117.761 110.598Z" stroke="white" stroke-width="0.75"/>
<path d="M126.138 110.598C126.406 110.598 126.623 110.376 126.623 110.103C126.623 109.829 126.406 109.607 126.138 109.607C125.87 109.607 125.653 109.829 125.653 110.103C125.653 110.376 125.87 110.598 126.138 110.598Z" stroke="white" stroke-width="0.75"/>
<path d="M134.515 110.598C134.783 110.598 135 110.376 135 110.103C135 109.829 134.783 109.607 134.515 109.607C134.247 109.607 134.03 109.829 134.03 110.103C134.03 110.376 134.247 110.598 134.515 110.598Z" stroke="white" stroke-width="0.75"/>
<path d="M0.484977 119.732C0.752822 119.732 0.969954 119.51 0.969954 119.236C0.969954 118.963 0.752822 118.741 0.484977 118.741C0.217132 118.741 0 118.963 0 119.236C0 119.51 0.217132 119.732 0.484977 119.732Z" stroke="white" stroke-width="0.75"/>
<path d="M8.86187 119.732C9.12971 119.732 9.34685 119.51 9.34685 119.236C9.34685 118.963 9.12971 118.741 8.86187 118.741C8.59402 118.741 8.37689 118.963 8.37689 119.236C8.37689 119.51 8.59402 119.732 8.86187 119.732Z" stroke="white" stroke-width="0.75"/>
<path d="M17.2388 119.732C17.5066 119.732 17.7237 119.51 17.7237 119.236C17.7237 118.963 17.5066 118.741 17.2388 118.741C16.9709 118.741 16.7538 118.963 16.7538 119.236C16.7538 119.51 16.9709 119.732 17.2388 119.732Z" stroke="white" stroke-width="0.75"/>
<path d="M25.6156 119.732C25.8834 119.732 26.1006 119.51 26.1006 119.236C26.1006 118.963 25.8834 118.741 25.6156 118.741C25.3477 118.741 25.1306 118.963 25.1306 119.236C25.1306 119.51 25.3477 119.732 25.6156 119.732Z" stroke="white" stroke-width="0.75"/>
<path d="M33.9924 119.732C34.2603 119.732 34.4774 119.51 34.4774 119.236C34.4774 118.963 34.2603 118.741 33.9924 118.741C33.7246 118.741 33.5074 118.963 33.5074 119.236C33.5074 119.51 33.7246 119.732 33.9924 119.732Z" stroke="white" stroke-width="0.75"/>
<path d="M42.3693 119.732C42.6372 119.732 42.8543 119.51 42.8543 119.236C42.8543 118.963 42.6372 118.741 42.3693 118.741C42.1015 118.741 41.8843 118.963 41.8843 119.236C41.8843 119.51 42.1015 119.732 42.3693 119.732Z" stroke="white" stroke-width="0.75"/>
<path d="M50.7462 119.732C51.0141 119.732 51.2312 119.51 51.2312 119.236C51.2312 118.963 51.0141 118.741 50.7462 118.741C50.4784 118.741 50.2612 118.963 50.2612 119.236C50.2612 119.51 50.4784 119.732 50.7462 119.732Z" stroke="white" stroke-width="0.75"/>
<path d="M59.123 119.732C59.3909 119.732 59.608 119.51 59.608 119.236C59.608 118.963 59.3909 118.741 59.123 118.741C58.8552 118.741 58.6381 118.963 58.6381 119.236C58.6381 119.51 58.8552 119.732 59.123 119.732Z" stroke="white" stroke-width="0.75"/>
<path d="M67.4999 119.732C67.7678 119.732 67.9849 119.51 67.9849 119.236C67.9849 118.963 67.7678 118.741 67.4999 118.741C67.2321 118.741 67.015 118.963 67.015 119.236C67.015 119.51 67.2321 119.732 67.4999 119.732Z" stroke="white" stroke-width="0.75"/>
<path d="M75.8768 119.732C76.1447 119.732 76.3618 119.51 76.3618 119.236C76.3618 118.963 76.1447 118.741 75.8768 118.741C75.609 118.741 75.3918 118.963 75.3918 119.236C75.3918 119.51 75.609 119.732 75.8768 119.732Z" stroke="white" stroke-width="0.75"/>
<path d="M84.2537 119.732C84.5216 119.732 84.7387 119.51 84.7387 119.237C84.7387 118.963 84.5216 118.741 84.2537 118.741C83.9859 118.741 83.7687 118.963 83.7687 119.237C83.7687 119.51 83.9859 119.732 84.2537 119.732Z" stroke="white" stroke-width="0.75"/>
<path d="M92.6305 119.732C92.8984 119.732 93.1155 119.51 93.1155 119.236C93.1155 118.963 92.8984 118.741 92.6305 118.741C92.3627 118.741 92.1456 118.963 92.1456 119.236C92.1456 119.51 92.3627 119.732 92.6305 119.732Z" stroke="white" stroke-width="0.75"/>
<path d="M101.007 119.732C101.275 119.732 101.492 119.51 101.492 119.236C101.492 118.963 101.275 118.741 101.007 118.741C100.74 118.741 100.522 118.963 100.522 119.236C100.522 119.51 100.74 119.732 101.007 119.732Z" stroke="white" stroke-width="0.75"/>
<path d="M109.384 119.732C109.652 119.732 109.869 119.51 109.869 119.236C109.869 118.963 109.652 118.741 109.384 118.741C109.116 118.741 108.899 118.963 108.899 119.236C108.899 119.51 109.116 119.732 109.384 119.732Z" stroke="white" stroke-width="0.75"/>
<path d="M117.761 119.732C118.029 119.732 118.246 119.51 118.246 119.236C118.246 118.963 118.029 118.741 117.761 118.741C117.493 118.741 117.276 118.963 117.276 119.236C117.276 119.51 117.493 119.732 117.761 119.732Z" stroke="white" stroke-width="0.75"/>
<path d="M126.138 119.732C126.406 119.732 126.623 119.51 126.623 119.236C126.623 118.963 126.406 118.741 126.138 118.741C125.87 118.741 125.653 118.963 125.653 119.236C125.653 119.51 125.87 119.732 126.138 119.732Z" stroke="white" stroke-width="0.75"/>
<path d="M134.515 119.732C134.783 119.732 135 119.51 135 119.236C135 118.963 134.783 118.741 134.515 118.741C134.247 118.741 134.03 118.963 134.03 119.236C134.03 119.51 134.247 119.732 134.515 119.732Z" stroke="white" stroke-width="0.75"/>
<path d="M0.484977 128.866C0.752822 128.866 0.969954 128.644 0.969954 128.37C0.969954 128.097 0.752822 127.875 0.484977 127.875C0.217132 127.875 0 128.097 0 128.37C0 128.644 0.217132 128.866 0.484977 128.866Z" stroke="white" stroke-width="0.75"/>
<path d="M8.86187 128.866C9.12971 128.866 9.34685 128.644 9.34685 128.37C9.34685 128.096 9.12971 127.875 8.86187 127.875C8.59402 127.875 8.37689 128.096 8.37689 128.37C8.37689 128.644 8.59402 128.866 8.86187 128.866Z" stroke="white" stroke-width="0.75"/>
<path d="M17.2388 128.866C17.5066 128.866 17.7237 128.644 17.7237 128.37C17.7237 128.096 17.5066 127.875 17.2388 127.875C16.9709 127.875 16.7538 128.096 16.7538 128.37C16.7538 128.644 16.9709 128.866 17.2388 128.866Z" stroke="white" stroke-width="0.75"/>
<path d="M25.6156 128.866C25.8834 128.866 26.1006 128.644 26.1006 128.37C26.1006 128.096 25.8834 127.875 25.6156 127.875C25.3477 127.875 25.1306 128.096 25.1306 128.37C25.1306 128.644 25.3477 128.866 25.6156 128.866Z" stroke="white" stroke-width="0.75"/>
<path d="M33.9925 128.866C34.2604 128.866 34.4775 128.644 34.4775 128.37C34.4775 128.097 34.2604 127.875 33.9925 127.875C33.7247 127.875 33.5076 128.097 33.5076 128.37C33.5076 128.644 33.7247 128.866 33.9925 128.866Z" stroke="white" stroke-width="0.75"/>
<path d="M42.3694 128.866C42.6372 128.866 42.8544 128.644 42.8544 128.37C42.8544 128.097 42.6372 127.875 42.3694 127.875C42.1015 127.875 41.8844 128.097 41.8844 128.37C41.8844 128.644 42.1015 128.866 42.3694 128.866Z" stroke="white" stroke-width="0.75"/>
<path d="M50.7463 128.866C51.0141 128.866 51.2312 128.644 51.2312 128.37C51.2312 128.097 51.0141 127.875 50.7463 127.875C50.4784 127.875 50.2613 128.097 50.2613 128.37C50.2613 128.644 50.4784 128.866 50.7463 128.866Z" stroke="white" stroke-width="0.75"/>
<path d="M59.1231 128.866C59.3909 128.866 59.6081 128.644 59.6081 128.37C59.6081 128.097 59.3909 127.875 59.1231 127.875C58.8553 127.875 58.6381 128.097 58.6381 128.37C58.6381 128.644 58.8553 128.866 59.1231 128.866Z" stroke="white" stroke-width="0.75"/>
<path d="M67.5 128.866C67.7678 128.866 67.985 128.644 67.985 128.37C67.985 128.096 67.7678 127.875 67.5 127.875C67.2321 127.875 67.015 128.096 67.015 128.37C67.015 128.644 67.2321 128.866 67.5 128.866Z" stroke="white" stroke-width="0.75"/>
<path d="M75.8768 128.866C76.1447 128.866 76.3618 128.644 76.3618 128.37C76.3618 128.097 76.1447 127.875 75.8768 127.875C75.609 127.875 75.3918 128.097 75.3918 128.37C75.3918 128.644 75.609 128.866 75.8768 128.866Z" stroke="white" stroke-width="0.75"/>
<path d="M84.2537 128.866C84.5216 128.866 84.7387 128.644 84.7387 128.37C84.7387 128.097 84.5216 127.875 84.2537 127.875C83.9859 127.875 83.7687 128.097 83.7687 128.37C83.7687 128.644 83.9859 128.866 84.2537 128.866Z" stroke="white" stroke-width="0.75"/>
<path d="M92.6305 128.866C92.8984 128.866 93.1155 128.644 93.1155 128.37C93.1155 128.097 92.8984 127.875 92.6305 127.875C92.3627 127.875 92.1456 128.097 92.1456 128.37C92.1456 128.644 92.3627 128.866 92.6305 128.866Z" stroke="white" stroke-width="0.75"/>
<path d="M101.007 128.866C101.275 128.866 101.492 128.644 101.492 128.37C101.492 128.096 101.275 127.875 101.007 127.875C100.74 127.875 100.522 128.096 100.522 128.37C100.522 128.644 100.74 128.866 101.007 128.866Z" stroke="white" stroke-width="0.75"/>
<path d="M109.384 128.866C109.652 128.866 109.869 128.644 109.869 128.37C109.869 128.096 109.652 127.875 109.384 127.875C109.116 127.875 108.899 128.096 108.899 128.37C108.899 128.644 109.116 128.866 109.384 128.866Z" stroke="white" stroke-width="0.75"/>
<path d="M117.761 128.866C118.029 128.866 118.246 128.644 118.246 128.37C118.246 128.097 118.029 127.875 117.761 127.875C117.493 127.875 117.276 128.097 117.276 128.37C117.276 128.644 117.493 128.866 117.761 128.866Z" stroke="white" stroke-width="0.75"/>
<path d="M126.138 128.866C126.406 128.866 126.623 128.644 126.623 128.37C126.623 128.097 126.406 127.875 126.138 127.875C125.87 127.875 125.653 128.097 125.653 128.37C125.653 128.644 125.87 128.866 126.138 128.866Z" stroke="white" stroke-width="0.75"/>
<path d="M134.515 128.866C134.783 128.866 135 128.644 135 128.37C135 128.097 134.783 127.875 134.515 127.875C134.247 127.875 134.03 128.097 134.03 128.37C134.03 128.644 134.247 128.866 134.515 128.866Z" stroke="white" stroke-width="0.75"/>
<path d="M0.484977 138C0.752822 138 0.969954 137.778 0.969954 137.504C0.969954 137.23 0.752822 137.008 0.484977 137.008C0.217132 137.008 0 137.23 0 137.504C0 137.778 0.217132 138 0.484977 138Z" stroke="white" stroke-width="0.75"/>
<path d="M8.86187 138C9.12971 138 9.34685 137.778 9.34685 137.504C9.34685 137.23 9.12971 137.008 8.86187 137.008C8.59402 137.008 8.37689 137.23 8.37689 137.504C8.37689 137.778 8.59402 138 8.86187 138Z" stroke="white" stroke-width="0.75"/>
<path d="M17.2387 138C17.5065 138 17.7237 137.778 17.7237 137.504C17.7237 137.23 17.5065 137.008 17.2387 137.008C16.9709 137.008 16.7537 137.23 16.7537 137.504C16.7537 137.778 16.9709 138 17.2387 138Z" stroke="white" stroke-width="0.75"/>
<path d="M25.6156 138C25.8834 138 26.1006 137.778 26.1006 137.504C26.1006 137.23 25.8834 137.008 25.6156 137.008C25.3477 137.008 25.1306 137.23 25.1306 137.504C25.1306 137.778 25.3477 138 25.6156 138Z" stroke="white" stroke-width="0.75"/>
<path d="M33.9924 138C34.2603 138 34.4774 137.778 34.4774 137.504C34.4774 137.23 34.2603 137.008 33.9924 137.008C33.7246 137.008 33.5074 137.23 33.5074 137.504C33.5074 137.778 33.7246 138 33.9924 138Z" stroke="white" stroke-width="0.75"/>
<path d="M42.3694 138C42.6372 138 42.8544 137.778 42.8544 137.504C42.8544 137.23 42.6372 137.008 42.3694 137.008C42.1015 137.008 41.8844 137.23 41.8844 137.504C41.8844 137.778 42.1015 138 42.3694 138Z" stroke="white" stroke-width="0.75"/>
<path d="M50.7461 138C51.014 138 51.2311 137.778 51.2311 137.504C51.2311 137.23 51.014 137.008 50.7461 137.008C50.4783 137.008 50.2612 137.23 50.2612 137.504C50.2612 137.778 50.4783 138 50.7461 138Z" stroke="white" stroke-width="0.75"/>
<path d="M59.123 138C59.3909 138 59.608 137.778 59.608 137.504C59.608 137.23 59.3909 137.008 59.123 137.008C58.8552 137.008 58.6381 137.23 58.6381 137.504C58.6381 137.778 58.8552 138 59.123 138Z" stroke="white" stroke-width="0.75"/>
<path d="M67.4999 138C67.7678 138 67.9849 137.778 67.9849 137.504C67.9849 137.23 67.7678 137.008 67.4999 137.008C67.2321 137.008 67.015 137.23 67.015 137.504C67.015 137.778 67.2321 138 67.4999 138Z" stroke="white" stroke-width="0.75"/>
<path d="M75.8768 138C76.1447 138 76.3618 137.778 76.3618 137.504C76.3618 137.23 76.1447 137.008 75.8768 137.008C75.609 137.008 75.3918 137.23 75.3918 137.504C75.3918 137.778 75.609 138 75.8768 138Z" stroke="white" stroke-width="0.75"/>
<path d="M84.2537 138C84.5216 138 84.7387 137.778 84.7387 137.504C84.7387 137.23 84.5216 137.008 84.2537 137.008C83.9859 137.008 83.7687 137.23 83.7687 137.504C83.7687 137.778 83.9859 138 84.2537 138Z" stroke="white" stroke-width="0.75"/>
<path d="M92.6305 138C92.8984 138 93.1155 137.778 93.1155 137.504C93.1155 137.23 92.8984 137.008 92.6305 137.008C92.3627 137.008 92.1456 137.23 92.1456 137.504C92.1456 137.778 92.3627 138 92.6305 138Z" stroke="white" stroke-width="0.75"/>
<path d="M101.007 138C101.275 138 101.492 137.778 101.492 137.504C101.492 137.23 101.275 137.008 101.007 137.008C100.74 137.008 100.523 137.23 100.523 137.504C100.523 137.778 100.74 138 101.007 138Z" stroke="white" stroke-width="0.75"/>
<path d="M109.384 138C109.652 138 109.869 137.778 109.869 137.504C109.869 137.23 109.652 137.008 109.384 137.008C109.116 137.008 108.899 137.23 108.899 137.504C108.899 137.778 109.116 138 109.384 138Z" stroke="white" stroke-width="0.75"/>
<path d="M117.761 138C118.029 138 118.246 137.778 118.246 137.504C118.246 137.23 118.029 137.008 117.761 137.008C117.493 137.008 117.276 137.23 117.276 137.504C117.276 137.778 117.493 138 117.761 138Z" stroke="white" stroke-width="0.75"/>
<path d="M126.138 138C126.406 138 126.623 137.778 126.623 137.504C126.623 137.23 126.406 137.008 126.138 137.008C125.87 137.008 125.653 137.23 125.653 137.504C125.653 137.778 125.87 138 126.138 138Z" stroke="white" stroke-width="0.75"/>
<path d="M134.515 138C134.783 138 135 137.778 135 137.504C135 137.23 134.783 137.008 134.515 137.008C134.247 137.008 134.03 137.23 134.03 137.504C134.03 137.778 134.247 138 134.515 138Z" stroke="white" stroke-width="0.75"/>
</g>
</g>
<defs>
<clipPath id="clip0_21_3084">
<rect width="135" height="138" rx="67.5" fill="white"/>
</clipPath>
</defs>
</svg>
