<svg width="191" height="249" viewBox="0 0 191 249" fill="none" xmlns="http://www.w3.org/2000/svg">
<g opacity="0.2">
<g clip-path="url(#clip0_21_3083)">
<path d="M9.18643 1.78915C9.66855 1.78915 10.0594 1.38866 10.0594 0.894635C10.0594 0.400609 9.66855 0.00012207 9.18643 0.00012207C8.70431 0.00012207 8.31348 0.400609 8.31348 0.894635C8.31348 1.38866 8.70431 1.78915 9.18643 1.78915Z" stroke="white" stroke-width="0.75"/>
<path d="M24.2648 1.78939C24.7469 1.78939 25.1378 1.3889 25.1378 0.894879C25.1378 0.400853 24.7469 0.000366211 24.2648 0.000366211C23.7827 0.000366211 23.3918 0.400853 23.3918 0.894879C23.3918 1.3889 23.7827 1.78939 24.2648 1.78939Z" stroke="white" stroke-width="0.75"/>
<path d="M39.3432 1.78915C39.8253 1.78915 40.2161 1.38866 40.2161 0.894635C40.2161 0.400609 39.8253 0.00012207 39.3432 0.00012207C38.8611 0.00012207 38.4702 0.400609 38.4702 0.894635C38.4702 1.38866 38.8611 1.78915 39.3432 1.78915Z" stroke="white" stroke-width="0.75"/>
<path d="M54.4215 1.78915C54.9037 1.78915 55.2945 1.38866 55.2945 0.894635C55.2945 0.400609 54.9037 0.00012207 54.4215 0.00012207C53.9394 0.00012207 53.5486 0.400609 53.5486 0.894635C53.5486 1.38866 53.9394 1.78915 54.4215 1.78915Z" stroke="white" stroke-width="0.75"/>
<path d="M69.4999 1.78927C69.982 1.78927 70.3729 1.38878 70.3729 0.894757C70.3729 0.400731 69.982 0.000244141 69.4999 0.000244141C69.0178 0.000244141 68.627 0.400731 68.627 0.894757C68.627 1.38878 69.0178 1.78927 69.4999 1.78927Z" stroke="white" stroke-width="0.75"/>
<path d="M84.5783 1.78903C85.0604 1.78903 85.4512 1.38854 85.4512 0.894513C85.4512 0.400487 85.0604 0 84.5783 0C84.0962 0 83.7053 0.400487 83.7053 0.894513C83.7053 1.38854 84.0962 1.78903 84.5783 1.78903Z" stroke="white" stroke-width="0.75"/>
<path d="M99.6567 1.78927C100.139 1.78927 100.53 1.38878 100.53 0.894757C100.53 0.400731 100.139 0.000244141 99.6567 0.000244141C99.1745 0.000244141 98.7837 0.400731 98.7837 0.894757C98.7837 1.38878 99.1745 1.78927 99.6567 1.78927Z" stroke="white" stroke-width="0.75"/>
<path d="M114.735 1.78927C115.217 1.78927 115.608 1.38878 115.608 0.894757C115.608 0.400731 115.217 0.000244141 114.735 0.000244141C114.253 0.000244141 113.862 0.400731 113.862 0.894757C113.862 1.38878 114.253 1.78927 114.735 1.78927Z" stroke="white" stroke-width="0.75"/>
<path d="M129.814 1.78927C130.296 1.78927 130.686 1.38878 130.686 0.894757C130.686 0.400731 130.296 0.000244141 129.814 0.000244141C129.331 0.000244141 128.941 0.400731 128.941 0.894757C128.941 1.38878 129.331 1.78927 129.814 1.78927Z" stroke="white" stroke-width="0.75"/>
<path d="M144.892 1.78903C145.374 1.78903 145.765 1.38854 145.765 0.894513C145.765 0.400487 145.374 0 144.892 0C144.41 0 144.019 0.400487 144.019 0.894513C144.019 1.38854 144.41 1.78903 144.892 1.78903Z" stroke="white" stroke-width="0.75"/>
<path d="M159.97 1.78915C160.452 1.78915 160.843 1.38866 160.843 0.894635C160.843 0.400609 160.452 0.00012207 159.97 0.00012207C159.488 0.00012207 159.097 0.400609 159.097 0.894635C159.097 1.38866 159.488 1.78915 159.97 1.78915Z" stroke="white" stroke-width="0.75"/>
<path d="M175.049 1.78927C175.531 1.78927 175.922 1.38878 175.922 0.894757C175.922 0.400731 175.531 0.000244141 175.049 0.000244141C174.566 0.000244141 174.176 0.400731 174.176 0.894757C174.176 1.38878 174.566 1.78927 175.049 1.78927Z" stroke="white" stroke-width="0.75"/>
<path d="M190.127 1.78915C190.609 1.78915 191 1.38866 191 0.894635C191 0.400609 190.609 0.00012207 190.127 0.00012207C189.645 0.00012207 189.254 0.400609 189.254 0.894635C189.254 1.38866 189.645 1.78915 190.127 1.78915Z" stroke="white" stroke-width="0.75"/>
<path d="M9.18655 18.2699C9.66868 18.2699 10.0595 17.8694 10.0595 17.3753C10.0595 16.8813 9.66868 16.4808 9.18655 16.4808C8.70443 16.4808 8.3136 16.8813 8.3136 17.3753C8.3136 17.8694 8.70443 18.2699 9.18655 18.2699Z" stroke="white" stroke-width="0.75"/>
<path d="M24.2648 18.27C24.7469 18.27 25.1378 17.8695 25.1378 17.3755C25.1378 16.8814 24.7469 16.481 24.2648 16.481C23.7827 16.481 23.3918 16.8814 23.3918 17.3755C23.3918 17.8695 23.7827 18.27 24.2648 18.27Z" stroke="white" stroke-width="0.75"/>
<path d="M39.3433 18.27C39.8254 18.27 40.2163 17.8695 40.2163 17.3755C40.2163 16.8814 39.8254 16.481 39.3433 16.481C38.8612 16.481 38.4703 16.8814 38.4703 17.3755C38.4703 17.8695 38.8612 18.27 39.3433 18.27Z" stroke="white" stroke-width="0.75"/>
<path d="M54.4215 18.2697C54.9037 18.2697 55.2945 17.8693 55.2945 17.3752C55.2945 16.8812 54.9037 16.4807 54.4215 16.4807C53.9394 16.4807 53.5486 16.8812 53.5486 17.3752C53.5486 17.8693 53.9394 18.2697 54.4215 18.2697Z" stroke="white" stroke-width="0.75"/>
<path d="M69.4999 18.2697C69.982 18.2697 70.3729 17.8693 70.3729 17.3752C70.3729 16.8812 69.982 16.4807 69.4999 16.4807C69.0178 16.4807 68.627 16.8812 68.627 17.3752C68.627 17.8693 69.0178 18.2697 69.4999 18.2697Z" stroke="white" stroke-width="0.75"/>
<path d="M84.5783 18.27C85.0604 18.27 85.4512 17.8695 85.4512 17.3755C85.4512 16.8814 85.0604 16.481 84.5783 16.481C84.0962 16.481 83.7053 16.8814 83.7053 17.3755C83.7053 17.8695 84.0962 18.27 84.5783 18.27Z" stroke="white" stroke-width="0.75"/>
<path d="M99.6567 18.2699C100.139 18.2699 100.53 17.8694 100.53 17.3753C100.53 16.8813 100.139 16.4808 99.6567 16.4808C99.1745 16.4808 98.7837 16.8813 98.7837 17.3753C98.7837 17.8694 99.1745 18.2699 99.6567 18.2699Z" stroke="white" stroke-width="0.75"/>
<path d="M114.735 18.2699C115.217 18.2699 115.608 17.8694 115.608 17.3753C115.608 16.8813 115.217 16.4808 114.735 16.4808C114.253 16.4808 113.862 16.8813 113.862 17.3753C113.862 17.8694 114.253 18.2699 114.735 18.2699Z" stroke="white" stroke-width="0.75"/>
<path d="M129.813 18.2699C130.296 18.2699 130.686 17.8694 130.686 17.3753C130.686 16.8813 130.296 16.4808 129.813 16.4808C129.331 16.4808 128.94 16.8813 128.94 17.3753C128.94 17.8694 129.331 18.2699 129.813 18.2699Z" stroke="white" stroke-width="0.75"/>
<path d="M144.892 18.2699C145.374 18.2699 145.765 17.8694 145.765 17.3753C145.765 16.8813 145.374 16.4808 144.892 16.4808C144.41 16.4808 144.019 16.8813 144.019 17.3753C144.019 17.8694 144.41 18.2699 144.892 18.2699Z" stroke="white" stroke-width="0.75"/>
<path d="M159.97 18.2699C160.452 18.2699 160.843 17.8694 160.843 17.3753C160.843 16.8813 160.452 16.4808 159.97 16.4808C159.488 16.4808 159.097 16.8813 159.097 17.3753C159.097 17.8694 159.488 18.2699 159.97 18.2699Z" stroke="white" stroke-width="0.75"/>
<path d="M175.048 18.2699C175.531 18.2699 175.921 17.8694 175.921 17.3753C175.921 16.8813 175.531 16.4808 175.048 16.4808C174.566 16.4808 174.176 16.8813 174.176 17.3753C174.176 17.8694 174.566 18.2699 175.048 18.2699Z" stroke="white" stroke-width="0.75"/>
<path d="M190.127 18.2699C190.609 18.2699 191 17.8694 191 17.3753C191 16.8813 190.609 16.4808 190.127 16.4808C189.645 16.4808 189.254 16.8813 189.254 17.3753C189.254 17.8694 189.645 18.2699 190.127 18.2699Z" stroke="white" stroke-width="0.75"/>
<path d="M9.18643 34.7507C9.66855 34.7507 10.0594 34.3502 10.0594 33.8562C10.0594 33.3622 9.66855 32.9617 9.18643 32.9617C8.70431 32.9617 8.31348 33.3622 8.31348 33.8562C8.31348 34.3502 8.70431 34.7507 9.18643 34.7507Z" stroke="white" stroke-width="0.75"/>
<path d="M24.2648 34.7507C24.7469 34.7507 25.1378 34.3502 25.1378 33.8562C25.1378 33.3622 24.7469 32.9617 24.2648 32.9617C23.7827 32.9617 23.3918 33.3622 23.3918 33.8562C23.3918 34.3502 23.7827 34.7507 24.2648 34.7507Z" stroke="white" stroke-width="0.75"/>
<path d="M39.3432 34.7507C39.8253 34.7507 40.2161 34.3502 40.2161 33.8562C40.2161 33.3622 39.8253 32.9617 39.3432 32.9617C38.8611 32.9617 38.4702 33.3622 38.4702 33.8562C38.4702 34.3502 38.8611 34.7507 39.3432 34.7507Z" stroke="white" stroke-width="0.75"/>
<path d="M54.4215 34.7506C54.9037 34.7506 55.2945 34.3501 55.2945 33.8561C55.2945 33.362 54.9037 32.9615 54.4215 32.9615C53.9394 32.9615 53.5486 33.362 53.5486 33.8561C53.5486 34.3501 53.9394 34.7506 54.4215 34.7506Z" stroke="white" stroke-width="0.75"/>
<path d="M69.4999 34.7507C69.982 34.7507 70.3729 34.3502 70.3729 33.8562C70.3729 33.3622 69.982 32.9617 69.4999 32.9617C69.0178 32.9617 68.627 33.3622 68.627 33.8562C68.627 34.3502 69.0178 34.7507 69.4999 34.7507Z" stroke="white" stroke-width="0.75"/>
<path d="M84.5783 34.7507C85.0604 34.7507 85.4512 34.3502 85.4512 33.8562C85.4512 33.3622 85.0604 32.9617 84.5783 32.9617C84.0962 32.9617 83.7053 33.3622 83.7053 33.8562C83.7053 34.3502 84.0962 34.7507 84.5783 34.7507Z" stroke="white" stroke-width="0.75"/>
<path d="M99.6567 34.7506C100.139 34.7506 100.53 34.3501 100.53 33.8561C100.53 33.362 100.139 32.9615 99.6567 32.9615C99.1745 32.9615 98.7837 33.362 98.7837 33.8561C98.7837 34.3501 99.1745 34.7506 99.6567 34.7506Z" stroke="white" stroke-width="0.75"/>
<path d="M114.735 34.7506C115.217 34.7506 115.608 34.3501 115.608 33.8561C115.608 33.362 115.217 32.9615 114.735 32.9615C114.253 32.9615 113.862 33.362 113.862 33.8561C113.862 34.3501 114.253 34.7506 114.735 34.7506Z" stroke="white" stroke-width="0.75"/>
<path d="M129.813 34.7508C130.296 34.7508 130.686 34.3503 130.686 33.8563C130.686 33.3623 130.296 32.9618 129.813 32.9618C129.331 32.9618 128.94 33.3623 128.94 33.8563C128.94 34.3503 129.331 34.7508 129.813 34.7508Z" stroke="white" stroke-width="0.75"/>
<path d="M144.892 34.7508C145.374 34.7508 145.765 34.3503 145.765 33.8563C145.765 33.3623 145.374 32.9618 144.892 32.9618C144.41 32.9618 144.019 33.3623 144.019 33.8563C144.019 34.3503 144.41 34.7508 144.892 34.7508Z" stroke="white" stroke-width="0.75"/>
<path d="M159.97 34.7506C160.452 34.7506 160.843 34.3501 160.843 33.8561C160.843 33.362 160.452 32.9615 159.97 32.9615C159.488 32.9615 159.097 33.362 159.097 33.8561C159.097 34.3501 159.488 34.7506 159.97 34.7506Z" stroke="white" stroke-width="0.75"/>
<path d="M175.048 34.7507C175.531 34.7507 175.921 34.3502 175.921 33.8562C175.921 33.3622 175.531 32.9617 175.048 32.9617C174.566 32.9617 174.176 33.3622 174.176 33.8562C174.176 34.3502 174.566 34.7507 175.048 34.7507Z" stroke="white" stroke-width="0.75"/>
<path d="M190.127 34.7507C190.609 34.7507 191 34.3502 191 33.8562C191 33.3622 190.609 32.9617 190.127 32.9617C189.645 32.9617 189.254 33.3622 189.254 33.8562C189.254 34.3502 189.645 34.7507 190.127 34.7507Z" stroke="white" stroke-width="0.75"/>
<path d="M9.18643 51.2313C9.66855 51.2313 10.0594 50.8308 10.0594 50.3368C10.0594 49.8427 9.66855 49.4423 9.18643 49.4423C8.70431 49.4423 8.31348 49.8427 8.31348 50.3368C8.31348 50.8308 8.70431 51.2313 9.18643 51.2313Z" stroke="white" stroke-width="0.75"/>
<path d="M24.2647 51.2313C24.7468 51.2313 25.1376 50.8308 25.1376 50.3368C25.1376 49.8427 24.7468 49.4423 24.2647 49.4423C23.7826 49.4423 23.3917 49.8427 23.3917 50.3368C23.3917 50.8308 23.7826 51.2313 24.2647 51.2313Z" stroke="white" stroke-width="0.75"/>
<path d="M39.3432 51.2313C39.8253 51.2313 40.2161 50.8308 40.2161 50.3368C40.2161 49.8427 39.8253 49.4423 39.3432 49.4423C38.8611 49.4423 38.4702 49.8427 38.4702 50.3368C38.4702 50.8308 38.8611 51.2313 39.3432 51.2313Z" stroke="white" stroke-width="0.75"/>
<path d="M54.4215 51.2315C54.9037 51.2315 55.2945 50.831 55.2945 50.337C55.2945 49.843 54.9037 49.4425 54.4215 49.4425C53.9394 49.4425 53.5486 49.843 53.5486 50.337C53.5486 50.831 53.9394 51.2315 54.4215 51.2315Z" stroke="white" stroke-width="0.75"/>
<path d="M69.4999 51.2314C69.982 51.2314 70.3729 50.8309 70.3729 50.3369C70.3729 49.8429 69.982 49.4424 69.4999 49.4424C69.0178 49.4424 68.627 49.8429 68.627 50.3369C68.627 50.8309 69.0178 51.2314 69.4999 51.2314Z" stroke="white" stroke-width="0.75"/>
<path d="M84.5783 51.2314C85.0604 51.2314 85.4512 50.8309 85.4512 50.3369C85.4512 49.8429 85.0604 49.4424 84.5783 49.4424C84.0962 49.4424 83.7053 49.8429 83.7053 50.3369C83.7053 50.8309 84.0962 51.2314 84.5783 51.2314Z" stroke="white" stroke-width="0.75"/>
<path d="M99.6567 51.2314C100.139 51.2314 100.53 50.8309 100.53 50.3369C100.53 49.8429 100.139 49.4424 99.6567 49.4424C99.1745 49.4424 98.7837 49.8429 98.7837 50.3369C98.7837 50.8309 99.1745 51.2314 99.6567 51.2314Z" stroke="white" stroke-width="0.75"/>
<path d="M114.735 51.2312C115.217 51.2312 115.608 50.8307 115.608 50.3366C115.608 49.8426 115.217 49.4421 114.735 49.4421C114.253 49.4421 113.862 49.8426 113.862 50.3366C113.862 50.8307 114.253 51.2312 114.735 51.2312Z" stroke="white" stroke-width="0.75"/>
<path d="M129.813 51.2314C130.296 51.2314 130.686 50.8309 130.686 50.3369C130.686 49.8429 130.296 49.4424 129.813 49.4424C129.331 49.4424 128.94 49.8429 128.94 50.3369C128.94 50.8309 129.331 51.2314 129.813 51.2314Z" stroke="white" stroke-width="0.75"/>
<path d="M144.892 51.2314C145.374 51.2314 145.765 50.8309 145.765 50.3369C145.765 49.8429 145.374 49.4424 144.892 49.4424C144.41 49.4424 144.019 49.8429 144.019 50.3369C144.019 50.8309 144.41 51.2314 144.892 51.2314Z" stroke="white" stroke-width="0.75"/>
<path d="M159.97 51.2314C160.452 51.2314 160.843 50.8309 160.843 50.3369C160.843 49.8429 160.452 49.4424 159.97 49.4424C159.488 49.4424 159.097 49.8429 159.097 50.3369C159.097 50.8309 159.488 51.2314 159.97 51.2314Z" stroke="white" stroke-width="0.75"/>
<path d="M175.048 51.2313C175.531 51.2313 175.921 50.8308 175.921 50.3368C175.921 49.8427 175.531 49.4423 175.048 49.4423C174.566 49.4423 174.176 49.8427 174.176 50.3368C174.176 50.8308 174.566 51.2313 175.048 51.2313Z" stroke="white" stroke-width="0.75"/>
<path d="M190.127 51.2314C190.609 51.2314 191 50.8309 191 50.3369C191 49.8429 190.609 49.4424 190.127 49.4424C189.645 49.4424 189.254 49.8429 189.254 50.3369C189.254 50.8309 189.645 51.2314 190.127 51.2314Z" stroke="white" stroke-width="0.75"/>
<path d="M9.18643 67.712C9.66855 67.712 10.0594 67.3115 10.0594 66.8175C10.0594 66.3235 9.66855 65.923 9.18643 65.923C8.70431 65.923 8.31348 66.3235 8.31348 66.8175C8.31348 67.3115 8.70431 67.712 9.18643 67.712Z" stroke="white" stroke-width="0.75"/>
<path d="M24.2648 67.7119C24.7469 67.7119 25.1378 67.3114 25.1378 66.8174C25.1378 66.3233 24.7469 65.9229 24.2648 65.9229C23.7827 65.9229 23.3918 66.3233 23.3918 66.8174C23.3918 67.3114 23.7827 67.7119 24.2648 67.7119Z" stroke="white" stroke-width="0.75"/>
<path d="M39.3432 67.7121C39.8253 67.7121 40.2161 67.3116 40.2161 66.8176C40.2161 66.3236 39.8253 65.9231 39.3432 65.9231C38.8611 65.9231 38.4702 66.3236 38.4702 66.8176C38.4702 67.3116 38.8611 67.7121 39.3432 67.7121Z" stroke="white" stroke-width="0.75"/>
<path d="M54.4215 67.7121C54.9037 67.7121 55.2945 67.3116 55.2945 66.8176C55.2945 66.3236 54.9037 65.9231 54.4215 65.9231C53.9394 65.9231 53.5486 66.3236 53.5486 66.8176C53.5486 67.3116 53.9394 67.7121 54.4215 67.7121Z" stroke="white" stroke-width="0.75"/>
<path d="M69.4999 67.7121C69.982 67.7121 70.3729 67.3116 70.3729 66.8176C70.3729 66.3236 69.982 65.9231 69.4999 65.9231C69.0178 65.9231 68.627 66.3236 68.627 66.8176C68.627 67.3116 69.0178 67.7121 69.4999 67.7121Z" stroke="white" stroke-width="0.75"/>
<path d="M84.5783 67.712C85.0604 67.712 85.4512 67.3115 85.4512 66.8175C85.4512 66.3235 85.0604 65.923 84.5783 65.923C84.0962 65.923 83.7053 66.3235 83.7053 66.8175C83.7053 67.3115 84.0962 67.712 84.5783 67.712Z" stroke="white" stroke-width="0.75"/>
<path d="M99.6567 67.7121C100.139 67.7121 100.53 67.3116 100.53 66.8176C100.53 66.3236 100.139 65.9231 99.6567 65.9231C99.1745 65.9231 98.7837 66.3236 98.7837 66.8176C98.7837 67.3116 99.1745 67.7121 99.6567 67.7121Z" stroke="white" stroke-width="0.75"/>
<path d="M114.735 67.7121C115.217 67.7121 115.608 67.3116 115.608 66.8176C115.608 66.3236 115.217 65.9231 114.735 65.9231C114.253 65.9231 113.862 66.3236 113.862 66.8176C113.862 67.3116 114.253 67.7121 114.735 67.7121Z" stroke="white" stroke-width="0.75"/>
<path d="M129.813 67.712C130.296 67.712 130.686 67.3115 130.686 66.8175C130.686 66.3235 130.296 65.923 129.813 65.923C129.331 65.923 128.94 66.3235 128.94 66.8175C128.94 67.3115 129.331 67.712 129.813 67.712Z" stroke="white" stroke-width="0.75"/>
<path d="M144.892 67.712C145.374 67.712 145.765 67.3115 145.765 66.8175C145.765 66.3235 145.374 65.923 144.892 65.923C144.41 65.923 144.019 66.3235 144.019 66.8175C144.019 67.3115 144.41 67.712 144.892 67.712Z" stroke="white" stroke-width="0.75"/>
<path d="M159.97 67.712C160.452 67.712 160.843 67.3115 160.843 66.8175C160.843 66.3235 160.452 65.923 159.97 65.923C159.488 65.923 159.097 66.3235 159.097 66.8175C159.097 67.3115 159.488 67.712 159.97 67.712Z" stroke="white" stroke-width="0.75"/>
<path d="M175.049 67.7121C175.531 67.7121 175.922 67.3116 175.922 66.8176C175.922 66.3236 175.531 65.9231 175.049 65.9231C174.566 65.9231 174.176 66.3236 174.176 66.8176C174.176 67.3116 174.566 67.7121 175.049 67.7121Z" stroke="white" stroke-width="0.75"/>
<path d="M190.127 67.712C190.609 67.712 191 67.3115 191 66.8175C191 66.3235 190.609 65.923 190.127 65.923C189.645 65.923 189.254 66.3235 189.254 66.8175C189.254 67.3115 189.645 67.712 190.127 67.712Z" stroke="white" stroke-width="0.75"/>
<path d="M9.18643 84.193C9.66855 84.193 10.0594 83.7925 10.0594 83.2984C10.0594 82.8044 9.66855 82.4039 9.18643 82.4039C8.70431 82.4039 8.31348 82.8044 8.31348 83.2984C8.31348 83.7925 8.70431 84.193 9.18643 84.193Z" stroke="white" stroke-width="0.75"/>
<path d="M24.2648 84.1928C24.7469 84.1928 25.1378 83.7923 25.1378 83.2983C25.1378 82.8043 24.7469 82.4038 24.2648 82.4038C23.7827 82.4038 23.3918 82.8043 23.3918 83.2983C23.3918 83.7923 23.7827 84.1928 24.2648 84.1928Z" stroke="white" stroke-width="0.75"/>
<path d="M39.3432 84.1928C39.8253 84.1928 40.2161 83.7923 40.2161 83.2983C40.2161 82.8043 39.8253 82.4038 39.3432 82.4038C38.8611 82.4038 38.4702 82.8043 38.4702 83.2983C38.4702 83.7923 38.8611 84.1928 39.3432 84.1928Z" stroke="white" stroke-width="0.75"/>
<path d="M54.4215 84.1928C54.9037 84.1928 55.2945 83.7923 55.2945 83.2983C55.2945 82.8043 54.9037 82.4038 54.4215 82.4038C53.9394 82.4038 53.5486 82.8043 53.5486 83.2983C53.5486 83.7923 53.9394 84.1928 54.4215 84.1928Z" stroke="white" stroke-width="0.75"/>
<path d="M69.4998 84.1927C69.9819 84.1927 70.3728 83.7922 70.3728 83.2982C70.3728 82.8042 69.9819 82.4037 69.4998 82.4037C69.0177 82.4037 68.6268 82.8042 68.6268 83.2982C68.6268 83.7922 69.0177 84.1927 69.4998 84.1927Z" stroke="white" stroke-width="0.75"/>
<path d="M84.5783 84.193C85.0604 84.193 85.4512 83.7925 85.4512 83.2984C85.4512 82.8044 85.0604 82.4039 84.5783 82.4039C84.0962 82.4039 83.7053 82.8044 83.7053 83.2984C83.7053 83.7925 84.0962 84.193 84.5783 84.193Z" stroke="white" stroke-width="0.75"/>
<path d="M99.6567 84.193C100.139 84.193 100.53 83.7925 100.53 83.2984C100.53 82.8044 100.139 82.4039 99.6567 82.4039C99.1745 82.4039 98.7837 82.8044 98.7837 83.2984C98.7837 83.7925 99.1745 84.193 99.6567 84.193Z" stroke="white" stroke-width="0.75"/>
<path d="M114.735 84.193C115.217 84.193 115.608 83.7925 115.608 83.2984C115.608 82.8044 115.217 82.4039 114.735 82.4039C114.253 82.4039 113.862 82.8044 113.862 83.2984C113.862 83.7925 114.253 84.193 114.735 84.193Z" stroke="white" stroke-width="0.75"/>
<path d="M129.813 84.1927C130.296 84.1927 130.686 83.7922 130.686 83.2982C130.686 82.8042 130.296 82.4037 129.813 82.4037C129.331 82.4037 128.94 82.8042 128.94 83.2982C128.94 83.7922 129.331 84.1927 129.813 84.1927Z" stroke="white" stroke-width="0.75"/>
<path d="M144.892 84.1927C145.374 84.1927 145.765 83.7922 145.765 83.2982C145.765 82.8042 145.374 82.4037 144.892 82.4037C144.41 82.4037 144.019 82.8042 144.019 83.2982C144.019 83.7922 144.41 84.1927 144.892 84.1927Z" stroke="white" stroke-width="0.75"/>
<path d="M159.97 84.193C160.452 84.193 160.843 83.7925 160.843 83.2984C160.843 82.8044 160.452 82.4039 159.97 82.4039C159.488 82.4039 159.097 82.8044 159.097 83.2984C159.097 83.7925 159.488 84.193 159.97 84.193Z" stroke="white" stroke-width="0.75"/>
<path d="M175.048 84.193C175.531 84.193 175.921 83.7925 175.921 83.2984C175.921 82.8044 175.531 82.4039 175.048 82.4039C174.566 82.4039 174.176 82.8044 174.176 83.2984C174.176 83.7925 174.566 84.193 175.048 84.193Z" stroke="white" stroke-width="0.75"/>
<path d="M190.127 84.1928C190.609 84.1928 191 83.7923 191 83.2983C191 82.8043 190.609 82.4038 190.127 82.4038C189.645 82.4038 189.254 82.8043 189.254 83.2983C189.254 83.7923 189.645 84.1928 190.127 84.1928Z" stroke="white" stroke-width="0.75"/>
<path d="M9.18643 100.674C9.66855 100.674 10.0594 100.273 10.0594 99.779C10.0594 99.285 9.66855 98.8845 9.18643 98.8845C8.70431 98.8845 8.31348 99.285 8.31348 99.779C8.31348 100.273 8.70431 100.674 9.18643 100.674Z" stroke="white" stroke-width="0.75"/>
<path d="M24.2649 100.674C24.747 100.674 25.1379 100.273 25.1379 99.779C25.1379 99.285 24.747 98.8845 24.2649 98.8845C23.7828 98.8845 23.392 99.285 23.392 99.779C23.392 100.273 23.7828 100.674 24.2649 100.674Z" stroke="white" stroke-width="0.75"/>
<path d="M39.3432 100.673C39.8253 100.673 40.2161 100.273 40.2161 99.7789C40.2161 99.2849 39.8253 98.8844 39.3432 98.8844C38.8611 98.8844 38.4702 99.2849 38.4702 99.7789C38.4702 100.273 38.8611 100.673 39.3432 100.673Z" stroke="white" stroke-width="0.75"/>
<path d="M54.4215 100.673C54.9037 100.673 55.2945 100.273 55.2945 99.7789C55.2945 99.2849 54.9037 98.8844 54.4215 98.8844C53.9394 98.8844 53.5486 99.2849 53.5486 99.7789C53.5486 100.273 53.9394 100.673 54.4215 100.673Z" stroke="white" stroke-width="0.75"/>
<path d="M69.4999 100.674C69.982 100.674 70.3729 100.273 70.3729 99.7792C70.3729 99.2851 69.982 98.8846 69.4999 98.8846C69.0178 98.8846 68.627 99.2851 68.627 99.7792C68.627 100.273 69.0178 100.674 69.4999 100.674Z" stroke="white" stroke-width="0.75"/>
<path d="M84.5783 100.674C85.0604 100.674 85.4512 100.273 85.4512 99.7792C85.4512 99.2851 85.0604 98.8846 84.5783 98.8846C84.0962 98.8846 83.7053 99.2851 83.7053 99.7792C83.7053 100.273 84.0962 100.674 84.5783 100.674Z" stroke="white" stroke-width="0.75"/>
<path d="M99.6567 100.674C100.139 100.674 100.53 100.273 100.53 99.779C100.53 99.285 100.139 98.8845 99.6567 98.8845C99.1745 98.8845 98.7837 99.285 98.7837 99.779C98.7837 100.273 99.1745 100.674 99.6567 100.674Z" stroke="white" stroke-width="0.75"/>
<path d="M114.735 100.674C115.217 100.674 115.608 100.273 115.608 99.779C115.608 99.285 115.217 98.8845 114.735 98.8845C114.253 98.8845 113.862 99.285 113.862 99.779C113.862 100.273 114.253 100.674 114.735 100.674Z" stroke="white" stroke-width="0.75"/>
<path d="M129.813 100.674C130.296 100.674 130.686 100.273 130.686 99.779C130.686 99.285 130.296 98.8845 129.813 98.8845C129.331 98.8845 128.94 99.285 128.94 99.779C128.94 100.273 129.331 100.674 129.813 100.674Z" stroke="white" stroke-width="0.75"/>
<path d="M144.892 100.674C145.374 100.674 145.765 100.273 145.765 99.779C145.765 99.285 145.374 98.8845 144.892 98.8845C144.41 98.8845 144.019 99.285 144.019 99.779C144.019 100.273 144.41 100.674 144.892 100.674Z" stroke="white" stroke-width="0.75"/>
<path d="M159.97 100.674C160.452 100.674 160.843 100.273 160.843 99.779C160.843 99.285 160.452 98.8845 159.97 98.8845C159.488 98.8845 159.097 99.285 159.097 99.779C159.097 100.273 159.488 100.674 159.97 100.674Z" stroke="white" stroke-width="0.75"/>
<path d="M175.048 100.674C175.531 100.674 175.921 100.273 175.921 99.779C175.921 99.285 175.531 98.8845 175.048 98.8845C174.566 98.8845 174.176 99.285 174.176 99.779C174.176 100.273 174.566 100.674 175.048 100.674Z" stroke="white" stroke-width="0.75"/>
<path d="M190.127 100.674C190.609 100.674 191 100.273 191 99.779C191 99.285 190.609 98.8845 190.127 98.8845C189.645 98.8845 189.254 99.285 189.254 99.779C189.254 100.273 189.645 100.674 190.127 100.674Z" stroke="white" stroke-width="0.75"/>
<path d="M9.18643 117.154C9.66855 117.154 10.0594 116.754 10.0594 116.26C10.0594 115.766 9.66855 115.365 9.18643 115.365C8.70431 115.365 8.31348 115.766 8.31348 116.26C8.31348 116.754 8.70431 117.154 9.18643 117.154Z" stroke="white" stroke-width="0.75"/>
<path d="M24.2648 117.154C24.7469 117.154 25.1378 116.754 25.1378 116.26C25.1378 115.766 24.7469 115.365 24.2648 115.365C23.7827 115.365 23.3918 115.766 23.3918 116.26C23.3918 116.754 23.7827 117.154 24.2648 117.154Z" stroke="white" stroke-width="0.75"/>
<path d="M39.3432 117.154C39.8253 117.154 40.2161 116.754 40.2161 116.26C40.2161 115.766 39.8253 115.365 39.3432 115.365C38.8611 115.365 38.4702 115.766 38.4702 116.26C38.4702 116.754 38.8611 117.154 39.3432 117.154Z" stroke="white" stroke-width="0.75"/>
<path d="M54.4215 117.154C54.9037 117.154 55.2945 116.754 55.2945 116.26C55.2945 115.766 54.9037 115.365 54.4215 115.365C53.9394 115.365 53.5486 115.766 53.5486 116.26C53.5486 116.754 53.9394 117.154 54.4215 117.154Z" stroke="white" stroke-width="0.75"/>
<path d="M69.4999 117.154C69.982 117.154 70.3729 116.754 70.3729 116.26C70.3729 115.766 69.982 115.365 69.4999 115.365C69.0178 115.365 68.627 115.766 68.627 116.26C68.627 116.754 69.0178 117.154 69.4999 117.154Z" stroke="white" stroke-width="0.75"/>
<path d="M84.5783 117.154C85.0604 117.154 85.4512 116.754 85.4512 116.26C85.4512 115.766 85.0604 115.365 84.5783 115.365C84.0962 115.365 83.7053 115.766 83.7053 116.26C83.7053 116.754 84.0962 117.154 84.5783 117.154Z" stroke="white" stroke-width="0.75"/>
<path d="M99.6567 117.154C100.139 117.154 100.53 116.754 100.53 116.26C100.53 115.766 100.139 115.365 99.6567 115.365C99.1745 115.365 98.7837 115.766 98.7837 116.26C98.7837 116.754 99.1745 117.154 99.6567 117.154Z" stroke="white" stroke-width="0.75"/>
<path d="M114.735 117.154C115.217 117.154 115.608 116.754 115.608 116.26C115.608 115.766 115.217 115.365 114.735 115.365C114.253 115.365 113.862 115.766 113.862 116.26C113.862 116.754 114.253 117.154 114.735 117.154Z" stroke="white" stroke-width="0.75"/>
<path d="M129.813 117.154C130.296 117.154 130.686 116.754 130.686 116.26C130.686 115.766 130.296 115.365 129.813 115.365C129.331 115.365 128.94 115.766 128.94 116.26C128.94 116.754 129.331 117.154 129.813 117.154Z" stroke="white" stroke-width="0.75"/>
<path d="M144.892 117.154C145.374 117.154 145.765 116.754 145.765 116.26C145.765 115.766 145.374 115.365 144.892 115.365C144.41 115.365 144.019 115.766 144.019 116.26C144.019 116.754 144.41 117.154 144.892 117.154Z" stroke="white" stroke-width="0.75"/>
<path d="M159.97 117.154C160.452 117.154 160.843 116.754 160.843 116.26C160.843 115.766 160.452 115.365 159.97 115.365C159.488 115.365 159.097 115.766 159.097 116.26C159.097 116.754 159.488 117.154 159.97 117.154Z" stroke="white" stroke-width="0.75"/>
<path d="M175.048 117.154C175.531 117.154 175.921 116.754 175.921 116.26C175.921 115.766 175.531 115.365 175.048 115.365C174.566 115.365 174.176 115.766 174.176 116.26C174.176 116.754 174.566 117.154 175.048 117.154Z" stroke="white" stroke-width="0.75"/>
<path d="M190.127 117.154C190.609 117.154 191 116.754 191 116.26C191 115.766 190.609 115.365 190.127 115.365C189.645 115.365 189.254 115.766 189.254 116.26C189.254 116.754 189.645 117.154 190.127 117.154Z" stroke="white" stroke-width="0.75"/>
<path d="M9.18643 133.635C9.66855 133.635 10.0594 133.234 10.0594 132.74C10.0594 132.246 9.66855 131.846 9.18643 131.846C8.70431 131.846 8.31348 132.246 8.31348 132.74C8.31348 133.234 8.70431 133.635 9.18643 133.635Z" stroke="white" stroke-width="0.75"/>
<path d="M24.2649 133.635C24.747 133.635 25.1379 133.235 25.1379 132.741C25.1379 132.247 24.747 131.846 24.2649 131.846C23.7828 131.846 23.392 132.247 23.392 132.741C23.392 133.235 23.7828 133.635 24.2649 133.635Z" stroke="white" stroke-width="0.75"/>
<path d="M39.3433 133.635C39.8254 133.635 40.2163 133.235 40.2163 132.741C40.2163 132.247 39.8254 131.846 39.3433 131.846C38.8612 131.846 38.4703 132.247 38.4703 132.741C38.4703 133.235 38.8612 133.635 39.3433 133.635Z" stroke="white" stroke-width="0.75"/>
<path d="M54.4215 133.635C54.9037 133.635 55.2945 133.234 55.2945 132.74C55.2945 132.246 54.9037 131.846 54.4215 131.846C53.9394 131.846 53.5486 132.246 53.5486 132.74C53.5486 133.234 53.9394 133.635 54.4215 133.635Z" stroke="white" stroke-width="0.75"/>
<path d="M69.5 133.635C69.9822 133.635 70.373 133.234 70.373 132.74C70.373 132.246 69.9822 131.846 69.5 131.846C69.0179 131.846 68.6271 132.246 68.6271 132.74C68.6271 133.234 69.0179 133.635 69.5 133.635Z" stroke="white" stroke-width="0.75"/>
<path d="M84.5783 133.635C85.0604 133.635 85.4512 133.234 85.4512 132.74C85.4512 132.246 85.0604 131.846 84.5783 131.846C84.0962 131.846 83.7053 132.246 83.7053 132.74C83.7053 133.234 84.0962 133.635 84.5783 133.635Z" stroke="white" stroke-width="0.75"/>
<path d="M99.6567 133.635C100.139 133.635 100.53 133.234 100.53 132.74C100.53 132.246 100.139 131.846 99.6567 131.846C99.1745 131.846 98.7837 132.246 98.7837 132.74C98.7837 133.234 99.1745 133.635 99.6567 133.635Z" stroke="white" stroke-width="0.75"/>
<path d="M114.735 133.635C115.217 133.635 115.608 133.235 115.608 132.741C115.608 132.247 115.217 131.846 114.735 131.846C114.253 131.846 113.862 132.247 113.862 132.741C113.862 133.235 114.253 133.635 114.735 133.635Z" stroke="white" stroke-width="0.75"/>
<path d="M129.813 133.635C130.296 133.635 130.686 133.235 130.686 132.741C130.686 132.247 130.296 131.846 129.813 131.846C129.331 131.846 128.94 132.247 128.94 132.741C128.94 133.235 129.331 133.635 129.813 133.635Z" stroke="white" stroke-width="0.75"/>
<path d="M144.892 133.635C145.374 133.635 145.765 133.235 145.765 132.741C145.765 132.247 145.374 131.846 144.892 131.846C144.41 131.846 144.019 132.247 144.019 132.741C144.019 133.235 144.41 133.635 144.892 133.635Z" stroke="white" stroke-width="0.75"/>
<path d="M159.97 133.635C160.452 133.635 160.843 133.234 160.843 132.74C160.843 132.246 160.452 131.846 159.97 131.846C159.488 131.846 159.097 132.246 159.097 132.74C159.097 133.234 159.488 133.635 159.97 133.635Z" stroke="white" stroke-width="0.75"/>
<path d="M175.048 133.635C175.531 133.635 175.921 133.234 175.921 132.74C175.921 132.246 175.531 131.846 175.048 131.846C174.566 131.846 174.176 132.246 174.176 132.74C174.176 133.234 174.566 133.635 175.048 133.635Z" stroke="white" stroke-width="0.75"/>
<path d="M190.127 133.635C190.609 133.635 191 133.235 191 132.741C191 132.247 190.609 131.846 190.127 131.846C189.645 131.846 189.254 132.247 189.254 132.741C189.254 133.235 189.645 133.635 190.127 133.635Z" stroke="white" stroke-width="0.75"/>
<path d="M9.18643 150.116C9.66855 150.116 10.0594 149.715 10.0594 149.221C10.0594 148.727 9.66855 148.327 9.18643 148.327C8.70431 148.327 8.31348 148.727 8.31348 149.221C8.31348 149.715 8.70431 150.116 9.18643 150.116Z" stroke="white" stroke-width="0.75"/>
<path d="M24.2648 150.116C24.7469 150.116 25.1378 149.715 25.1378 149.221C25.1378 148.727 24.7469 148.327 24.2648 148.327C23.7827 148.327 23.3918 148.727 23.3918 149.221C23.3918 149.715 23.7827 150.116 24.2648 150.116Z" stroke="white" stroke-width="0.75"/>
<path d="M39.3432 150.116C39.8253 150.116 40.2161 149.715 40.2161 149.221C40.2161 148.727 39.8253 148.327 39.3432 148.327C38.8611 148.327 38.4702 148.727 38.4702 149.221C38.4702 149.715 38.8611 150.116 39.3432 150.116Z" stroke="white" stroke-width="0.75"/>
<path d="M54.4215 150.116C54.9037 150.116 55.2945 149.715 55.2945 149.221C55.2945 148.727 54.9037 148.327 54.4215 148.327C53.9394 148.327 53.5486 148.727 53.5486 149.221C53.5486 149.715 53.9394 150.116 54.4215 150.116Z" stroke="white" stroke-width="0.75"/>
<path d="M69.4998 150.116C69.9819 150.116 70.3728 149.715 70.3728 149.221C70.3728 148.727 69.9819 148.327 69.4998 148.327C69.0177 148.327 68.6268 148.727 68.6268 149.221C68.6268 149.715 69.0177 150.116 69.4998 150.116Z" stroke="white" stroke-width="0.75"/>
<path d="M84.5783 150.116C85.0604 150.116 85.4512 149.715 85.4512 149.221C85.4512 148.727 85.0604 148.327 84.5783 148.327C84.0962 148.327 83.7053 148.727 83.7053 149.221C83.7053 149.715 84.0962 150.116 84.5783 150.116Z" stroke="white" stroke-width="0.75"/>
<path d="M99.6567 150.116C100.139 150.116 100.53 149.715 100.53 149.221C100.53 148.727 100.139 148.327 99.6567 148.327C99.1745 148.327 98.7837 148.727 98.7837 149.221C98.7837 149.715 99.1745 150.116 99.6567 150.116Z" stroke="white" stroke-width="0.75"/>
<path d="M114.735 150.116C115.217 150.116 115.608 149.715 115.608 149.221C115.608 148.727 115.217 148.327 114.735 148.327C114.253 148.327 113.862 148.727 113.862 149.221C113.862 149.715 114.253 150.116 114.735 150.116Z" stroke="white" stroke-width="0.75"/>
<path d="M129.814 150.116C130.296 150.116 130.686 149.715 130.686 149.221C130.686 148.727 130.296 148.327 129.814 148.327C129.331 148.327 128.941 148.727 128.941 149.221C128.941 149.715 129.331 150.116 129.814 150.116Z" stroke="white" stroke-width="0.75"/>
<path d="M144.892 150.116C145.374 150.116 145.765 149.715 145.765 149.221C145.765 148.727 145.374 148.327 144.892 148.327C144.41 148.327 144.019 148.727 144.019 149.221C144.019 149.715 144.41 150.116 144.892 150.116Z" stroke="white" stroke-width="0.75"/>
<path d="M159.97 150.116C160.452 150.116 160.843 149.715 160.843 149.221C160.843 148.727 160.452 148.327 159.97 148.327C159.488 148.327 159.097 148.727 159.097 149.221C159.097 149.715 159.488 150.116 159.97 150.116Z" stroke="white" stroke-width="0.75"/>
<path d="M175.048 150.116C175.531 150.116 175.921 149.715 175.921 149.221C175.921 148.727 175.531 148.327 175.048 148.327C174.566 148.327 174.176 148.727 174.176 149.221C174.176 149.715 174.566 150.116 175.048 150.116Z" stroke="white" stroke-width="0.75"/>
<path d="M190.127 150.116C190.609 150.116 191 149.715 191 149.221C191 148.727 190.609 148.327 190.127 148.327C189.645 148.327 189.254 148.727 189.254 149.221C189.254 149.715 189.645 150.116 190.127 150.116Z" stroke="white" stroke-width="0.75"/>
<path d="M9.18655 166.596C9.66868 166.596 10.0595 166.196 10.0595 165.702C10.0595 165.208 9.66868 164.807 9.18655 164.807C8.70443 164.807 8.3136 165.208 8.3136 165.702C8.3136 166.196 8.70443 166.596 9.18655 166.596Z" stroke="white" stroke-width="0.75"/>
<path d="M24.2648 166.596C24.7469 166.596 25.1378 166.196 25.1378 165.702C25.1378 165.208 24.7469 164.807 24.2648 164.807C23.7827 164.807 23.3918 165.208 23.3918 165.702C23.3918 166.196 23.7827 166.596 24.2648 166.596Z" stroke="white" stroke-width="0.75"/>
<path d="M39.3432 166.596C39.8253 166.596 40.2161 166.196 40.2161 165.702C40.2161 165.208 39.8253 164.807 39.3432 164.807C38.8611 164.807 38.4702 165.208 38.4702 165.702C38.4702 166.196 38.8611 166.596 39.3432 166.596Z" stroke="white" stroke-width="0.75"/>
<path d="M54.4215 166.596C54.9037 166.596 55.2945 166.196 55.2945 165.702C55.2945 165.208 54.9037 164.807 54.4215 164.807C53.9394 164.807 53.5486 165.208 53.5486 165.702C53.5486 166.196 53.9394 166.596 54.4215 166.596Z" stroke="white" stroke-width="0.75"/>
<path d="M69.5 166.597C69.9822 166.597 70.373 166.196 70.373 165.702C70.373 165.208 69.9822 164.807 69.5 164.807C69.0179 164.807 68.6271 165.208 68.6271 165.702C68.6271 166.196 69.0179 166.597 69.5 166.597Z" stroke="white" stroke-width="0.75"/>
<path d="M84.5783 166.596C85.0604 166.596 85.4512 166.196 85.4512 165.702C85.4512 165.208 85.0604 164.807 84.5783 164.807C84.0962 164.807 83.7053 165.208 83.7053 165.702C83.7053 166.196 84.0962 166.596 84.5783 166.596Z" stroke="white" stroke-width="0.75"/>
<path d="M99.6567 166.596C100.139 166.596 100.53 166.196 100.53 165.702C100.53 165.208 100.139 164.807 99.6567 164.807C99.1745 164.807 98.7837 165.208 98.7837 165.702C98.7837 166.196 99.1745 166.596 99.6567 166.596Z" stroke="white" stroke-width="0.75"/>
<path d="M114.735 166.596C115.217 166.596 115.608 166.196 115.608 165.702C115.608 165.208 115.217 164.807 114.735 164.807C114.253 164.807 113.862 165.208 113.862 165.702C113.862 166.196 114.253 166.596 114.735 166.596Z" stroke="white" stroke-width="0.75"/>
<path d="M129.813 166.596C130.296 166.596 130.686 166.196 130.686 165.702C130.686 165.208 130.296 164.807 129.813 164.807C129.331 164.807 128.94 165.208 128.94 165.702C128.94 166.196 129.331 166.596 129.813 166.596Z" stroke="white" stroke-width="0.75"/>
<path d="M144.892 166.596C145.374 166.596 145.765 166.196 145.765 165.702C145.765 165.208 145.374 164.807 144.892 164.807C144.41 164.807 144.019 165.208 144.019 165.702C144.019 166.196 144.41 166.596 144.892 166.596Z" stroke="white" stroke-width="0.75"/>
<path d="M159.97 166.596C160.452 166.596 160.843 166.196 160.843 165.702C160.843 165.208 160.452 164.807 159.97 164.807C159.488 164.807 159.097 165.208 159.097 165.702C159.097 166.196 159.488 166.596 159.97 166.596Z" stroke="white" stroke-width="0.75"/>
<path d="M175.048 166.596C175.531 166.596 175.921 166.196 175.921 165.702C175.921 165.208 175.531 164.807 175.048 164.807C174.566 164.807 174.176 165.208 174.176 165.702C174.176 166.196 174.566 166.596 175.048 166.596Z" stroke="white" stroke-width="0.75"/>
<path d="M190.127 166.596C190.609 166.596 191 166.196 191 165.702C191 165.208 190.609 164.807 190.127 164.807C189.645 164.807 189.254 165.208 189.254 165.702C189.254 166.196 189.645 166.596 190.127 166.596Z" stroke="white" stroke-width="0.75"/>
<path d="M9.18643 183.077C9.66855 183.077 10.0594 182.677 10.0594 182.183C10.0594 181.689 9.66855 181.288 9.18643 181.288C8.70431 181.288 8.31348 181.689 8.31348 182.183C8.31348 182.677 8.70431 183.077 9.18643 183.077Z" stroke="white" stroke-width="0.75"/>
<path d="M24.2648 183.077C24.7469 183.077 25.1378 182.677 25.1378 182.183C25.1378 181.689 24.7469 181.288 24.2648 181.288C23.7827 181.288 23.3918 181.689 23.3918 182.183C23.3918 182.677 23.7827 183.077 24.2648 183.077Z" stroke="white" stroke-width="0.75"/>
<path d="M39.3432 183.077C39.8253 183.077 40.2161 182.676 40.2161 182.182C40.2161 181.688 39.8253 181.288 39.3432 181.288C38.8611 181.288 38.4702 181.688 38.4702 182.182C38.4702 182.676 38.8611 183.077 39.3432 183.077Z" stroke="white" stroke-width="0.75"/>
<path d="M54.4215 183.077C54.9037 183.077 55.2945 182.677 55.2945 182.182C55.2945 181.688 54.9037 181.288 54.4215 181.288C53.9394 181.288 53.5486 181.688 53.5486 182.182C53.5486 182.677 53.9394 183.077 54.4215 183.077Z" stroke="white" stroke-width="0.75"/>
<path d="M69.4999 183.077C69.982 183.077 70.3729 182.677 70.3729 182.183C70.3729 181.689 69.982 181.288 69.4999 181.288C69.0178 181.288 68.627 181.689 68.627 182.183C68.627 182.677 69.0178 183.077 69.4999 183.077Z" stroke="white" stroke-width="0.75"/>
<path d="M84.5783 183.077C85.0604 183.077 85.4512 182.677 85.4512 182.183C85.4512 181.689 85.0604 181.288 84.5783 181.288C84.0962 181.288 83.7053 181.689 83.7053 182.183C83.7053 182.677 84.0962 183.077 84.5783 183.077Z" stroke="white" stroke-width="0.75"/>
<path d="M99.6567 183.077C100.139 183.077 100.53 182.677 100.53 182.182C100.53 181.688 100.139 181.288 99.6567 181.288C99.1745 181.288 98.7837 181.688 98.7837 182.182C98.7837 182.677 99.1745 183.077 99.6567 183.077Z" stroke="white" stroke-width="0.75"/>
<path d="M114.735 183.077C115.217 183.077 115.608 182.677 115.608 182.182C115.608 181.688 115.217 181.288 114.735 181.288C114.253 181.288 113.862 181.688 113.862 182.182C113.862 182.677 114.253 183.077 114.735 183.077Z" stroke="white" stroke-width="0.75"/>
<path d="M129.814 183.077C130.296 183.077 130.686 182.677 130.686 182.183C130.686 181.689 130.296 181.288 129.814 181.288C129.331 181.288 128.941 181.689 128.941 182.183C128.941 182.677 129.331 183.077 129.814 183.077Z" stroke="white" stroke-width="0.75"/>
<path d="M144.892 183.077C145.374 183.077 145.765 182.677 145.765 182.183C145.765 181.689 145.374 181.288 144.892 181.288C144.41 181.288 144.019 181.689 144.019 182.183C144.019 182.677 144.41 183.077 144.892 183.077Z" stroke="white" stroke-width="0.75"/>
<path d="M159.97 183.077C160.452 183.077 160.843 182.677 160.843 182.182C160.843 181.688 160.452 181.288 159.97 181.288C159.488 181.288 159.097 181.688 159.097 182.182C159.097 182.677 159.488 183.077 159.97 183.077Z" stroke="white" stroke-width="0.75"/>
<path d="M175.049 183.077C175.531 183.077 175.922 182.677 175.922 182.182C175.922 181.688 175.531 181.288 175.049 181.288C174.566 181.288 174.176 181.688 174.176 182.182C174.176 182.677 174.566 183.077 175.049 183.077Z" stroke="white" stroke-width="0.75"/>
<path d="M190.127 183.077C190.609 183.077 191 182.677 191 182.183C191 181.689 190.609 181.288 190.127 181.288C189.645 181.288 189.254 181.689 189.254 182.183C189.254 182.677 189.645 183.077 190.127 183.077Z" stroke="white" stroke-width="0.75"/>
<path d="M9.18643 199.558C9.66855 199.558 10.0594 199.157 10.0594 198.663C10.0594 198.169 9.66855 197.769 9.18643 197.769C8.70431 197.769 8.31348 198.169 8.31348 198.663C8.31348 199.157 8.70431 199.558 9.18643 199.558Z" stroke="white" stroke-width="0.75"/>
<path d="M24.2649 199.558C24.747 199.558 25.1379 199.157 25.1379 198.663C25.1379 198.169 24.747 197.769 24.2649 197.769C23.7828 197.769 23.392 198.169 23.392 198.663C23.392 199.157 23.7828 199.558 24.2649 199.558Z" stroke="white" stroke-width="0.75"/>
<path d="M39.3431 199.558C39.8252 199.558 40.216 199.157 40.216 198.663C40.216 198.169 39.8252 197.769 39.3431 197.769C38.8609 197.769 38.4701 198.169 38.4701 198.663C38.4701 199.157 38.8609 199.558 39.3431 199.558Z" stroke="white" stroke-width="0.75"/>
<path d="M54.4215 199.558C54.9037 199.558 55.2945 199.157 55.2945 198.663C55.2945 198.169 54.9037 197.769 54.4215 197.769C53.9394 197.769 53.5486 198.169 53.5486 198.663C53.5486 199.157 53.9394 199.558 54.4215 199.558Z" stroke="white" stroke-width="0.75"/>
<path d="M69.4998 199.558C69.9819 199.558 70.3728 199.157 70.3728 198.663C70.3728 198.169 69.9819 197.769 69.4998 197.769C69.0177 197.769 68.6268 198.169 68.6268 198.663C68.6268 199.157 69.0177 199.558 69.4998 199.558Z" stroke="white" stroke-width="0.75"/>
<path d="M84.5783 199.558C85.0604 199.558 85.4512 199.157 85.4512 198.663C85.4512 198.169 85.0604 197.769 84.5783 197.769C84.0962 197.769 83.7053 198.169 83.7053 198.663C83.7053 199.157 84.0962 199.558 84.5783 199.558Z" stroke="white" stroke-width="0.75"/>
<path d="M99.6567 199.558C100.139 199.558 100.53 199.157 100.53 198.663C100.53 198.169 100.139 197.769 99.6567 197.769C99.1745 197.769 98.7837 198.169 98.7837 198.663C98.7837 199.157 99.1745 199.558 99.6567 199.558Z" stroke="white" stroke-width="0.75"/>
<path d="M114.735 199.558C115.217 199.558 115.608 199.157 115.608 198.663C115.608 198.169 115.217 197.769 114.735 197.769C114.253 197.769 113.862 198.169 113.862 198.663C113.862 199.157 114.253 199.558 114.735 199.558Z" stroke="white" stroke-width="0.75"/>
<path d="M129.814 199.558C130.296 199.558 130.686 199.157 130.686 198.663C130.686 198.169 130.296 197.769 129.814 197.769C129.331 197.769 128.941 198.169 128.941 198.663C128.941 199.157 129.331 199.558 129.814 199.558Z" stroke="white" stroke-width="0.75"/>
<path d="M144.892 199.558C145.374 199.558 145.765 199.157 145.765 198.663C145.765 198.169 145.374 197.769 144.892 197.769C144.41 197.769 144.019 198.169 144.019 198.663C144.019 199.157 144.41 199.558 144.892 199.558Z" stroke="white" stroke-width="0.75"/>
<path d="M159.97 199.558C160.452 199.558 160.843 199.157 160.843 198.663C160.843 198.169 160.452 197.769 159.97 197.769C159.488 197.769 159.097 198.169 159.097 198.663C159.097 199.157 159.488 199.558 159.97 199.558Z" stroke="white" stroke-width="0.75"/>
<path d="M175.048 199.558C175.531 199.558 175.921 199.157 175.921 198.663C175.921 198.169 175.531 197.769 175.048 197.769C174.566 197.769 174.176 198.169 174.176 198.663C174.176 199.157 174.566 199.558 175.048 199.558Z" stroke="white" stroke-width="0.75"/>
<path d="M190.127 199.558C190.609 199.558 191 199.157 191 198.663C191 198.169 190.609 197.769 190.127 197.769C189.645 197.769 189.254 198.169 189.254 198.663C189.254 199.157 189.645 199.558 190.127 199.558Z" stroke="white" stroke-width="0.75"/>
<path d="M9.18643 216.038C9.66855 216.038 10.0594 215.638 10.0594 215.144C10.0594 214.65 9.66855 214.249 9.18643 214.249C8.70431 214.249 8.31348 214.65 8.31348 215.144C8.31348 215.638 8.70431 216.038 9.18643 216.038Z" stroke="white" stroke-width="0.75"/>
<path d="M24.2648 216.039C24.7469 216.039 25.1378 215.638 25.1378 215.144C25.1378 214.65 24.7469 214.25 24.2648 214.25C23.7827 214.25 23.3918 214.65 23.3918 215.144C23.3918 215.638 23.7827 216.039 24.2648 216.039Z" stroke="white" stroke-width="0.75"/>
<path d="M39.3432 216.039C39.8253 216.039 40.2161 215.638 40.2161 215.144C40.2161 214.65 39.8253 214.25 39.3432 214.25C38.8611 214.25 38.4702 214.65 38.4702 215.144C38.4702 215.638 38.8611 216.039 39.3432 216.039Z" stroke="white" stroke-width="0.75"/>
<path d="M54.4215 216.039C54.9037 216.039 55.2945 215.638 55.2945 215.144C55.2945 214.65 54.9037 214.25 54.4215 214.25C53.9394 214.25 53.5486 214.65 53.5486 215.144C53.5486 215.638 53.9394 216.039 54.4215 216.039Z" stroke="white" stroke-width="0.75"/>
<path d="M69.4999 216.039C69.982 216.039 70.3729 215.638 70.3729 215.144C70.3729 214.65 69.982 214.25 69.4999 214.25C69.0178 214.25 68.627 214.65 68.627 215.144C68.627 215.638 69.0178 216.039 69.4999 216.039Z" stroke="white" stroke-width="0.75"/>
<path d="M84.5783 216.039C85.0604 216.039 85.4512 215.638 85.4512 215.144C85.4512 214.65 85.0604 214.25 84.5783 214.25C84.0962 214.25 83.7053 214.65 83.7053 215.144C83.7053 215.638 84.0962 216.039 84.5783 216.039Z" stroke="white" stroke-width="0.75"/>
<path d="M99.6567 216.039C100.139 216.039 100.53 215.638 100.53 215.144C100.53 214.65 100.139 214.25 99.6567 214.25C99.1745 214.25 98.7837 214.65 98.7837 215.144C98.7837 215.638 99.1745 216.039 99.6567 216.039Z" stroke="white" stroke-width="0.75"/>
<path d="M114.735 216.039C115.217 216.039 115.608 215.638 115.608 215.144C115.608 214.65 115.217 214.25 114.735 214.25C114.253 214.25 113.862 214.65 113.862 215.144C113.862 215.638 114.253 216.039 114.735 216.039Z" stroke="white" stroke-width="0.75"/>
<path d="M129.813 216.039C130.296 216.039 130.686 215.638 130.686 215.144C130.686 214.65 130.296 214.25 129.813 214.25C129.331 214.25 128.94 214.65 128.94 215.144C128.94 215.638 129.331 216.039 129.813 216.039Z" stroke="white" stroke-width="0.75"/>
<path d="M144.892 216.039C145.374 216.039 145.765 215.638 145.765 215.144C145.765 214.65 145.374 214.25 144.892 214.25C144.41 214.25 144.019 214.65 144.019 215.144C144.019 215.638 144.41 216.039 144.892 216.039Z" stroke="white" stroke-width="0.75"/>
<path d="M159.97 216.038C160.452 216.038 160.843 215.638 160.843 215.144C160.843 214.65 160.452 214.249 159.97 214.249C159.488 214.249 159.097 214.65 159.097 215.144C159.097 215.638 159.488 216.038 159.97 216.038Z" stroke="white" stroke-width="0.75"/>
<path d="M175.049 216.039C175.531 216.039 175.922 215.638 175.922 215.144C175.922 214.65 175.531 214.25 175.049 214.25C174.566 214.25 174.176 214.65 174.176 215.144C174.176 215.638 174.566 216.039 175.049 216.039Z" stroke="white" stroke-width="0.75"/>
<path d="M190.127 216.039C190.609 216.039 191 215.638 191 215.144C191 214.65 190.609 214.25 190.127 214.25C189.645 214.25 189.254 214.65 189.254 215.144C189.254 215.638 189.645 216.039 190.127 216.039Z" stroke="white" stroke-width="0.75"/>
<path d="M9.18655 232.519C9.66868 232.519 10.0595 232.119 10.0595 231.625C10.0595 231.131 9.66868 230.73 9.18655 230.73C8.70443 230.73 8.3136 231.131 8.3136 231.625C8.3136 232.119 8.70443 232.519 9.18655 232.519Z" stroke="white" stroke-width="0.75"/>
<path d="M24.2648 232.519C24.7469 232.519 25.1378 232.119 25.1378 231.625C25.1378 231.131 24.7469 230.73 24.2648 230.73C23.7827 230.73 23.3918 231.131 23.3918 231.625C23.3918 232.119 23.7827 232.519 24.2648 232.519Z" stroke="white" stroke-width="0.75"/>
<path d="M39.3432 232.519C39.8253 232.519 40.2161 232.119 40.2161 231.625C40.2161 231.131 39.8253 230.73 39.3432 230.73C38.8611 230.73 38.4702 231.131 38.4702 231.625C38.4702 232.119 38.8611 232.519 39.3432 232.519Z" stroke="white" stroke-width="0.75"/>
<path d="M54.4215 232.519C54.9037 232.519 55.2945 232.119 55.2945 231.625C55.2945 231.131 54.9037 230.73 54.4215 230.73C53.9394 230.73 53.5486 231.131 53.5486 231.625C53.5486 232.119 53.9394 232.519 54.4215 232.519Z" stroke="white" stroke-width="0.75"/>
<path d="M69.4999 232.519C69.982 232.519 70.3729 232.119 70.3729 231.625C70.3729 231.13 69.982 230.73 69.4999 230.73C69.0178 230.73 68.627 231.13 68.627 231.625C68.627 232.119 69.0178 232.519 69.4999 232.519Z" stroke="white" stroke-width="0.75"/>
<path d="M84.5783 232.519C85.0604 232.519 85.4512 232.119 85.4512 231.625C85.4512 231.131 85.0604 230.73 84.5783 230.73C84.0962 230.73 83.7053 231.131 83.7053 231.625C83.7053 232.119 84.0962 232.519 84.5783 232.519Z" stroke="white" stroke-width="0.75"/>
<path d="M99.6567 232.519C100.139 232.519 100.53 232.119 100.53 231.625C100.53 231.131 100.139 230.73 99.6567 230.73C99.1745 230.73 98.7837 231.131 98.7837 231.625C98.7837 232.119 99.1745 232.519 99.6567 232.519Z" stroke="white" stroke-width="0.75"/>
<path d="M114.735 232.519C115.217 232.519 115.608 232.119 115.608 231.625C115.608 231.131 115.217 230.73 114.735 230.73C114.253 230.73 113.862 231.131 113.862 231.625C113.862 232.119 114.253 232.519 114.735 232.519Z" stroke="white" stroke-width="0.75"/>
<path d="M129.813 232.519C130.296 232.519 130.686 232.119 130.686 231.625C130.686 231.131 130.296 230.73 129.813 230.73C129.331 230.73 128.94 231.131 128.94 231.625C128.94 232.119 129.331 232.519 129.813 232.519Z" stroke="white" stroke-width="0.75"/>
<path d="M144.892 232.519C145.374 232.519 145.765 232.119 145.765 231.625C145.765 231.131 145.374 230.73 144.892 230.73C144.41 230.73 144.019 231.131 144.019 231.625C144.019 232.119 144.41 232.519 144.892 232.519Z" stroke="white" stroke-width="0.75"/>
<path d="M159.97 232.519C160.452 232.519 160.843 232.119 160.843 231.625C160.843 231.131 160.452 230.73 159.97 230.73C159.488 230.73 159.097 231.131 159.097 231.625C159.097 232.119 159.488 232.519 159.97 232.519Z" stroke="white" stroke-width="0.75"/>
<path d="M175.049 232.519C175.531 232.519 175.922 232.119 175.922 231.625C175.922 231.131 175.531 230.73 175.049 230.73C174.566 230.73 174.176 231.131 174.176 231.625C174.176 232.119 174.566 232.519 175.049 232.519Z" stroke="white" stroke-width="0.75"/>
<path d="M190.127 232.519C190.609 232.519 191 232.119 191 231.625C191 231.131 190.609 230.73 190.127 230.73C189.645 230.73 189.254 231.131 189.254 231.625C189.254 232.119 189.645 232.519 190.127 232.519Z" stroke="white" stroke-width="0.75"/>
<path d="M9.18643 249C9.66855 249 10.0594 248.599 10.0594 248.105C10.0594 247.611 9.66855 247.211 9.18643 247.211C8.70431 247.211 8.31348 247.611 8.31348 248.105C8.31348 248.599 8.70431 249 9.18643 249Z" stroke="white" stroke-width="0.75"/>
<path d="M24.2648 249C24.7469 249 25.1378 248.599 25.1378 248.105C25.1378 247.611 24.7469 247.211 24.2648 247.211C23.7827 247.211 23.3918 247.611 23.3918 248.105C23.3918 248.599 23.7827 249 24.2648 249Z" stroke="white" stroke-width="0.75"/>
<path d="M39.3431 249C39.8252 249 40.216 248.599 40.216 248.105C40.216 247.611 39.8252 247.211 39.3431 247.211C38.8609 247.211 38.4701 247.611 38.4701 248.105C38.4701 248.599 38.8609 249 39.3431 249Z" stroke="white" stroke-width="0.75"/>
<path d="M54.4215 249C54.9037 249 55.2945 248.599 55.2945 248.105C55.2945 247.611 54.9037 247.211 54.4215 247.211C53.9394 247.211 53.5486 247.611 53.5486 248.105C53.5486 248.599 53.9394 249 54.4215 249Z" stroke="white" stroke-width="0.75"/>
<path d="M69.4999 249C69.982 249 70.3729 248.599 70.3729 248.105C70.3729 247.611 69.982 247.211 69.4999 247.211C69.0178 247.211 68.627 247.611 68.627 248.105C68.627 248.599 69.0178 249 69.4999 249Z" stroke="white" stroke-width="0.75"/>
<path d="M84.5783 249C85.0604 249 85.4512 248.599 85.4512 248.105C85.4512 247.611 85.0604 247.211 84.5783 247.211C84.0962 247.211 83.7053 247.611 83.7053 248.105C83.7053 248.599 84.0962 249 84.5783 249Z" stroke="white" stroke-width="0.75"/>
<path d="M99.6567 249C100.139 249 100.53 248.599 100.53 248.105C100.53 247.611 100.139 247.211 99.6567 247.211C99.1745 247.211 98.7837 247.611 98.7837 248.105C98.7837 248.599 99.1745 249 99.6567 249Z" stroke="white" stroke-width="0.75"/>
<path d="M114.735 249C115.217 249 115.608 248.599 115.608 248.105C115.608 247.611 115.217 247.211 114.735 247.211C114.253 247.211 113.862 247.611 113.862 248.105C113.862 248.599 114.253 249 114.735 249Z" stroke="white" stroke-width="0.75"/>
<path d="M129.814 249C130.296 249 130.686 248.599 130.686 248.105C130.686 247.611 130.296 247.211 129.814 247.211C129.331 247.211 128.941 247.611 128.941 248.105C128.941 248.599 129.331 249 129.814 249Z" stroke="white" stroke-width="0.75"/>
<path d="M144.892 249C145.374 249 145.765 248.599 145.765 248.105C145.765 247.611 145.374 247.211 144.892 247.211C144.41 247.211 144.019 247.611 144.019 248.105C144.019 248.599 144.41 249 144.892 249Z" stroke="white" stroke-width="0.75"/>
<path d="M159.97 249C160.452 249 160.843 248.599 160.843 248.105C160.843 247.611 160.452 247.211 159.97 247.211C159.488 247.211 159.097 247.611 159.097 248.105C159.097 248.599 159.488 249 159.97 249Z" stroke="white" stroke-width="0.75"/>
<path d="M175.048 249C175.531 249 175.921 248.599 175.921 248.105C175.921 247.611 175.531 247.211 175.048 247.211C174.566 247.211 174.176 247.611 174.176 248.105C174.176 248.599 174.566 249 175.048 249Z" stroke="white" stroke-width="0.75"/>
<path d="M190.127 249C190.609 249 191 248.599 191 248.105C191 247.611 190.609 247.211 190.127 247.211C189.645 247.211 189.254 247.611 189.254 248.105C189.254 248.599 189.645 249 190.127 249Z" stroke="white" stroke-width="0.75"/>
</g>
</g>
<defs>
<clipPath id="clip0_21_3083">
<rect x="-52" width="243" height="249" rx="121.5" fill="white"/>
</clipPath>
</defs>
</svg>
