<svg width="14" height="13" viewBox="0 0 14 13" fill="none" xmlns="http://www.w3.org/2000/svg">
<path d="M13.5049 8.35818L10.1277 7.02875L8.69959 6.46654C9.32327 6.14228 9.82985 5.64183 10.1613 5.03904C10.4378 4.53651 10.5808 3.99099 10.5808 3.43909C10.5808 3.11394 10.5182 2.80516 10.4311 2.50724C10.0063 1.06355 8.64007 0 7 0C5.39098 0 4.0455 1.02564 3.59435 2.42822C3.49019 2.74999 3.41859 3.08458 3.41859 3.43909C3.41859 4.05469 3.59284 4.62864 3.88894 5.12785C4.23118 5.70696 4.73862 6.18446 5.35626 6.49146L3.98857 7.017L0.501833 8.35712C0.199051 8.47422 0 8.75613 0 9.07095V12.2326C0 12.6563 0.357775 12.9998 0.799439 12.9998H5.978V10.5791C5.97872 10.5541 5.98758 10.5298 6.00367 10.5086L6.00151 10.5075L6.84969 9.2952L6.85184 9.29626C6.88204 9.25355 6.93573 9.2233 7 9.2233C7.06426 9.2233 7.11796 9.25337 7.14816 9.29626L7.14902 9.29573L7.15678 9.30694C7.15786 9.30872 7.15937 9.31015 7.16023 9.31193L7.9972 10.5081L7.99612 10.5086C8.01221 10.5298 8.02107 10.5542 8.02178 10.5793V13H13.2003C13.642 13 14 12.6565 14 12.2328V9.07095C14.0006 8.75719 13.8048 8.47796 13.5049 8.35818ZM7.99676 7.54753L7.99892 7.5486L7.15053 8.76093L7.14837 8.75986C7.13365 8.7817 7.11219 8.79994 7.08617 8.81272C7.06015 8.82551 7.0305 8.83238 7.00021 8.83265C6.96993 8.83238 6.94028 8.82551 6.91426 8.81272C6.88824 8.79994 6.86678 8.7817 6.85206 8.75986L6.85098 8.7604L6.84235 8.74812C6.84171 8.74687 6.84041 8.7458 6.83977 8.74456L6.0028 7.54807L6.00367 7.54753C5.98758 7.52631 5.97871 7.5019 5.978 7.47688C5.978 7.39768 6.05585 7.33343 6.15182 7.33343H7.84818C7.94414 7.33343 8.022 7.39768 8.022 7.47688C8.02164 7.5019 8.01291 7.52635 7.99676 7.54753Z" fill="white"/>
</svg>
