<svg width="25" height="19" viewBox="0 0 25 19" fill="none" xmlns="http://www.w3.org/2000/svg">
<path d="M2.34375 0C1.72215 0 1.12601 0.250222 0.686469 0.695621C0.24693 1.14102 0 1.74511 0 2.375V5.54167C0 6.17156 0.24693 6.77565 0.686469 7.22105C1.12601 7.66644 1.72215 7.91667 2.34375 7.91667H5.46875C6.09035 7.91667 6.68649 7.66644 7.12603 7.22105C7.56557 6.77565 7.8125 6.17156 7.8125 5.54167V2.375C7.8125 1.74511 7.56557 1.14102 7.12603 0.695621C6.68649 0.250222 6.09035 0 5.46875 0H2.34375ZM1.5625 2.375C1.5625 2.16504 1.64481 1.96367 1.79132 1.81521C1.93784 1.66674 2.13655 1.58333 2.34375 1.58333H5.46875C5.67595 1.58333 5.87466 1.66674 6.02118 1.81521C6.16769 1.96367 6.25 2.16504 6.25 2.375V5.54167C6.25 5.75163 6.16769 5.95299 6.02118 6.10146C5.87466 6.24993 5.67595 6.33333 5.46875 6.33333H2.34375C2.13655 6.33333 1.93784 6.24993 1.79132 6.10146C1.64481 5.95299 1.5625 5.75163 1.5625 5.54167V2.375ZM11.7188 1.58333C11.5115 1.58333 11.3128 1.66674 11.1663 1.81521C11.0198 1.96367 10.9375 2.16504 10.9375 2.375C10.9375 2.58496 11.0198 2.78633 11.1663 2.93479C11.3128 3.08326 11.5115 3.16667 11.7188 3.16667H24.2188C24.426 3.16667 24.6247 3.08326 24.7712 2.93479C24.9177 2.78633 25 2.58496 25 2.375C25 2.16504 24.9177 1.96367 24.7712 1.81521C24.6247 1.66674 24.426 1.58333 24.2188 1.58333H11.7188ZM11.7188 4.75C11.5115 4.75 11.3128 4.83341 11.1663 4.98187C11.0198 5.13034 10.9375 5.3317 10.9375 5.54167C10.9375 5.75163 11.0198 5.95299 11.1663 6.10146C11.3128 6.24993 11.5115 6.33333 11.7188 6.33333H21.0938C21.301 6.33333 21.4997 6.24993 21.6462 6.10146C21.7927 5.95299 21.875 5.75163 21.875 5.54167C21.875 5.3317 21.7927 5.13034 21.6462 4.98187C21.4997 4.83341 21.301 4.75 21.0938 4.75H11.7188ZM2.34375 11.0833C1.72215 11.0833 1.12601 11.3336 0.686469 11.779C0.24693 12.2244 0 12.8284 0 13.4583V16.625C0 17.2549 0.24693 17.859 0.686469 18.3044C1.12601 18.7498 1.72215 19 2.34375 19H5.46875C6.09035 19 6.68649 18.7498 7.12603 18.3044C7.56557 17.859 7.8125 17.2549 7.8125 16.625V13.4583C7.8125 12.8284 7.56557 12.2244 7.12603 11.779C6.68649 11.3336 6.09035 11.0833 5.46875 11.0833H2.34375ZM1.5625 13.4583C1.5625 13.2484 1.64481 13.047 1.79132 12.8985C1.93784 12.7501 2.13655 12.6667 2.34375 12.6667H5.46875C5.67595 12.6667 5.87466 12.7501 6.02118 12.8985C6.16769 13.047 6.25 13.2484 6.25 13.4583V16.625C6.25 16.835 6.16769 17.0363 6.02118 17.1848C5.87466 17.3333 5.67595 17.4167 5.46875 17.4167H2.34375C2.13655 17.4167 1.93784 17.3333 1.79132 17.1848C1.64481 17.0363 1.5625 16.835 1.5625 16.625V13.4583ZM11.7188 12.6667C11.5115 12.6667 11.3128 12.7501 11.1663 12.8985C11.0198 13.047 10.9375 13.2484 10.9375 13.4583C10.9375 13.6683 11.0198 13.8697 11.1663 14.0181C11.3128 14.1666 11.5115 14.25 11.7188 14.25H24.2188C24.426 14.25 24.6247 14.1666 24.7712 14.0181C24.9177 13.8697 25 13.6683 25 13.4583C25 13.2484 24.9177 13.047 24.7712 12.8985C24.6247 12.7501 24.426 12.6667 24.2188 12.6667H11.7188ZM11.7188 15.8333C11.5115 15.8333 11.3128 15.9167 11.1663 16.0652C11.0198 16.2137 10.9375 16.415 10.9375 16.625C10.9375 16.835 11.0198 17.0363 11.1663 17.1848C11.3128 17.3333 11.5115 17.4167 11.7188 17.4167H21.0938C21.301 17.4167 21.4997 17.3333 21.6462 17.1848C21.7927 17.0363 21.875 16.835 21.875 16.625C21.875 16.415 21.7927 16.2137 21.6462 16.0652C21.4997 15.9167 21.301 15.8333 21.0938 15.8333H11.7188Z" fill="black"/>
</svg>
