<svg width="18" height="17" viewBox="0 0 18 17" fill="none" xmlns="http://www.w3.org/2000/svg">
<path d="M8.8318 0C4.08834 0 0.242188 3.80603 0.242188 8.5C0.242188 13.194 4.08834 17 8.8318 17C13.5753 17 17.4214 13.194 17.4214 8.5C17.4214 3.80603 13.5753 0 8.8318 0ZM8.8318 13.433C8.40807 13.433 8.06487 13.0934 8.06487 12.6741C8.06487 12.2548 8.40807 11.9152 8.8318 11.9152C9.25552 11.9152 9.59873 12.2548 9.59873 12.6741C9.59873 13.0934 9.25552 13.433 8.8318 13.433ZM10.0378 9.26842C9.86416 9.33477 9.71475 9.45136 9.60907 9.60298C9.50339 9.75461 9.44633 9.93423 9.44534 10.1184V10.5491C9.44534 10.6326 9.37632 10.7009 9.29195 10.7009H8.37164C8.28728 10.7009 8.21825 10.6326 8.21825 10.5491V10.1412C8.21825 9.7029 8.34671 9.27031 8.5998 8.90982C8.84713 8.55692 9.19225 8.2875 9.59873 8.13382C10.2506 7.88527 10.6724 7.34453 10.6724 6.75446C10.6724 5.91775 9.84606 5.23661 8.8318 5.23661C7.81753 5.23661 6.99117 5.91775 6.99117 6.75446V6.89866C6.99117 6.98214 6.92214 7.05045 6.83778 7.05045H5.91746C5.8331 7.05045 5.76408 6.98214 5.76408 6.89866V6.75446C5.76408 6.00882 6.09386 5.3125 6.69206 4.79453C7.26726 4.29554 8.02652 4.02232 8.8318 4.02232C9.63707 4.02232 10.3963 4.29743 10.9715 4.79453C11.5697 5.3125 11.8995 6.00882 11.8995 6.75446C11.8995 7.85112 11.169 8.83772 10.0378 9.26842Z" fill="#0F172A"/>
</svg>
