<svg width="20" height="19" viewBox="0 0 20 19" fill="none" xmlns="http://www.w3.org/2000/svg">
<path d="M0 11V6C0 5.45 0.196 4.97933 0.588 4.588C0.979333 4.196 1.45 4 2 4H6V2C6 1.45 6.196 0.979 6.588 0.587C6.97933 0.195667 7.45 0 8 0H12C12.55 0 13.021 0.195667 13.413 0.587C13.8043 0.979 14 1.45 14 2V4H18C18.55 4 19.021 4.196 19.413 4.588C19.8043 4.97933 20 5.45 20 6V11H13V10C13 9.71667 12.9043 9.479 12.713 9.287C12.521 9.09567 12.2833 9 12 9H8C7.71667 9 7.47933 9.09567 7.288 9.287C7.096 9.479 7 9.71667 7 10V11H0ZM8 4H12V2H8V4ZM9 13V11H11V13H9ZM2 19C1.45 19 0.979333 18.8043 0.588 18.413C0.196 18.021 0 17.55 0 17V13H7V14C7 14.2833 7.096 14.5207 7.288 14.712C7.47933 14.904 7.71667 15 8 15H12C12.2833 15 12.521 14.904 12.713 14.712C12.9043 14.5207 13 14.2833 13 14V13H20V17C20 17.55 19.8043 18.021 19.413 18.413C19.021 18.8043 18.55 19 18 19H2Z" fill="black"/>
</svg>
