<svg width="12" height="12" viewBox="0 0 12 12" fill="none" xmlns="http://www.w3.org/2000/svg">
<path d="M6.45 5.25C6.15 5.175 5.85 5.025 5.625 4.8C5.4 4.725 5.325 4.5 5.325 4.35C5.325 4.2 5.4 3.975 5.55 3.9C5.775 3.75 6 3.6 6.225 3.675C6.675 3.675 7.05 3.9 7.275 4.2L7.95 3.3C7.725 3.075 7.5 2.925 7.275 2.775C7.05 2.625 6.75 2.55 6.45 2.55V1.5H5.55V2.55C5.175 2.625 4.8 2.85 4.5 3.15C4.2 3.525 3.975 3.975 4.05 4.425C4.05 4.875 4.2 5.325 4.5 5.625C4.875 6 5.4 6.225 5.85 6.45C6.075 6.525 6.375 6.675 6.6 6.825C6.75 6.975 6.825 7.2 6.825 7.425C6.825 7.65 6.75 7.875 6.6 8.1C6.375 8.325 6.075 8.4 5.85 8.4C5.55 8.4 5.175 8.325 4.95 8.1C4.725 7.95 4.5 7.725 4.35 7.5L3.6 8.325C3.825 8.625 4.05 8.85 4.35 9.075C4.725 9.3 5.175 9.525 5.625 9.525V10.5H6.45V9.375C6.9 9.3 7.275 9.075 7.575 8.775C7.95 8.4 8.175 7.8 8.175 7.275C8.175 6.825 8.025 6.3 7.65 6C7.275 5.625 6.9 5.4 6.45 5.25ZM6 0C2.7 0 0 2.7 0 6C0 9.3 2.7 12 6 12C9.3 12 12 9.3 12 6C12 2.7 9.3 0 6 0ZM6 11.175C3.15 11.175 0.825 8.85 0.825 6C0.825 3.15 3.15 0.825 6 0.825C8.85 0.825 11.175 3.15 11.175 6C11.175 8.85 8.85 11.175 6 11.175Z" fill="#061A40"/>
</svg>
