<svg width="12" height="10" viewBox="0 0 12 10" fill="none" xmlns="http://www.w3.org/2000/svg">
<path d="M11.8824 0.294118H3.29412C3.22941 0.294118 3.17647 0.347059 3.17647 0.411765V1.23529C3.17647 1.3 3.22941 1.35294 3.29412 1.35294H11.8824C11.9471 1.35294 12 1.3 12 1.23529V0.411765C12 0.347059 11.9471 0.294118 11.8824 0.294118ZM11.8824 4.47059H3.29412C3.22941 4.47059 3.17647 4.52353 3.17647 4.58824V5.41176C3.17647 5.47647 3.22941 5.52941 3.29412 5.52941H11.8824C11.9471 5.52941 12 5.47647 12 5.41176V4.58824C12 4.52353 11.9471 4.47059 11.8824 4.47059ZM11.8824 8.64706H3.29412C3.22941 8.64706 3.17647 8.7 3.17647 8.76471V9.58823C3.17647 9.65294 3.22941 9.70588 3.29412 9.70588H11.8824C11.9471 9.70588 12 9.65294 12 9.58823V8.76471C12 8.7 11.9471 8.64706 11.8824 8.64706ZM0 0.823529C-1.61152e-09 0.931677 0.0213013 1.03877 0.0626875 1.13868C0.104074 1.2386 0.164734 1.32938 0.241206 1.40585C0.317678 1.48232 0.408463 1.54298 0.508378 1.58437C0.608294 1.62576 0.715382 1.64706 0.823529 1.64706C0.931677 1.64706 1.03877 1.62576 1.13868 1.58437C1.2386 1.54298 1.32938 1.48232 1.40585 1.40585C1.48232 1.32938 1.54299 1.2386 1.58437 1.13868C1.62576 1.03877 1.64706 0.931677 1.64706 0.823529C1.64706 0.715382 1.62576 0.608294 1.58437 0.508378C1.54299 0.408463 1.48232 0.317678 1.40585 0.241206C1.32938 0.164734 1.2386 0.104074 1.13868 0.0626874C1.03877 0.0213011 0.931677 0 0.823529 0C0.715382 0 0.608294 0.0213011 0.508378 0.0626874C0.408463 0.104074 0.317678 0.164734 0.241206 0.241206C0.164734 0.317678 0.104074 0.408463 0.0626875 0.508378C0.0213013 0.608294 -1.61152e-09 0.715382 0 0.823529ZM0 5C-1.61152e-09 5.10815 0.0213013 5.21524 0.0626875 5.31515C0.104074 5.41507 0.164734 5.50585 0.241206 5.58232C0.317678 5.65879 0.408463 5.71946 0.508378 5.76084C0.608294 5.80223 0.715382 5.82353 0.823529 5.82353C0.931677 5.82353 1.03877 5.80223 1.13868 5.76084C1.2386 5.71946 1.32938 5.65879 1.40585 5.58232C1.48232 5.50585 1.54299 5.41507 1.58437 5.31515C1.62576 5.21524 1.64706 5.10815 1.64706 5C1.64706 4.89185 1.62576 4.78476 1.58437 4.68485C1.54299 4.58493 1.48232 4.49415 1.40585 4.41768C1.32938 4.3412 1.2386 4.28054 1.13868 4.23916C1.03877 4.19777 0.931677 4.17647 0.823529 4.17647C0.715382 4.17647 0.608294 4.19777 0.508378 4.23916C0.408463 4.28054 0.317678 4.3412 0.241206 4.41768C0.164734 4.49415 0.104074 4.58493 0.0626875 4.68485C0.0213013 4.78476 -1.61152e-09 4.89185 0 5ZM0 9.17647C-1.61152e-09 9.28462 0.0213013 9.39171 0.0626875 9.49162C0.104074 9.59154 0.164734 9.68232 0.241206 9.75879C0.317678 9.83527 0.408463 9.89593 0.508378 9.93731C0.608294 9.9787 0.715382 10 0.823529 10C0.931677 10 1.03877 9.9787 1.13868 9.93731C1.2386 9.89593 1.32938 9.83527 1.40585 9.75879C1.48232 9.68232 1.54299 9.59154 1.58437 9.49162C1.62576 9.39171 1.64706 9.28462 1.64706 9.17647C1.64706 9.06832 1.62576 8.96123 1.58437 8.86132C1.54299 8.7614 1.48232 8.67062 1.40585 8.59415C1.32938 8.51768 1.2386 8.45702 1.13868 8.41563C1.03877 8.37424 0.931677 8.35294 0.823529 8.35294C0.715382 8.35294 0.608294 8.37424 0.508378 8.41563C0.408463 8.45702 0.317678 8.51768 0.241206 8.59415C0.164734 8.67062 0.104074 8.7614 0.0626875 8.86132C0.0213013 8.96123 -1.61152e-09 9.06832 0 9.17647Z" fill="#5D7FE2"/>
</svg>
