<svg width="21" height="21" viewBox="0 0 21 21" fill="none" xmlns="http://www.w3.org/2000/svg">
<path d="M10.3961 0.396393C4.88229 0.396393 0.396118 4.88225 0.396118 10.3961C0.396118 15.9099 4.88229 20.3958 10.3961 20.3958C15.9099 20.3958 20.3961 15.9099 20.3961 10.3961C20.3961 4.88225 15.9099 0.396393 10.3961 0.396393ZM14.938 6.16037L11.6724 11.5958C11.6537 11.6269 11.6276 11.653 11.5961 11.6717L6.16041 14.9373C6.12494 14.9591 6.08512 14.969 6.0456 14.969C5.98804 14.969 5.93079 14.9473 5.88786 14.9037C5.81536 14.8315 5.80167 14.7189 5.85456 14.6312L9.12204 9.19761C9.14072 9.1665 9.16685 9.14037 9.19827 9.1217L14.6321 5.85422C14.7193 5.80071 14.8319 5.81439 14.9047 5.88782C14.9772 5.96001 14.9909 6.07263 14.938 6.16037ZM10.169 2.30486C10.1749 2.42807 10.0803 2.53261 9.95711 2.53883C9.63073 2.55501 9.29409 2.59297 8.95714 2.6527C8.94376 2.65519 8.931 2.65581 8.91794 2.65581C8.81185 2.65581 8.71757 2.5799 8.69859 2.47163C8.67713 2.35029 8.75833 2.23455 8.87936 2.21339C9.23498 2.15054 9.59029 2.1101 9.93533 2.09329C10.0589 2.09329 10.1628 2.18228 10.169 2.30486ZM4.67881 4.29609C5.42116 3.65703 6.60283 2.81076 8.01691 2.41189C8.13763 2.38016 8.25928 2.44798 8.29226 2.56621C8.32555 2.68444 8.25679 2.80765 8.13825 2.84125C6.80258 3.21772 5.67815 4.02416 4.97003 4.63459C4.92771 4.67068 4.87607 4.68811 4.82442 4.68811C4.76189 4.68811 4.69966 4.66197 4.65547 4.61095C4.57521 4.51761 4.58547 4.37698 4.67881 4.29609Z" fill="#A0AEC0"/>
</svg>
