<svg width="21" height="21" viewBox="0 0 21 21" fill="none" xmlns="http://www.w3.org/2000/svg">
<path d="M10.3965 0.396393C4.88266 0.396393 0.396484 4.88225 0.396484 10.3961C0.396484 15.9099 4.88266 20.3958 10.3965 20.3958C15.9103 20.3958 20.3965 15.9099 20.3965 10.3961C20.3965 4.88225 15.9103 0.396393 10.3965 0.396393ZM14.9383 6.16037L11.6727 11.5958C11.6541 11.6269 11.6279 11.653 11.5965 11.6717L6.16077 14.9373C6.12531 14.9591 6.08548 14.969 6.04596 14.969C5.98841 14.969 5.93116 14.9473 5.88822 14.9037C5.81573 14.8315 5.80204 14.7189 5.85493 14.6312L9.12241 9.19761C9.14108 9.1665 9.16721 9.14037 9.19864 9.1217L14.6325 5.85422C14.7196 5.80071 14.8323 5.81439 14.9051 5.88782C14.9775 5.96001 14.9912 6.07263 14.9383 6.16037ZM10.1694 2.30486C10.1753 2.42807 10.0807 2.53261 9.95748 2.53883C9.6311 2.55501 9.29446 2.59297 8.95751 2.6527C8.94413 2.65519 8.93137 2.65581 8.91831 2.65581C8.81221 2.65581 8.71794 2.5799 8.69896 2.47163C8.67749 2.35029 8.7587 2.23455 8.87972 2.21339C9.23535 2.15054 9.59065 2.1101 9.9357 2.09329C10.0592 2.09329 10.1631 2.18228 10.1694 2.30486ZM4.67917 4.29609C5.42153 3.65703 6.6032 2.81076 8.01728 2.41189C8.13799 2.38016 8.25965 2.44798 8.29263 2.56621C8.32592 2.68444 8.25716 2.80765 8.13862 2.84125C6.80294 3.21772 5.67852 4.02416 4.9704 4.63459C4.92808 4.67068 4.87644 4.68811 4.82479 4.68811C4.76225 4.68811 4.70002 4.66197 4.65584 4.61095C4.57557 4.51761 4.58584 4.37698 4.67917 4.29609Z" fill="#7E38B7"/>
</svg>
