<svg width="21" height="21" viewBox="0 0 21 21" fill="none" xmlns="http://www.w3.org/2000/svg">
<path d="M19.1581 16.0492C19.1581 16.3567 19.0898 16.6726 18.9446 16.9801C18.7995 17.2875 18.6116 17.5778 18.3639 17.8511C17.9455 18.3122 17.4844 18.6453 16.9634 18.8588C16.4511 19.0723 15.896 19.1833 15.2982 19.1833C14.4272 19.1833 13.4964 18.9783 12.5143 18.5599C11.5322 18.1414 10.5502 17.5778 9.57667 16.869C8.59461 16.1517 7.66379 15.3575 6.77567 14.4779C5.89609 13.5898 5.1019 12.659 4.39311 11.6855C3.69286 10.712 3.12925 9.73845 2.71935 8.77347C2.30944 7.79995 2.10449 6.86913 2.10449 5.98101C2.10449 5.40032 2.20697 4.84524 2.41192 4.33286C2.61687 3.81195 2.94138 3.33373 3.39398 2.90674C3.94051 2.36875 4.53829 2.10402 5.17022 2.10402C5.40933 2.10402 5.64844 2.15526 5.86193 2.25773C6.08396 2.36021 6.28037 2.51392 6.43408 2.73595L8.41528 5.52841C8.56899 5.7419 8.68001 5.93831 8.75686 6.12618C8.83372 6.30552 8.87642 6.48485 8.87642 6.6471C8.87642 6.85205 8.81664 7.057 8.69709 7.25342C8.58607 7.44983 8.42382 7.65478 8.21887 7.85973L7.56985 8.53436C7.47592 8.6283 7.43322 8.73931 7.43322 8.87595C7.43322 8.94426 7.44176 9.00404 7.45884 9.07236C7.48446 9.14067 7.51008 9.19191 7.52716 9.24315C7.68087 9.52496 7.9456 9.89216 8.32134 10.3362C8.70563 10.7803 9.11553 11.2329 9.55959 11.6855C10.0207 12.1381 10.4648 12.5565 10.9174 12.9408C11.3615 13.3166 11.7287 13.5727 12.019 13.7265C12.0617 13.7435 12.1129 13.7692 12.1727 13.7948C12.241 13.8204 12.3093 13.8289 12.3862 13.8289C12.5314 13.8289 12.6424 13.7777 12.7363 13.6838L13.3853 13.0433C13.5988 12.8298 13.8038 12.6675 14.0002 12.5651C14.1966 12.4455 14.393 12.3857 14.6065 12.3857C14.7688 12.3857 14.9396 12.4199 15.1274 12.4967C15.3153 12.5736 15.5117 12.6846 15.7252 12.8298L18.5518 14.8366C18.7738 14.9903 18.9276 15.1697 19.0215 15.3831C19.1069 15.5966 19.1581 15.8101 19.1581 16.0492Z" fill="#A0AEC0"/>
</svg>
