<svg width="15" height="15" viewBox="0 0 15 15" fill="none" xmlns="http://www.w3.org/2000/svg">
<path d="M15 6.61525C15 2.71472 11.9685 0 7.61053 0C3.0949 0 0 3.04733 0 7.49606C0 12.0881 3.01267 15 7.76689 15C8.92883 15 10.0436 14.8383 10.8726 14.5596V13.4264C10.293 13.688 9.04745 13.8576 7.78577 13.8576C3.84166 13.8576 1.29808 11.3861 1.29808 7.54996C1.29808 3.81113 3.88749 1.13322 7.49056 1.13322C11.1772 1.13322 13.7019 3.35232 13.7019 6.59685C13.7019 8.80806 12.9552 10.2371 11.7932 10.2371C11.13 10.2371 10.7526 9.86897 10.7526 9.23795V3.96494H9.36152V5.06135H9.21324C8.85469 4.27914 8.0257 3.79404 7.05652 3.79404C5.16939 3.79404 3.8511 5.32165 3.8511 7.50526C3.8511 9.78878 5.14109 11.3256 7.05787 11.3256C8.13623 11.3256 8.96522 10.8129 9.36152 9.89658H9.50979C9.61898 10.7774 10.4574 11.4058 11.5358 11.4058C13.6547 11.4058 15 9.54557 15 6.61656V6.61525ZM5.32575 7.54075C5.32575 5.96713 6.05365 5.03374 7.28837 5.03374C8.54197 5.03374 9.34265 6.00394 9.34265 7.54075C9.34265 9.07756 8.53253 10.057 7.2695 10.057C6.06308 10.057 5.32575 9.10386 5.32575 7.54075Z" fill="white"/>
</svg>
