<svg width="15" height="15" viewBox="0 0 15 15" fill="none" xmlns="http://www.w3.org/2000/svg">
<path d="M14.8529 0.441176H4.11765C4.03676 0.441176 3.97059 0.520588 3.97059 0.617647V1.85294C3.97059 1.95 4.03676 2.02941 4.11765 2.02941H14.8529C14.9338 2.02941 15 1.95 15 1.85294V0.617647C15 0.520588 14.9338 0.441176 14.8529 0.441176ZM14.8529 6.70588H4.11765C4.03676 6.70588 3.97059 6.78529 3.97059 6.88235V8.11765C3.97059 8.21471 4.03676 8.29412 4.11765 8.29412H14.8529C14.9338 8.29412 15 8.21471 15 8.11765V6.88235C15 6.78529 14.9338 6.70588 14.8529 6.70588ZM14.8529 12.9706H4.11765C4.03676 12.9706 3.97059 13.05 3.97059 13.1471V14.3824C3.97059 14.4794 4.03676 14.5588 4.11765 14.5588H14.8529C14.9338 14.5588 15 14.4794 15 14.3824V13.1471C15 13.05 14.9338 12.9706 14.8529 12.9706ZM0 1.23529C-2.0144e-09 1.39752 0.0266266 1.55815 0.0783594 1.70802C0.130092 1.85789 0.205918 1.99407 0.301508 2.10878C0.397098 2.22349 0.510579 2.31448 0.635473 2.37656C0.760367 2.43864 0.894228 2.47059 1.02941 2.47059C1.1646 2.47059 1.29846 2.43864 1.42335 2.37656C1.54824 2.31448 1.66173 2.22349 1.75732 2.10878C1.85291 1.99407 1.92873 1.85789 1.98046 1.70802C2.0322 1.55815 2.05882 1.39752 2.05882 1.23529C2.05882 1.07307 2.0322 0.91244 1.98046 0.762568C1.92873 0.612695 1.85291 0.476517 1.75732 0.361809C1.66173 0.247102 1.54824 0.15611 1.42335 0.0940311C1.29846 0.0319517 1.1646 0 1.02941 0C0.894228 0 0.760367 0.0319517 0.635473 0.0940311C0.510579 0.15611 0.397098 0.247102 0.301508 0.361809C0.205918 0.476517 0.130092 0.612695 0.0783594 0.762568C0.0266266 0.91244 -2.0144e-09 1.07307 0 1.23529ZM0 7.5C-2.0144e-09 7.66222 0.0266266 7.82285 0.0783594 7.97273C0.130092 8.1226 0.205918 8.25878 0.301508 8.37348C0.397098 8.48819 0.510579 8.57918 0.635473 8.64126C0.760367 8.70334 0.894228 8.73529 1.02941 8.73529C1.1646 8.73529 1.29846 8.70334 1.42335 8.64126C1.54824 8.57918 1.66173 8.48819 1.75732 8.37348C1.85291 8.25878 1.92873 8.1226 1.98046 7.97273C2.0322 7.82285 2.05882 7.66222 2.05882 7.5C2.05882 7.33778 2.0322 7.17715 1.98046 7.02727C1.92873 6.8774 1.85291 6.74122 1.75732 6.62651C1.66173 6.51181 1.54824 6.42082 1.42335 6.35874C1.29846 6.29666 1.1646 6.26471 1.02941 6.26471C0.894228 6.26471 0.760367 6.29666 0.635473 6.35874C0.510579 6.42082 0.397098 6.51181 0.301508 6.62651C0.205918 6.74122 0.130092 6.8774 0.0783594 7.02727C0.0266266 7.17715 -2.0144e-09 7.33778 0 7.5ZM0 13.7647C-2.0144e-09 13.9269 0.0266266 14.0876 0.0783594 14.2374C0.130092 14.3873 0.205918 14.5235 0.301508 14.6382C0.397098 14.7529 0.510579 14.8439 0.635473 14.906C0.760367 14.968 0.894228 15 1.02941 15C1.1646 15 1.29846 14.968 1.42335 14.906C1.54824 14.8439 1.66173 14.7529 1.75732 14.6382C1.85291 14.5235 1.92873 14.3873 1.98046 14.2374C2.0322 14.0876 2.05882 13.9269 2.05882 13.7647C2.05882 13.6025 2.0322 13.4419 1.98046 13.292C1.92873 13.1421 1.85291 13.0059 1.75732 12.8912C1.66173 12.7765 1.54824 12.6855 1.42335 12.6234C1.29846 12.5614 1.1646 12.5294 1.02941 12.5294C0.894228 12.5294 0.760367 12.5614 0.635473 12.6234C0.510579 12.6855 0.397098 12.7765 0.301508 12.8912C0.205918 13.0059 0.130092 13.1421 0.0783594 13.292C0.0266266 13.4419 -2.0144e-09 13.6025 0 13.7647Z" fill="#061A40"/>
</svg>
