<svg width="20" height="20" viewBox="0 0 20 20" fill="none" xmlns="http://www.w3.org/2000/svg">
<path opacity="0.4" d="M13.3963 1.66669H16.2179C17.3865 1.66669 18.3333 2.62156 18.3333 3.79999V6.64546C18.3333 7.82388 17.3865 8.77876 16.2179 8.77876H13.3963C12.2277 8.77876 11.2808 7.82388 11.2808 6.64546V3.79999C11.2808 2.62156 12.2277 1.66669 13.3963 1.66669Z" fill="#7E38B7"/>
<path fill-rule="evenodd" clip-rule="evenodd" d="M3.78212 1.66669H6.60376C7.77232 1.66669 8.7192 2.62156 8.7192 3.79999V6.64546C8.7192 7.82388 7.77232 8.77876 6.60376 8.77876H3.78212C2.61357 8.77876 1.66669 7.82388 1.66669 6.64546V3.79999C1.66669 2.62156 2.61357 1.66669 3.78212 1.66669ZM3.78212 11.2213H6.60376C7.77232 11.2213 8.7192 12.1762 8.7192 13.3546V16.2001C8.7192 17.3777 7.77232 18.3334 6.60376 18.3334H3.78212C2.61357 18.3334 1.66669 17.3777 1.66669 16.2001V13.3546C1.66669 12.1762 2.61357 11.2213 3.78212 11.2213ZM16.2179 11.2213H13.3963C12.2277 11.2213 11.2808 12.1762 11.2808 13.3546V16.2001C11.2808 17.3777 12.2277 18.3334 13.3963 18.3334H16.2179C17.3865 18.3334 18.3334 17.3777 18.3334 16.2001V13.3546C18.3334 12.1762 17.3865 11.2213 16.2179 11.2213Z" fill="#7E38B7"/>
</svg>
