<svg width="15" height="15" viewBox="0 0 15 15" fill="none" xmlns="http://www.w3.org/2000/svg">
<path d="M12.861 0.766579C12.7274 0.533308 12.5389 0.340224 12.3137 0.205951C12.0885 0.0716783 11.8343 0.000747339 11.5755 0H3.4245C2.901 0 2.40825 0.293684 2.139 0.766579L0.10725 4.33026C0.0369419 4.45296 -0.000146224 4.59356 4.33259e-07 4.73684C0.00299572 5.49885 0.269621 6.23362 0.75 6.80368V13.4211C0.75 14.2918 1.42275 15 2.25 15H12.75C13.5772 15 14.25 14.2918 14.25 13.4211V6.80368C14.7304 6.23362 14.997 5.49885 15 4.73684C15.0001 4.59356 14.9631 4.45296 14.8927 4.33026L12.861 0.766579ZM13.488 4.935C13.4417 5.31617 13.2651 5.66656 12.9913 5.92068C12.7174 6.17479 12.3651 6.31525 12 6.31579C11.1727 6.31579 10.5 5.60763 10.5 4.73684C10.5 4.68316 10.4812 4.63579 10.4707 4.58526L10.4858 4.58211L9.915 1.57895H11.5755L13.488 4.935ZM6.61425 1.57895H8.385L8.99475 4.78816C8.9685 5.63447 8.31 6.31579 7.5 6.31579C6.69 6.31579 6.0315 5.63447 6.00525 4.78816L6.61425 1.57895ZM3.4245 1.57895H5.085L4.515 4.58211L4.53 4.58526C4.51875 4.63579 4.5 4.68316 4.5 4.73684C4.5 5.60763 3.82725 6.31579 3 6.31579C2.63494 6.31525 2.28256 6.17479 2.00871 5.92068C1.73486 5.66656 1.55829 5.31617 1.512 4.935L3.4245 1.57895ZM6 13.4211V11.0526H9V13.4211H6ZM10.5 13.4211V11.0526C10.5 10.1818 9.82725 9.47368 9 9.47368H6C5.17275 9.47368 4.5 10.1818 4.5 11.0526V13.4211H2.25V7.78263C2.49075 7.84816 2.739 7.89474 3 7.89474C3.42586 7.89497 3.84687 7.79953 4.23488 7.61478C4.62289 7.43003 4.96897 7.16023 5.25 6.82342C5.79975 7.48026 6.60525 7.89474 7.5 7.89474C8.39475 7.89474 9.20025 7.48026 9.75 6.82342C10.031 7.16023 10.3771 7.43003 10.7651 7.61478C11.1531 7.79953 11.5741 7.89497 12 7.89474C12.261 7.89474 12.5092 7.84816 12.75 7.78263V13.4211H10.5Z" fill="white"/>
</svg>
