<svg width="19" height="17" viewBox="0 0 19 17" fill="none" xmlns="http://www.w3.org/2000/svg">
<path opacity="0.4" d="M18.7294 12.008C18.7294 14.5655 16.6761 16.6371 14.1187 16.6463H14.1095H5.02554C2.47727 16.6463 0.396484 14.5838 0.396484 12.0264V12.0172C0.396484 12.0172 0.401984 7.96013 0.409317 5.91968C0.410234 5.53652 0.850224 5.32203 1.14997 5.56036C3.32792 7.28823 7.22274 10.4387 7.27132 10.48C7.92214 11.0016 8.74712 11.2958 9.59044 11.2958C10.4337 11.2958 11.2587 11.0016 11.9095 10.4699C11.9581 10.4378 15.7659 7.38173 17.9768 5.62544C18.2775 5.38619 18.7193 5.60069 18.7202 5.98293C18.7294 8.0078 18.7294 12.008 18.7294 12.008Z" fill="#7E38B7"/>
<path d="M18.2489 2.59704C17.4551 1.10108 15.8931 0.145935 14.1735 0.145935H5.02537C3.30574 0.145935 1.74378 1.10108 0.949961 2.59704C0.772132 2.93162 0.856463 3.34869 1.15254 3.58519L7.95863 9.02914C8.43529 9.41413 9.01277 9.60571 9.59026 9.60571C9.59392 9.60571 9.59667 9.60571 9.59942 9.60571C9.60217 9.60571 9.60584 9.60571 9.60859 9.60571C10.1861 9.60571 10.7636 9.41413 11.2402 9.02914L18.0463 3.58519C18.3424 3.34869 18.4267 2.93162 18.2489 2.59704Z" fill="#7E38B7"/>
</svg>
