<svg width="24" height="24" viewBox="0 0 24 24" fill="none" xmlns="http://www.w3.org/2000/svg">
<path d="M20.6289 15.9984C20.5511 15.9047 20.4747 15.8109 20.3997 15.7204C19.3684 14.4731 18.7445 13.7203 18.7445 10.1892C18.7445 8.36107 18.3072 6.86107 17.4451 5.73607C16.8095 4.90498 15.9503 4.27451 14.8178 3.80857C14.8032 3.80047 14.7902 3.78983 14.7794 3.77717C14.372 2.4131 13.2573 1.49951 12.0001 1.49951C10.7429 1.49951 9.62873 2.41311 9.22139 3.77576C9.21052 3.78796 9.19768 3.79826 9.18342 3.80623C6.54061 4.8942 5.25623 6.98154 5.25623 10.1878C5.25623 13.7203 4.63326 14.4731 3.60108 15.719C3.52608 15.8095 3.44967 15.9014 3.37186 15.997C3.17086 16.2394 3.04351 16.5343 3.00488 16.8468C2.96625 17.1594 3.01796 17.4764 3.15389 17.7604C3.44311 18.3698 4.05951 18.7481 4.76311 18.7481H19.2423C19.9426 18.7481 20.5548 18.3703 20.845 17.7637C20.9815 17.4796 21.0337 17.1623 20.9954 16.8494C20.9571 16.5366 20.8299 16.2412 20.6289 15.9984Z" fill="url(#paint0_linear_118_1543)"/>
<path d="M12 22.4999C12.6773 22.4994 13.3419 22.3155 13.9232 21.9678C14.5046 21.6202 14.9809 21.1216 15.3018 20.5251C15.317 20.4965 15.3244 20.4645 15.3235 20.4322C15.3226 20.3998 15.3134 20.3683 15.2967 20.3406C15.28 20.3129 15.2564 20.29 15.2282 20.2741C15.2 20.2582 15.1683 20.2499 15.1359 20.2499H8.86498C8.8326 20.2498 8.80074 20.2581 8.77251 20.274C8.74428 20.2898 8.72063 20.3127 8.70388 20.3404C8.68712 20.3681 8.67783 20.3997 8.6769 20.4321C8.67597 20.4644 8.68343 20.4965 8.69857 20.5251C9.01945 21.1215 9.49575 21.62 10.077 21.9677C10.6582 22.3154 11.3227 22.4993 12 22.4999Z" fill="url(#paint1_linear_118_1543)"/>
<defs>
<linearGradient id="paint0_linear_118_1543" x1="-2.86496" y1="1.49951" x2="20.9198" y2="9.12685" gradientUnits="userSpaceOnUse">
<stop offset="0.329413" stop-color="#6B06C9"/>
<stop offset="1" stop-color="#7E38B7"/>
</linearGradient>
<linearGradient id="paint1_linear_118_1543" x1="6.51571" y1="20.2499" x2="11.8254" y2="25.066" gradientUnits="userSpaceOnUse">
<stop offset="0.329413" stop-color="#6B06C9"/>
<stop offset="1" stop-color="#7E38B7"/>
</linearGradient>
</defs>
</svg>
