<svg width="19" height="19" viewBox="0 0 19 19" fill="none" xmlns="http://www.w3.org/2000/svg">
<path d="M12.0903 2.66623C11.4061 1.9276 10.4506 1.52084 9.39591 1.52084C8.33559 1.52084 7.37688 1.92514 6.69591 2.6592C6.00755 3.40135 5.67216 4.40998 5.75091 5.49912C5.907 7.64787 7.54212 9.39584 9.39591 9.39584C11.2497 9.39584 12.882 7.64822 13.0406 5.49983C13.1204 4.42053 12.7829 3.41401 12.0903 2.66623Z" fill="#7E38B7"/>
<path d="M15.5834 17.27H3.20845C3.04648 17.2722 2.88607 17.2381 2.73889 17.1704C2.59172 17.1028 2.46149 17.0031 2.35767 16.8788C2.12916 16.6056 2.03705 16.2326 2.10525 15.8554C2.40197 14.2093 3.32798 12.8267 4.78345 11.856C6.0765 10.9943 7.71443 10.5201 9.39595 10.5201C11.0775 10.5201 12.7154 10.9947 14.0084 11.856C15.4639 12.8263 16.3899 14.209 16.6866 15.855C16.7549 16.2322 16.6627 16.6052 16.4342 16.8784C16.3304 17.0028 16.2002 17.1025 16.0531 17.1703C15.9059 17.238 15.7455 17.2721 15.5834 17.27Z" fill="#7E38B7"/>
</svg>
