<svg width="13" height="16" viewBox="0 0 13 16" fill="none" xmlns="http://www.w3.org/2000/svg">
<path d="M6.49597 7.26883C6.41532 7.26177 6.31855 7.26177 6.22984 7.26883C5.3042 7.24129 4.42713 6.89912 3.78438 6.31477C3.14163 5.73043 2.78366 4.9498 2.78629 4.1382C2.78629 2.40682 4.38306 1.00051 6.36694 1.00051C6.83662 0.993086 7.30338 1.0668 7.74056 1.21745C8.17773 1.3681 8.57677 1.59272 8.91488 1.87851C9.25299 2.16429 9.52355 2.50563 9.71112 2.88305C9.89869 3.26046 9.99959 3.66655 10.0081 4.07814C10.0165 4.48972 9.93242 4.89874 9.7605 5.28183C9.58859 5.66493 9.33225 6.0146 9.00612 6.31088C8.67999 6.60716 8.29046 6.84426 7.85977 7.00862C7.42907 7.17299 6.96566 7.26141 6.49597 7.26883ZM2.46371 9.87651C0.512097 11.0213 0.512097 12.887 2.46371 14.0248C4.68145 15.3251 8.31855 15.3251 10.5363 14.0248C12.4879 12.8799 12.4879 11.0143 10.5363 9.87651C8.32661 8.58327 4.68952 8.58327 2.46371 9.87651Z" stroke="white" stroke-linecap="round" stroke-linejoin="round"/>
</svg>
