<svg width="19" height="19" viewBox="0 0 19 19" fill="none" xmlns="http://www.w3.org/2000/svg">
<path d="M12.0909 2.6662C11.4068 1.92757 10.4512 1.52081 9.39652 1.52081C8.33621 1.52081 7.37749 1.92511 6.69652 2.65917C6.00816 3.40132 5.67277 4.40995 5.75152 5.49909C5.90761 7.64784 7.54273 9.39581 9.39652 9.39581C11.2503 9.39581 12.8826 7.64819 13.0412 5.4998C13.121 4.4205 12.7835 3.41398 12.0909 2.6662Z" fill="#A0AEC0"/>
<path d="M15.5842 17.27H3.20919C3.04721 17.2721 2.8868 17.2381 2.73963 17.1704C2.59245 17.1027 2.46222 17.0031 2.3584 16.8787C2.12989 16.6056 2.03778 16.2326 2.10598 15.8553C2.4027 14.2093 3.32872 12.8266 4.78418 11.856C6.07723 10.9943 7.71516 10.52 9.39668 10.52C11.0782 10.52 12.7161 10.9946 14.0092 11.856C15.4646 12.8263 16.3907 14.209 16.6874 15.855C16.7556 16.2322 16.6635 16.6052 16.435 16.8784C16.3312 17.0028 16.201 17.1025 16.0538 17.1702C15.9066 17.238 15.7462 17.2721 15.5842 17.27Z" fill="#A0AEC0"/>
</svg>
