<svg width="15" height="15" viewBox="0 0 15 15" fill="none" xmlns="http://www.w3.org/2000/svg">
<path fill-rule="evenodd" clip-rule="evenodd" d="M4.2862 13.5704C4.2862 13.381 4.34264 13.1993 4.4431 13.0654C4.54356 12.9315 4.67981 12.8562 4.82189 12.8562H14.4643C14.6064 12.8562 14.7426 12.9315 14.8431 13.0654C14.9436 13.1993 15 13.381 15 13.5704C15 13.7598 14.9436 13.9415 14.8431 14.0754C14.7426 14.2093 14.6064 14.2846 14.4643 14.2846H4.82189C4.67981 14.2846 4.54356 14.2093 4.4431 14.0754C4.34264 13.9415 4.2862 13.7598 4.2862 13.5704ZM4.2862 7.85708C4.2862 7.66767 4.34264 7.48602 4.4431 7.35209C4.54356 7.21816 4.67981 7.14292 4.82189 7.14292H14.4643C14.6064 7.14292 14.7426 7.21816 14.8431 7.35209C14.9436 7.48602 15 7.66767 15 7.85708C15 8.04649 14.9436 8.22814 14.8431 8.36207C14.7426 8.496 14.6064 8.57125 14.4643 8.57125H4.82189C4.67981 8.57125 4.54356 8.496 4.4431 8.36207C4.34264 8.22814 4.2862 8.04649 4.2862 7.85708ZM4.2862 2.14377C4.2862 1.95436 4.34264 1.77271 4.4431 1.63878C4.54356 1.50485 4.67981 1.42961 4.82189 1.42961H14.4643C14.6064 1.42961 14.7426 1.50485 14.8431 1.63878C14.9436 1.77271 15 1.95436 15 2.14377C15 2.33318 14.9436 2.51483 14.8431 2.64876C14.7426 2.78269 14.6064 2.85793 14.4643 2.85793H4.82189C4.67981 2.85793 4.54356 2.78269 4.4431 2.64876C4.34264 2.51483 4.2862 2.33318 4.2862 2.14377ZM3.0584 0.209812C3.10828 0.276152 3.14786 0.354961 3.17487 0.441725C3.20187 0.528489 3.21577 0.621504 3.21577 0.715441C3.21577 0.809378 3.20187 0.902393 3.17487 0.989157C3.14786 1.07592 3.10828 1.15473 3.0584 1.22107L1.45133 3.36356C1.40156 3.43007 1.34245 3.48284 1.27737 3.51884C1.21229 3.55484 1.14252 3.57337 1.07206 3.57337C1.0016 3.57337 0.931826 3.55484 0.866745 3.51884C0.801663 3.48284 0.742549 3.43007 0.692788 3.36356L0.157098 2.6494C0.107292 2.583 0.0677834 2.50417 0.0408285 2.41741C0.0138735 2.33066 7.42171e-10 2.23767 0 2.14377C-7.42171e-10 2.04987 0.0138735 1.95688 0.0408285 1.87013C0.0677834 1.78337 0.107292 1.70454 0.157098 1.63814C0.206905 1.57174 0.266033 1.51907 0.331108 1.48313C0.396183 1.4472 0.46593 1.4287 0.536367 1.4287C0.606804 1.4287 0.676551 1.4472 0.741625 1.48313C0.806701 1.51907 0.865829 1.57174 0.915635 1.63814L1.07206 1.84811L2.29986 0.209812C2.34962 0.143305 2.40873 0.0905385 2.47381 0.0545354C2.5389 0.0185324 2.60867 0 2.67913 0C2.74959 0 2.81936 0.0185324 2.88444 0.0545354C2.94952 0.0905385 3.00864 0.143305 3.0584 0.209812ZM3.0584 5.92313C3.10828 5.98946 3.14786 6.06827 3.17487 6.15504C3.20187 6.2418 3.21577 6.33482 3.21577 6.42875C3.21577 6.52269 3.20187 6.61571 3.17487 6.70247C3.14786 6.78923 3.10828 6.86804 3.0584 6.93438L1.45133 9.07687C1.40156 9.14338 1.34245 9.19615 1.27737 9.23215C1.21229 9.26815 1.14252 9.28669 1.07206 9.28669C1.0016 9.28669 0.931826 9.26815 0.866745 9.23215C0.801663 9.19615 0.742549 9.14338 0.692788 9.07687L0.157098 8.36271C0.05651 8.22861 0 8.04673 0 7.85708C0 7.66743 0.05651 7.48555 0.157098 7.35145C0.257687 7.21735 0.394114 7.14202 0.536367 7.14202C0.67862 7.14202 0.815047 7.21735 0.915635 7.35145L1.07206 7.56142L2.29986 5.92313C2.34962 5.85662 2.40873 5.80385 2.47381 5.76785C2.5389 5.73185 2.60867 5.71331 2.67913 5.71331C2.74959 5.71331 2.81936 5.73185 2.88444 5.76785C2.94952 5.80385 3.00864 5.85662 3.0584 5.92313ZM3.0584 11.6364C3.10828 11.7028 3.14786 11.7816 3.17487 11.8684C3.20187 11.9551 3.21577 12.0481 3.21577 12.1421C3.21577 12.236 3.20187 12.329 3.17487 12.4158C3.14786 12.5025 3.10828 12.5814 3.0584 12.6477L1.45133 14.7902C1.40156 14.8567 1.34245 14.9095 1.27737 14.9455C1.21229 14.9815 1.14252 15 1.07206 15C1.0016 15 0.931826 14.9815 0.866745 14.9455C0.801663 14.9095 0.742549 14.8567 0.692788 14.7902L0.157098 14.076C0.05651 13.9419 0 13.76 0 13.5704C0 13.3807 0.05651 13.1989 0.157098 13.0648C0.257687 12.9307 0.394114 12.8553 0.536367 12.8553C0.67862 12.8553 0.815047 12.9307 0.915635 13.0648L1.07206 13.2747L2.29986 11.6364C2.34962 11.5699 2.40873 11.5172 2.47381 11.4812C2.5389 11.4452 2.60867 11.4266 2.67913 11.4266C2.74959 11.4266 2.81936 11.4452 2.88444 11.4812C2.94952 11.5172 3.00864 11.5699 3.0584 11.6364Z" fill="white"/>
</svg>
