<svg width="15" height="15" viewBox="0 0 15 15" fill="none" xmlns="http://www.w3.org/2000/svg">
<path d="M3.28034 5.58693C3.97549 5.4694 4.60113 5.09495 5.03328 4.53779C5.46543 3.98062 5.67255 3.2814 5.61359 2.57869C5.55463 1.87598 5.2339 1.22107 4.71496 0.743739C4.19601 0.266407 3.51673 0.00149214 2.81172 0.00149214C2.10671 0.00149214 1.42743 0.266407 0.908485 0.743739C0.389542 1.22107 0.0688117 1.87598 0.00985442 2.57869C-0.0491029 3.2814 0.158015 3.98062 0.590164 4.53779C1.02231 5.09495 1.64795 5.4694 2.3431 5.58693V9.41366C1.64795 9.53119 1.02231 9.90563 0.590164 10.4628C0.158015 11.02 -0.0491029 11.7192 0.00985442 12.4219C0.0688117 13.1246 0.389542 13.7795 0.908485 14.2568C1.42743 14.7342 2.10671 14.9991 2.81172 14.9991C3.51673 14.9991 4.19601 14.7342 4.71496 14.2568C5.2339 13.7795 5.55463 13.1246 5.61359 12.4219C5.67255 11.7192 5.46543 11.02 5.03328 10.4628C4.60113 9.90563 3.97549 9.53119 3.28034 9.41366V5.58787V5.58693ZM2.81172 4.68791C2.31458 4.68791 1.8378 4.49037 1.48627 4.13875C1.13473 3.78714 0.937244 3.31024 0.937244 2.81298C0.937244 2.31572 1.13473 1.83882 1.48627 1.48721C1.8378 1.13559 2.31458 0.938055 2.81172 0.938055C3.30886 0.938055 3.78564 1.13559 4.13718 1.48721C4.48871 1.83882 4.6862 2.31572 4.6862 2.81298C4.6862 3.31024 4.48871 3.78714 4.13718 4.13875C3.78564 4.49037 3.30886 4.68791 2.81172 4.68791ZM4.6862 12.1876C4.6862 12.6849 4.48871 13.1618 4.13718 13.5134C3.78564 13.865 3.30886 14.0625 2.81172 14.0625C2.31458 14.0625 1.8378 13.865 1.48627 13.5134C1.13473 13.1618 0.937244 12.6849 0.937244 12.1876C0.937244 11.6903 1.13473 11.2135 1.48627 10.8618C1.8378 10.5102 2.31458 10.3127 2.81172 10.3127C3.30886 10.3127 3.78564 10.5102 4.13718 10.8618C4.48871 11.2135 4.6862 11.6903 4.6862 12.1876ZM8.57199 4.55104C8.65998 4.63905 8.77933 4.6885 8.90377 4.6885C9.02822 4.6885 9.14756 4.63905 9.23556 4.55104C9.32355 4.46302 9.37298 4.34365 9.37298 4.21917C9.37298 4.0947 9.32355 3.97533 9.23556 3.88731L8.16054 2.81298H9.84101C10.4624 2.81298 11.0584 3.0599 11.4978 3.49942C11.9372 3.93894 12.1841 4.53506 12.1841 5.15664V9.37522C11.4797 9.37626 10.8013 9.64174 10.2832 10.1191C9.76514 10.5965 9.44507 11.251 9.38635 11.9532C9.32763 12.6553 9.53454 13.3539 9.96614 13.9108C10.3977 14.4676 11.0226 14.8421 11.717 14.9602C12.4115 15.0783 13.125 14.9313 13.7163 14.5484C14.3076 14.1655 14.7337 13.5746 14.9103 12.8925C15.0868 12.2104 15.0009 11.4868 14.6697 10.865C14.3384 10.2432 13.7859 9.7684 13.1213 9.53459V5.15664C13.1213 4.28643 12.7757 3.45186 12.1606 2.83654C11.5454 2.22121 10.711 1.87552 9.84101 1.87552H8.16054L9.23556 0.801185C9.27913 0.757605 9.31369 0.705867 9.33727 0.648926C9.36085 0.591985 9.37298 0.530956 9.37298 0.469323C9.37298 0.407691 9.36085 0.346662 9.33727 0.289721C9.31369 0.23278 9.27913 0.181042 9.23556 0.137462C9.19199 0.0938808 9.14026 0.0593109 9.08333 0.0357252C9.02641 0.0121394 8.96539 0 8.90377 0C8.84216 0 8.78114 0.0121394 8.72421 0.0357252C8.66729 0.0593109 8.61556 0.0938808 8.57199 0.137462L6.69751 2.01239C6.65387 2.05593 6.61925 2.10765 6.59562 2.1646C6.572 2.22155 6.55984 2.28259 6.55984 2.34425C6.55984 2.4059 6.572 2.46695 6.59562 2.5239C6.61925 2.58084 6.65387 2.63257 6.69751 2.67611L8.57199 4.55104ZM14.0586 12.1876C14.0586 12.6849 13.8611 13.1618 13.5096 13.5134C13.158 13.865 12.6813 14.0625 12.1841 14.0625C11.687 14.0625 11.2102 13.865 10.8587 13.5134C10.5071 13.1618 10.3096 12.6849 10.3096 12.1876C10.3096 11.6903 10.5071 11.2135 10.8587 10.8618C11.2102 10.5102 11.687 10.3127 12.1841 10.3127C12.6813 10.3127 13.158 10.5102 13.5096 10.8618C13.8611 11.2135 14.0586 11.6903 14.0586 12.1876Z" fill="white"/>
</svg>
