<svg width="15" height="15" viewBox="0 0 15 15" fill="none" xmlns="http://www.w3.org/2000/svg">
<path fill-rule="evenodd" clip-rule="evenodd" d="M0 1.25C0 0.56 0.635685 0 1.41894 0H5.87847C6.03975 0 6.19443 0.0564412 6.30847 0.156907C6.42252 0.257373 6.48659 0.393634 6.48659 0.535714C6.48659 0.677795 6.42252 0.814056 6.30847 0.914522C6.19443 1.01499 6.03975 1.07143 5.87847 1.07143H1.41894C1.36518 1.07143 1.31362 1.09024 1.27561 1.12373C1.23759 1.15722 1.21623 1.20264 1.21623 1.25V13.75C1.21623 13.8486 1.30705 13.9286 1.41894 13.9286H5.87847C6.03975 13.9286 6.19443 13.985 6.30847 14.0855C6.42252 14.1859 6.48659 14.3222 6.48659 14.4643C6.48659 14.6064 6.42252 14.7426 6.30847 14.8431C6.19443 14.9436 6.03975 15 5.87847 15H1.41894C1.04261 15 0.681701 14.8683 0.415598 14.6339C0.149495 14.3995 0 14.0815 0 13.75V1.25ZM12.978 8.03571L10.3023 10.5243C10.1957 10.628 10.1395 10.7644 10.1455 10.9042C10.1516 11.044 10.2195 11.1762 10.3347 11.2724C10.4499 11.3687 10.6033 11.4215 10.7621 11.4194C10.9209 11.4174 11.0725 11.3607 11.1845 11.2614L14.8332 7.86857C14.9403 7.76905 15 7.63714 15 7.5C15 7.36286 14.9403 7.23095 14.8332 7.13143L11.1845 3.73857C11.0725 3.63934 10.9209 3.58264 10.7621 3.58058C10.6033 3.57852 10.4499 3.63128 10.3347 3.72756C10.2195 3.82384 10.1516 3.95602 10.1455 4.09583C10.1395 4.23563 10.1957 4.37198 10.3023 4.47571L12.978 6.96429H6.28388C6.1226 6.96429 5.96792 7.02073 5.85388 7.12119C5.73983 7.22166 5.67576 7.35792 5.67576 7.5C5.67576 7.64208 5.73983 7.77834 5.85388 7.87881C5.96792 7.97927 6.1226 8.03571 6.28388 8.03571H12.978Z" fill="white"/>
</svg>
