<svg width="21" height="21" viewBox="0 0 21 21" fill="none" xmlns="http://www.w3.org/2000/svg">
<path d="M4.59844 13.0348C4.59844 14.1912 3.65383 15.1358 2.49746 15.1358C1.34113 15.1358 0.396484 14.1912 0.396484 13.0348C0.396484 11.8785 1.34113 10.9338 2.49746 10.9338H4.59844V13.0348Z" fill="#E01E5A"/>
<path d="M5.65723 13.0348C5.65723 11.8785 6.60187 10.9338 7.7582 10.9338C8.91457 10.9338 9.85918 11.8785 9.85918 13.0348V18.2954C9.85918 19.4517 8.91457 20.3963 7.7582 20.3963C6.60187 20.3963 5.65723 19.4517 5.65723 18.2954V13.0348Z" fill="#E01E5A"/>
<path d="M7.7582 4.59804C6.60187 4.59804 5.65723 3.65343 5.65723 2.49706C5.65723 1.34074 6.60187 0.396088 7.7582 0.396088C8.91457 0.396088 9.85918 1.34074 9.85918 2.49706V4.59804H7.7582Z" fill="#36C5F0"/>
<path d="M7.75805 5.65671C8.91441 5.65671 9.85902 6.60136 9.85902 7.75768C9.85902 8.91405 8.91441 9.85866 7.75805 9.85866H2.49746C1.34113 9.85866 0.396484 8.91405 0.396484 7.75768C0.396484 6.60136 1.34113 5.65671 2.49746 5.65671H7.75805Z" fill="#36C5F0"/>
<path d="M16.1943 7.75768C16.1943 6.60136 17.139 5.65671 18.2953 5.65671C19.4517 5.65671 20.3963 6.60136 20.3963 7.75768C20.3963 8.91405 19.4517 9.85866 18.2953 9.85866H16.1943V7.75768Z" fill="#2EB67D"/>
<path d="M15.1355 7.75765C15.1355 8.91402 14.1909 9.85863 13.0346 9.85863C11.8782 9.85863 10.9336 8.91402 10.9336 7.75765V2.49706C10.9336 1.34074 11.8782 0.396088 13.0346 0.396088C14.1909 0.396088 15.1355 1.34074 15.1355 2.49706V7.75765Z" fill="#2EB67D"/>
<path d="M13.0346 16.1944C14.1909 16.1944 15.1355 17.1391 15.1355 18.2954C15.1355 19.4518 14.1909 20.3964 13.0346 20.3964C11.8782 20.3964 10.9336 19.4518 10.9336 18.2954V16.1944H13.0346Z" fill="#ECB22E"/>
<path d="M13.0346 15.1358C11.8782 15.1358 10.9336 14.1912 10.9336 13.0348C10.9336 11.8785 11.8782 10.9338 13.0346 10.9338H18.2952C19.4515 10.9338 20.3961 11.8785 20.3961 13.0348C20.3961 14.1912 19.4515 15.1358 18.2952 15.1358H13.0346Z" fill="#ECB22E"/>
</svg>
